<svg width="35" height="27" viewBox="0 0 35 27" fill="none" xmlns="http://www.w3.org/2000/svg">
<g clip-path="url(#clip0_385_5580)">
<path d="M0 0H35V26.25H0V0Z" fill="white"/>
<path d="M0 0H35V2.01864H0V0ZM0 4.03728H35V6.05592H0V4.03728ZM0 8.07456H35V10.0932H0V8.07456ZM0 12.1118H35V14.1305H0V12.1118ZM0 16.1568H35V18.1754H0V16.1568ZM0 20.1941H35V22.2127H0V20.1941ZM0 24.2314H35V26.25H0V24.2314Z" fill="#D80027"/>
<path d="M2 4.75H19.5V18.8805H2V4.75Z" fill="#2E52B2"/>
<path d="M5.47368 14.7653L5.20078 13.7829L4.90058 14.7653H4L4.73002 15.3564L4.45712 16.3388L5.20078 15.7325L5.92398 16.3388L5.64425 15.3564L6.38791 14.7653H5.47368ZM9.31481 14.7653L9.03509 13.7829L8.74854 14.7653H7.84795L8.57797 15.3564L8.30507 16.3388L9.03509 15.7325L9.77193 16.3388L9.49903 15.3564L10.229 14.7653H9.31481ZM13.1696 14.7653L12.8762 13.7829L12.6033 14.7653H11.6823L12.4327 15.3564L12.1462 16.3388L12.8762 15.7325L13.6267 16.3388L13.3402 15.3564L14.0702 14.7653H13.1696ZM17.0039 14.7653L16.731 13.7829L16.4444 14.7653H15.537L16.2739 15.3564L16.001 16.3388L16.731 15.7325L17.4678 16.3388L17.1745 15.3564L17.925 14.7653H17.0039ZM9.03509 9.88377L8.74854 10.8662H7.84795L8.57797 11.4726L8.30507 12.4397L9.03509 11.841L9.77193 12.4397L9.49903 11.4726L10.229 10.8662H9.31481L9.03509 9.88377ZM5.20078 9.88377L4.90058 10.8662H4L4.73002 11.4726L4.45712 12.4397L5.20078 11.841L5.92398 12.4397L5.64425 11.4726L6.38791 10.8662H5.47368L5.20078 9.88377ZM12.8762 9.88377L12.6033 10.8662H11.6823L12.4327 11.4726L12.1462 12.4397L12.8762 11.841L13.6267 12.4397L13.3402 11.4726L14.0702 10.8662H13.1696L12.8762 9.88377ZM16.731 9.88377L16.4444 10.8662H15.537L16.2739 11.4726L16.001 12.4397L16.731 11.841L17.4678 12.4397L17.1745 11.4726L17.925 10.8662H17.0039L16.731 9.88377ZM5.20078 6L4.90058 6.96711H4L4.73002 7.57346L4.45712 8.54825L5.20078 7.94189L5.92398 8.54825L5.64425 7.57346L6.38791 6.96711H5.47368L5.20078 6ZM9.03509 6L8.74854 6.96711H7.84795L8.57797 7.57346L8.30507 8.54825L9.03509 7.94189L9.77193 8.54825L9.49903 7.57346L10.229 6.96711H9.31481L9.03509 6ZM12.8762 6L12.6033 6.96711H11.6823L12.4327 7.57346L12.1462 8.54825L12.8762 7.94189L13.6267 8.54825L13.3402 7.57346L14.0702 6.96711H13.1696L12.8762 6ZM16.731 6L16.4444 6.96711H15.537L16.2739 7.57346L16.001 8.54825L16.731 7.94189L17.4678 8.54825L17.1745 7.57346L17.925 6.96711H17.0039L16.731 6Z" fill="white"/>
</g>
<defs>
<clipPath id="clip0_385_5580">
<rect width="35" height="26.25" fill="white"/>
</clipPath>
</defs>
</svg>
