<svg width="35" height="27" viewBox="0 0 35 27" fill="none" xmlns="http://www.w3.org/2000/svg">
<g clip-path="url(#clip0_385_5587)">
<path d="M0 0H35V26.25H0V0Z" fill="#00843D"/>
<path d="M19.5562 2.89845C19.9738 3.09417 20.3451 3.37613 20.6458 3.72575C20.9465 4.07538 21.1697 4.48474 21.3008 4.92687C21.4318 5.36901 21.4677 5.83389 21.4061 6.2909C21.3445 6.74791 21.1867 7.18668 20.9433 7.57832C20.6998 7.96996 20.3761 8.30558 19.9936 8.56308C19.611 8.82058 19.1783 8.99412 18.7238 9.07227C18.2693 9.15041 17.8034 9.1314 17.3568 9.01647C16.9102 8.90154 16.4931 8.6933 16.1328 8.40548C16.8486 8.70663 17.6483 8.74277 18.3884 8.5074C19.1284 8.27203 19.7603 7.78057 20.1707 7.12125C20.581 6.46194 20.7429 5.67794 20.6273 4.91001C20.5117 4.14208 20.1261 3.44052 19.5398 2.93126L19.5562 2.89845ZM16.4609 5.3047L16.8109 4.1672L15.8429 4.87267H17.0406L16.0671 4.1672L16.4609 5.3047ZM16.4609 3.63126L16.8109 2.49376L15.8429 3.19923H17.0406L16.0671 2.47736L16.4609 3.63126ZM18.1125 4.48439L18.4625 3.34689L17.489 4.05236H18.6921L17.7187 3.34689L18.1125 4.48439ZM14.7765 6.14142L15.1539 5.00392L14.1804 5.70392H15.3835L14.4101 5.00392L14.7765 6.14142ZM16.4335 6.98361L16.8054 5.85157L15.8375 6.55157H17.0351L16.0617 5.85157L16.4335 6.98361Z" fill="white"/>
<path d="M4.73584 0H11.8233V26.25H4.73584V0Z" fill="#D22630"/>
<path d="M6.45312 0H6.22344L5.76953 0.415625L5.60547 0.229687H5.76953L5.72578 0.065625H5.45781L4.9 0.557813V0.765625H5.17344V0.601562L5.29375 0.721875L5.00391 0.973437L5.14062 1.09375L4.73047 1.46562V1.73906L5.41406 1.11016L5.29375 0.967969L5.56172 0.716406L5.33203 0.492188L5.47969 0.328125L5.78594 0.6125L6.45312 0ZM4.75781 0V0.475781L4.89453 0.328125V0.125781H5.05859L5.21172 0H4.75781ZM5.99375 0H5.82969L5.85156 0.125781L5.99375 0Z" fill="#383739"/>
<path d="M6.43115 0H6.22334L5.78584 0.415625L5.5835 0.207813H5.76943L5.72568 0.0601563H5.47959L4.93818 0.579688V0.74375H5.146V0.535937L5.33193 0.721875L5.04209 0.973437L5.16787 1.09375L4.75225 1.50937V1.71719L5.37568 1.09375L5.2499 0.973437L5.53975 0.721875L5.29365 0.497656L5.50146 0.311719L5.78584 0.601562L6.40928 0H6.43115ZM4.73584 0V0.453906L4.85615 0.311719V0.103906H5.04209L5.16787 0H4.73584ZM5.97178 0H5.87334V0.0820312L5.97178 0Z" fill="#FFC72C"/>
<path d="M4.73594 3.04065V3.30862L5.12969 3.68049L4.98203 3.80081L5.27188 4.07424L5.14609 4.17268V4.00862H4.9V4.21643L5.45781 4.73596H5.73125L5.76953 4.52815H5.57812L5.74219 4.38049L6.19609 4.79612L5.74219 5.16799L5.57812 5.02034H5.74219L5.69844 4.81799H5.43047L4.89453 5.37581V5.57815H5.16797V5.37581L5.28828 5.49612L4.99844 5.74768L5.14062 5.88987L4.73047 6.26174V6.51331L5.41406 5.88987L5.29375 5.74768L5.56172 5.49612L5.33203 5.2719L5.47969 5.12424L5.78594 5.37581L6.46953 4.75237L5.78594 4.1344L5.47969 4.42424L5.33203 4.27659L5.56172 4.05237L5.28828 3.77893L5.41406 3.66409L4.75781 3.04065H4.73594ZM4.73594 4.27659V5.2719L4.87812 5.10784V4.90002H5.04219L5.18984 4.77424L5.04219 4.64846H4.87812V4.44612L4.73594 4.27659ZM5.87344 4.63206V4.90002L6.01562 4.77424L5.87344 4.63206Z" fill="#383739"/>
<path d="M4.73584 3.07892V3.28673L5.146 3.68048L5.02568 3.80079L5.31553 4.07423L5.12959 4.21642V4.03048H4.92178V4.19454L5.45772 4.71407H5.70381L5.74756 4.56642H5.53975L5.76943 4.35861L6.24521 4.77423L5.76943 5.18986L5.56162 4.98204H5.74756L5.70381 4.85626H5.45772L4.92178 5.34845V5.51798H5.12959V5.31017L5.31553 5.49611L5.02568 5.74767L5.146 5.88986L4.73584 6.28361V6.49142L5.35381 5.86798L5.22803 5.74767L5.51787 5.49611L5.27178 5.27189L5.47959 5.08595L5.78584 5.37579L6.43115 4.77423L5.76943 4.17267L5.45772 4.46251L5.27178 4.29845L5.51787 4.07423L5.22803 3.80079L5.37568 3.68048L4.73584 3.07892ZM4.73584 4.32032V5.22814L4.85615 5.10782V4.90001H5.04209L5.16787 4.77423L5.04209 4.67032H4.85615V4.46251L4.73584 4.32032ZM5.88975 4.67032V4.85626L5.99912 4.77423L5.88975 4.67032Z" fill="#FFC72C"/>
<path d="M4.73594 7.97888V8.26873L5.12969 8.6406L4.98203 8.76638L5.27188 9.01248L5.14609 9.13826V8.97419H4.9V9.17654L5.45781 9.66873H5.73125L5.76953 9.50466H5.57812L5.74219 9.3406L6.19609 9.73435L5.74219 10.15L5.57812 9.96404H5.74219L5.69844 9.7781H5.43047L4.87266 10.2922V10.5H5.1625V10.3359L5.28828 10.4398L4.99844 10.7078L5.14062 10.8281L4.73047 11.2054V11.4734L5.41406 10.85L5.29375 10.7078L5.56172 10.4344L5.33203 10.232L5.47969 10.0679L5.78594 10.3359L6.46953 9.71248L5.78594 9.09451L5.47969 9.38435L5.33203 9.22029L5.56172 9.01248L5.28828 8.73904L5.41406 8.61873L4.75781 8.00076L4.73594 7.97888ZM4.73594 9.22029V10.1883L4.87812 10.0461V9.83826H5.04219L5.18984 9.71248L5.04219 9.57029H4.87812V9.38435L4.73594 9.22029ZM5.87344 9.57029V9.84373L6.01562 9.69607L5.87344 9.57029Z" fill="#383739"/>
<path d="M4.73584 8.00073V8.20308L5.146 8.6187L5.03115 8.74995L5.321 8.99604L5.13506 9.16011V8.95776H4.92178V9.16011L5.45772 9.63589H5.70381L5.74756 9.4937H5.53975L5.76943 9.28589L6.24521 9.70151L5.76943 10.1335L5.56162 9.92573H5.74756L5.70381 9.78354H5.45772L4.92178 10.2976V10.4617H5.12959V10.2593L5.31553 10.4234L5.02568 10.6914L5.146 10.8171L4.73584 11.2273V11.4351L5.35381 10.8171L5.22803 10.6914L5.51787 10.4179L5.27178 10.2156L5.47959 10.0078L5.78584 10.3359L6.43115 9.71792L5.76943 9.1437L5.45772 9.42808L5.27178 9.24214L5.51787 9.0398L5.22803 8.76636L5.37568 8.64605L4.73584 8.00073ZM4.73584 9.23667V10.1664L4.85615 10.0242V9.81636H5.04209L5.16787 9.71245L5.04209 9.59214H4.85615V9.38433L4.73584 9.25855V9.23667ZM5.88975 9.60854V9.79448L5.99912 9.69605L5.88975 9.60854Z" fill="#FFC72C"/>
<path d="M4.73594 12.9172V13.1688L5.12969 13.5406L4.98203 13.661L5.27188 13.9344L5.14609 14.0547V13.8906H4.9V14.0985L5.45781 14.5906H5.73125L5.76953 14.4047H5.57812L5.74219 14.2625L6.19609 14.6563L5.74219 15.0446L5.57812 14.8805H5.74219L5.69844 14.6946H5.43047L4.87266 15.2141V15.4219H5.1625V15.2578L5.28828 15.3563L4.99844 15.6297L5.14062 15.75L4.73047 16.1219V16.3953L5.41406 15.7664L5.29375 15.6188L5.56172 15.3508L5.33203 15.143L5.47969 14.9789L5.78594 15.2688L6.46953 14.6508L5.78594 14.0274L5.47969 14.3008L5.33203 14.1531L5.56172 13.9453L5.28828 13.6555L5.41406 13.5352L4.75781 12.9117L4.73594 12.9172ZM4.73594 14.1586V15.1321L4.87812 14.968V14.7766H5.04219L5.19531 14.6563L5.04766 14.5086H4.88359V14.3281L4.73594 14.1586ZM5.87344 14.5086V14.7821L6.01562 14.6344L5.87344 14.5086Z" fill="#383739"/>
<path d="M4.73594 12.9391V13.1469L5.14609 13.5571L5.02578 13.6664L5.31562 13.9289L5.12969 14.093V13.8906H4.92187V14.0766L5.45781 14.5688H5.70391L5.74766 14.4266H5.53984L5.76953 14.2188L6.24531 14.6344L5.76953 15.0719L5.56172 14.8586H5.74766L5.70391 14.7164H5.45781L4.92187 15.2086V15.4H5.12969V15.1922L5.31562 15.3563L5.02578 15.6297L5.14062 15.75L4.73047 16.1656V16.368L5.35391 15.75L5.22812 15.6242L5.51797 15.3563L5.27188 15.1485L5.47969 14.9461L5.78594 15.2524L6.43125 14.6344L5.76953 14.0547L5.45781 14.3446L5.27188 14.1586L5.51797 13.9508L5.22812 13.661L5.37578 13.5406L4.73594 12.9391ZM4.73594 14.1805V15.1102L4.85625 14.9625V14.7656H5.04219L5.16797 14.6563L5.04219 14.536H4.85625V14.3281L4.73594 14.2078V14.1805ZM5.88984 14.5524V14.7383L5.99922 14.6289L5.88984 14.5524Z" fill="#FFC72C"/>
<path d="M4.73594 17.861V18.1071L5.12969 18.4789L4.98203 18.6047L5.27188 18.8727L5.14609 18.9766V18.8125H4.9V19.0149L5.45781 19.5344H5.73125L5.76953 19.3485H5.57812L5.74219 19.1844L6.19609 19.5946L5.74219 19.9883L5.57812 19.8242H5.74219L5.69844 19.6383H5.43047L4.87266 20.1524V20.3602H5.1625V20.1742L5.28828 20.2946L4.99844 20.568L5.14062 20.6883L4.73047 21.0602V21.3117L5.41406 20.6883L5.29375 20.568L5.56172 20.2946L5.33203 20.0703L5.47969 19.9227L5.78594 20.2125L6.46953 19.5946L5.78594 18.9766L5.47969 19.2446L5.33203 19.0969L5.56172 18.8727L5.28828 18.5992L5.41406 18.4844L4.73594 17.861ZM4.73594 19.0969V20.0703L4.87812 19.9063V19.7203H5.04219L5.18984 19.5727L5.04219 19.4524H4.87812V19.2446L4.73594 19.0969ZM5.87344 19.4524V19.6985L6.01562 19.5727L5.87344 19.4524Z" fill="#383739"/>
<path d="M4.73584 17.8828V18.0852L5.14053 18.4844L5.02022 18.6102L5.31006 18.8781L5.12412 19.0422V18.8344H4.92178V19.0203L5.45772 19.5125H5.70381L5.74756 19.3703H5.53975L5.76943 19.168L6.24521 19.5781L5.76943 20.0156L5.56162 19.8078H5.74756L5.70381 19.6602H5.45772L4.92178 20.1578V20.3438H5.12959V20.1359L5.31553 20.3L5.02568 20.5734L5.146 20.6937L4.73584 21.1094V21.2953L5.35381 20.6719L5.22803 20.5625L5.51787 20.2945L5.27178 20.0703L5.47959 19.8844L5.78584 20.1742L6.43115 19.5727L5.76943 18.9711L5.45772 19.2664L5.27178 19.1023L5.51787 18.8727L5.22803 18.5992L5.37568 18.4789L4.73584 17.8828ZM4.73584 19.1188V20.0484L4.85615 19.9227V19.7203H5.04209L5.16787 19.5945L5.04209 19.4906H4.85615V19.2828L4.73584 19.1406V19.1188ZM5.88975 19.4688V19.6766L5.99912 19.5727L5.88975 19.4688Z" fill="#FFC72C"/>
<path d="M10.0898 0H10.3359L10.7516 0.415625L10.9594 0.207813H10.7953L10.8336 0.04375H11.1016L11.6594 0.535937V0.74375H11.375V0.579688L11.2492 0.705469L11.5391 0.951562L11.3969 1.07734L11.8125 1.44922V1.71719L11.1234 1.09375L11.2438 0.951562L10.9758 0.705469L11.2055 0.475781L11.0578 0.311719L10.7516 0.617969L10.0898 0ZM11.8234 0V0.475781L11.6594 0.328125V0.125781H11.4953L11.3477 0H11.8234ZM10.5219 0H10.6859L10.6695 0.125781L10.5219 0Z" fill="#383739"/>
<path d="M10.1281 0H10.2922L10.7734 0.415625L10.9758 0.207813H10.7898L10.8336 0.0601563H11.0797L11.6211 0.579688V0.74375H11.4133V0.535937L11.2492 0.721875L11.5172 0.973437L11.3914 1.11563L11.807 1.50937V1.71719L11.1836 1.09375L11.3094 0.973437L11.0195 0.721875L11.2656 0.497656L11.0578 0.311719L10.7898 0.617969L10.1172 0H10.1281ZM11.8234 0V0.453906L11.6813 0.311719V0.103906H11.4953L11.3859 0H11.8234ZM10.5438 0H10.6695V0.0820312L10.5438 0Z" fill="#FFC72C"/>
<path d="M11.8234 3.04065V3.30862L11.4133 3.68049L11.5555 3.80081L11.2656 4.07424L11.3914 4.17268V4.00862H11.6375V4.21643L11.0797 4.73596H10.8117L10.7734 4.52815H10.9375L10.7734 4.38049L10.3359 4.79612L10.7516 5.16799L10.9375 5.02034H10.7734L10.8117 4.81799H11.0852L11.6375 5.35393V5.56174H11.375V5.37581L11.2492 5.49612L11.5391 5.74768L11.3969 5.88987L11.8125 6.26174V6.51331L11.1289 5.88987L11.2492 5.74768L10.9813 5.49612L11.2109 5.2719L11.0633 5.12424L10.757 5.37581L10.0625 4.75237L10.7461 4.1344L11.0523 4.42424L11.2 4.27659L10.9703 4.05237L11.2438 3.77893L11.118 3.65862L11.8016 3.04065H11.8234ZM11.8234 4.27659V5.2719L11.6594 5.10784V4.90002H11.4953L11.3477 4.77424L11.4953 4.64846H11.6594V4.44612L11.8234 4.27659ZM10.6695 4.63206L10.6859 4.77424L10.6695 4.90002L10.5219 4.77424L10.6695 4.63206Z" fill="#383739"/>
<path d="M11.8235 3.07892V3.28673L11.3696 3.65861L11.4954 3.78439L11.222 4.05236L11.386 4.19454V4.00861H11.5993V4.17267L11.0579 4.6922H10.8118L10.7735 4.54454H10.9759L10.7517 4.3422L10.2759 4.75236L10.7517 5.16798L10.9595 4.96017H10.7735L10.8118 4.83439H11.0579L11.5993 5.33204V5.49611H11.3915V5.29376L11.2274 5.4797L11.4954 5.72579L11.3696 5.86798L11.7853 6.26173V6.46954L11.1563 5.85157L11.2821 5.72579L10.9923 5.4797L11.2384 5.25001L11.036 5.06407L10.7462 5.35392L10.0845 4.75236L10.7407 4.15079L11.0524 4.44611L11.2384 4.28204L10.9923 4.05236L11.2821 3.77892L11.1399 3.65861L11.8235 3.07892ZM11.8235 4.32032V5.22814L11.6813 5.10782V4.90001H11.4954L11.386 4.77423L11.4954 4.67032H11.6813V4.46251L11.8235 4.32032ZM10.6478 4.67032L10.6696 4.7797V4.85626L10.5438 4.77423L10.6478 4.67032Z" fill="#FFC72C"/>
<path d="M11.8233 7.97888V8.26873L11.4132 8.6406L11.5554 8.76638L11.2655 9.01248L11.3913 9.13826V8.9742H11.6374V9.17654L11.0796 9.66873H10.8116L10.7515 9.50466H10.9155L10.7515 9.3406L10.3358 9.71248L10.7515 10.1281L10.9374 9.94216H10.7733L10.8116 9.75623H11.0851L11.6374 10.2703V10.4781H11.3749V10.314L11.2491 10.4179L11.539 10.6859L11.3968 10.8117L11.8124 11.1836V11.4515L11.1233 10.8281L11.2437 10.6859L10.9757 10.4125L11.2054 10.2101L11.0577 10.0461L10.7515 10.3359L10.0679 9.71248L10.7515 9.09451L11.0577 9.38435L11.2054 9.22029L10.9757 9.01248L11.2491 8.73904L11.1233 8.61873L11.8069 8.00076L11.8233 7.97888ZM11.8233 9.22029V10.1883L11.6593 10.0461V9.83826H11.4952L11.3476 9.71248L11.4952 9.57029H11.6593V9.38435L11.8233 9.22029ZM10.6694 9.57029L10.6858 9.69607L10.6694 9.83826L10.5218 9.69607L10.6694 9.57029Z" fill="#383739"/>
<path d="M11.8235 8.00079V8.20314L11.386 8.61876L11.5173 8.74454L11.2438 8.99064L11.4079 9.1547V8.95236H11.6212V9.1547L11.0798 9.63048H10.8337L10.7899 9.48829H10.9978L10.7517 9.30236L10.2759 9.71251L10.7517 10.15L10.9595 9.9422H10.7735L10.8118 9.79454H11.0579L11.5993 10.3141V10.4781H11.3915V10.2703L11.2274 10.4344L11.4954 10.7078L11.3696 10.8281L11.7853 11.2438V11.4516L11.1563 10.8281L11.2821 10.7078L10.9923 10.4344L11.2384 10.232L11.036 10.0242L10.7462 10.3359L10.0845 9.71251L10.7407 9.13829L11.0524 9.42267L11.2384 9.23673L10.9923 9.03439L11.2821 8.76095L11.1399 8.64064L11.8235 8.00079ZM11.8235 9.23673V10.1664L11.6813 10.0242V9.81642H11.4954L11.386 9.71251L11.4954 9.5922H11.6813V9.38439L11.8235 9.25861V9.23673ZM10.6478 9.60861L10.6696 9.69611V9.79454L10.5438 9.69611L10.6478 9.60861Z" fill="#FFC72C"/>
<path d="M11.8234 12.9172V13.1687L11.4133 13.5406L11.5555 13.6609L11.2656 13.9344L11.3914 14.0547V13.8906H11.6375V14.0984L11.0797 14.5906H10.8117L10.7734 14.4047H10.9375L10.7734 14.2625L10.3359 14.6562L10.7516 15.0445L10.9375 14.8805H10.7734L10.8117 14.6945H11.0852L11.6375 15.2141V15.4219H11.375V15.2578L11.2492 15.3562L11.5391 15.6297L11.3969 15.75L11.8125 16.1219V16.3953L11.1289 15.7719L11.2492 15.6242L10.9813 15.3562L11.2109 15.1484L11.0633 14.9844L10.757 15.2742L10.0625 14.6562L10.7461 14.0328L11.0523 14.3062L11.2 14.1586L10.9703 13.9508L11.2438 13.6609L11.118 13.5406L11.8016 12.9172H11.8234ZM11.8234 14.1586V15.132L11.6594 14.968V14.7766H11.4953L11.3477 14.6562L11.4953 14.5086H11.6594V14.3281L11.8234 14.1586ZM10.6695 14.5086L10.6859 14.6344L10.6695 14.7766L10.5219 14.6344L10.6695 14.5086Z" fill="#383739"/>
<path d="M11.8235 12.9391V13.1469L11.386 13.5571L11.5173 13.6664L11.2438 13.9289L11.4079 14.093V13.8906H11.6212V14.0766L11.0798 14.5688H10.8337L10.7899 14.4266H10.9978L10.7735 14.2188L10.2978 14.6344L10.7735 15.0719L10.9759 14.8586H10.7899L10.8337 14.7164H11.0798L11.6212 15.2086V15.4H11.4134V15.1922L11.2493 15.3563L11.5173 15.6297L11.3915 15.75L11.8071 16.1656V16.368L11.1837 15.75L11.3095 15.6242L11.0196 15.3563L11.2657 15.1485L11.0579 14.9461L10.7735 15.2524L10.1118 14.6344L10.7681 14.0547L11.0798 14.3446L11.2657 14.1586L11.0196 13.9508L11.3095 13.661L11.1618 13.5406L11.8235 12.9391ZM11.8235 14.1805V15.1102L11.6813 14.9625V14.7656H11.4954L11.386 14.6563L11.4954 14.536H11.6813V14.3281L11.8235 14.2078V14.1805ZM10.6478 14.5524L10.6696 14.6344V14.7383L10.5438 14.6289L10.6478 14.5524Z" fill="#FFC72C"/>
<path d="M11.8235 17.861V18.1071L11.4133 18.4789L11.5555 18.6047L11.2657 18.8727L11.3915 18.9766V18.8125H11.6375V19.0149L11.0797 19.5344H10.8118L10.7735 19.3485H10.9375L10.7735 19.1844L10.336 19.5946L10.7516 19.9883L10.9375 19.8242H10.7735L10.8118 19.6383H11.0852L11.6375 20.1524V20.3602H11.375V20.1742L11.2493 20.2946L11.5391 20.568L11.3969 20.6883L11.8125 21.0602V21.3117L11.129 20.6883L11.2493 20.568L10.9813 20.2946L11.211 20.0703L11.0633 19.9227L10.7571 20.2125L10.0735 19.5946L10.7571 18.9766L11.0633 19.2446L11.211 19.0969L10.9813 18.8727L11.2547 18.5992L11.129 18.4789L11.8235 17.861ZM11.8235 19.0969V20.0703L11.6594 19.9063V19.7203H11.4954L11.3477 19.5727L11.4954 19.4524H11.6594V19.2446L11.8235 19.0969ZM10.6696 19.4524L10.686 19.5727L10.6696 19.6985L10.5219 19.5727L10.6696 19.4524Z" fill="#383739"/>
<path d="M11.8235 17.8828V18.0852L11.3751 18.4844L11.5009 18.6102L11.2274 18.8781L11.3915 19.0422V18.8344H11.6048V19.0203L11.0634 19.5125H10.8173L10.779 19.3703H10.9813L10.7571 19.168L10.2813 19.5781L10.7571 20.0156L10.9649 19.8078H10.7735L10.8118 19.6602H11.0579L11.5993 20.1578V20.3438H11.3915V20.1359L11.2274 20.3L11.4954 20.5734L11.3696 20.6937L11.7853 21.1094V21.2953L11.1563 20.6719L11.2821 20.5625L10.9923 20.2945L11.2384 20.0703L11.036 19.8844L10.7462 20.1742L10.0845 19.5727L10.7407 18.9711L11.0524 19.2664L11.2384 19.1023L10.9923 18.8727L11.2821 18.5992L11.1399 18.4789L11.8235 17.8828ZM11.8235 19.1188V20.0484L11.6813 19.9227V19.7203H11.4954L11.386 19.5945L11.4954 19.4906H11.6813V19.2828L11.8235 19.1406V19.1188ZM10.6478 19.4688L10.6696 19.5781V19.6766L10.5438 19.5727L10.6478 19.4688Z" fill="#FFC72C"/>
<path d="M5.2937 23.2313C5.33198 23.3789 5.45776 23.4828 5.50151 23.6469C5.53979 23.4828 5.58354 23.3352 5.5562 23.1711C5.51792 23.0453 5.41401 22.9633 5.41401 22.8211C5.2937 22.9195 5.27183 23.0672 5.2937 23.2313ZM5.27183 23.8547C5.37425 23.9893 5.50995 24.0948 5.66558 24.1609C5.62183 24.0406 5.66558 23.9531 5.74761 23.8547C5.80776 23.7453 5.85151 23.6469 5.78589 23.4992C5.76154 23.5653 5.72843 23.6279 5.68745 23.6852C5.61792 23.7673 5.57417 23.8681 5.56167 23.975C5.47964 23.9149 5.45776 23.8328 5.41401 23.7508C5.34968 23.6284 5.25079 23.5276 5.12964 23.461C5.16792 23.6031 5.18433 23.7289 5.27183 23.8547ZM5.82964 24.2649L5.78589 24.4727L5.56167 24.3086C5.45776 24.1992 5.33198 24.161 5.24995 24.0352C5.25121 24.1125 5.27068 24.1885 5.30679 24.2569C5.3429 24.3253 5.39462 24.3842 5.45776 24.4289L5.89526 24.7024C5.87339 24.5547 5.93354 24.4289 5.97183 24.2867C5.98506 24.2294 5.98453 24.1698 5.97027 24.1128C5.95601 24.0558 5.92843 24.0029 5.88979 23.9586C5.88979 24.057 5.85151 24.1609 5.82964 24.243V24.2649ZM6.11948 24.7406L6.28354 25.0305C6.14136 24.9867 6.01558 24.9047 5.87339 24.8227C5.72573 24.7406 5.56167 24.7024 5.41401 24.5766C5.44746 24.6946 5.51087 24.8019 5.59807 24.8882C5.68528 24.9744 5.79331 25.0366 5.91167 25.0688C6.09761 25.1125 6.23979 25.0906 6.44761 25.1781C6.42161 25.0332 6.37366 24.893 6.30542 24.7625L6.17964 24.4727C6.14898 24.5104 6.12758 24.5548 6.11713 24.6023C6.10669 24.6497 6.10749 24.699 6.11948 24.7461V24.7406ZM6.65542 25.1344C6.70803 25.2183 6.77907 25.2893 6.86323 25.3422C6.65542 25.3422 6.49136 25.2328 6.28354 25.2164C6.16323 25.2164 6.03745 25.2602 5.91167 25.2383C6.07573 25.3422 6.22339 25.4461 6.40386 25.4461C6.63354 25.4844 6.86323 25.4461 7.1312 25.4461C7.01999 25.3632 6.92848 25.2568 6.86323 25.1344C6.75933 24.9703 6.65542 24.8609 6.46948 24.8445L6.67729 25.1344H6.65542ZM7.38276 25.4625C7.02729 25.5281 6.67729 25.6102 6.30542 25.6102C6.69436 25.7723 7.13045 25.7801 7.52495 25.632C7.73276 25.5664 7.9187 25.5063 8.08276 25.5227C8.32886 25.5227 8.6187 25.6485 8.95229 25.982L9.07808 25.8781C8.84584 25.6843 8.57237 25.546 8.27855 25.474C7.98473 25.402 7.67833 25.398 7.38276 25.4625Z" fill="#FFC72C"/>
<path d="M5.62192 3.07889L5.04224 2.73436V1.90311L5.62192 1.54764V1.09374L6.14146 0.787488H6.57896L7.39927 0.311707H9.13833L9.96411 0.787488H10.3797L10.9594 1.09374V1.54764L11.5172 1.90311V2.72343L10.9594 3.07889V3.51639L10.418 3.84452H9.98052L9.16021 4.29843H7.42114L6.59536 3.84452H6.17974L5.60005 3.51639L5.62192 3.07889Z" fill="#383739"/>
<path d="M7.39912 0.328125L6.57881 0.803906H6.16318L5.62178 1.11562V1.55313L5.06396 1.90312V2.72344L5.62178 3.05703V3.51641L6.16318 3.82266H6.57334L7.39912 4.27656H9.13818L9.96396 3.82266H10.3796L10.9155 3.51641V3.05703L11.4733 2.72891V1.90312L10.9155 1.54766V1.11562L10.3796 0.803906H9.96396L9.13818 0.328125H7.39912ZM7.44287 0.514062H9.09443L9.92568 0.973437H10.3358L10.7515 1.19766V1.65156L11.3093 2.00703V2.625L10.7296 2.975V3.4125L10.3358 3.65859H9.92568L9.09443 4.1125H7.44287L6.61709 3.66406H6.20147L5.78584 3.41797V2.98047L5.22803 2.625V2.00703L5.80771 1.65156V1.20312L6.22334 0.978906H6.6335L7.44287 0.514062Z" fill="#00843D"/>
<path d="M8.26875 2.31326V0.514038H7.44297L6.63359 0.989819H6.22344L5.80781 1.19763V1.65154L5.25 2.00701V2.29685H8.26875V4.0906H9.09453L9.92578 3.63669H10.3359L10.7078 3.41248V2.9531L11.2875 2.6031V2.31326H8.26875Z" fill="#FFC72C"/>
<path d="M5.25 2.31329V2.60314L5.82969 2.95314V3.41251L6.20156 3.61486H6.63906L7.45937 4.09064H8.26875V2.29689H11.2875V2.00704L10.7078 1.65157V1.24142L10.3359 0.984387H9.92578L9.09453 0.508606H8.27422V2.31329H5.25Z" fill="white"/>
<path d="M6.49146 1.15938L6.34927 1.01172L6.22349 1.09375L6.36567 1.24141L6.16333 1.34531H6.57349L6.90161 1.67344L7.01099 1.54766L6.67739 1.24141V1.03359L6.49146 1.15938Z" fill="#383739"/>
<path d="M7.15322 1.0937L7.01103 0.973389L6.88525 1.05542L7.02744 1.17573L6.81963 1.28511H7.23525L7.56338 1.61323L7.67275 1.48745L7.36104 1.17573V0.973389L7.15322 1.0937ZM6.44775 1.50933L6.30557 1.38354L6.16338 1.49292L6.30557 1.61323L6.11963 1.71714H6.53525L6.86338 2.04526L6.96729 1.91948L6.63916 1.61323V1.40542L6.44775 1.50933Z" fill="#383739"/>
<path d="M8.26875 0.514038H7.91875L7.73281 0.678101H7.36094L7.10938 0.825757L7.175 0.973413L7.39922 0.847632H7.50859L7.875 1.26326L8.26875 1.03357V0.514038Z" fill="#383739"/>
<path d="M6.3438 1.03356L6.46958 1.15934L6.36567 1.21949L6.24536 1.11559L6.3438 1.03356ZM6.67739 1.07731V1.24137L6.98911 1.54762L6.90708 1.63512L6.57896 1.3234H6.24536L6.65552 1.04996L6.67739 1.07731ZM7.00552 0.989807L7.1313 1.09918L7.02739 1.17574L6.90708 1.05543L7.00552 0.989807ZM7.33911 0.989807V1.20309L7.65083 1.49293L7.5688 1.59684L7.24067 1.24684H6.90708L7.31724 0.995276L7.33911 0.989807Z" fill="#D22630"/>
<path d="M6.30557 1.42185L6.43135 1.53123L6.32197 1.59138L6.20166 1.48748L6.30557 1.42185ZM6.61729 1.42185V1.6406L6.94541 1.92498L6.86338 2.01248L6.53525 1.70076H6.20713L6.61729 1.42185ZM8.26885 0.514038H7.91885L7.73291 0.721851H7.38291L7.13135 0.831226L7.1751 0.951538L7.38291 0.820288H7.5251L7.85322 1.23591L8.26885 1.0281V0.514038Z" fill="#D22630"/>
<path d="M6.49146 3.47266L6.34927 3.59844L6.22349 3.51641L6.36567 3.39062L6.16333 3.26484H6.57349L6.90161 2.95312L7.01099 3.07891L6.67192 3.39062V3.59844L6.49146 3.47266Z" fill="#383739"/>
<path d="M7.15322 3.51639L7.01103 3.65858L6.88525 3.57655L7.02744 3.45077L6.81963 3.33046H7.23525L7.56338 3.01874L7.67275 3.12264L7.36104 3.42889V3.63671L7.15322 3.51639ZM6.44775 3.10077L6.30557 3.22655L6.16338 3.13905L6.30557 3.01874L6.11963 2.89296H6.53525L6.86338 2.58124L6.96729 2.69061L6.63916 2.99686V3.20468L6.44775 3.10077Z" fill="#383739"/>
<path d="M8.26875 4.11249H7.91875L7.73281 3.92655H7.36094L7.10938 3.80077L7.175 3.63671L7.39922 3.76249H7.50859L7.875 3.34686L8.29063 3.59843L8.26875 4.11249Z" fill="#383739"/>
<path d="M6.3438 3.57654L6.46958 3.45076L6.36567 3.3906L6.24536 3.51638L6.3438 3.57654ZM6.67739 3.55466V3.36873L6.98911 3.05701L6.90708 2.97498L6.57896 3.28669H6.24536L6.65552 3.56013L6.67739 3.55466ZM7.00552 3.63669L7.1313 3.51638L7.02739 3.45076L6.90708 3.57654L7.00552 3.63669ZM7.33911 3.61482V3.41248L7.65083 3.12263L7.5688 3.0406L7.24067 3.34685H6.90708L7.31724 3.62029L7.33911 3.61482Z" fill="#D22630"/>
<path d="M6.30557 3.20465L6.43135 3.07887L6.32197 3.01871L6.20166 3.13903L6.30557 3.20465ZM6.61729 3.18278V2.99684L6.94541 2.68512L6.86338 2.60309L6.53525 2.91481H6.20713L6.61729 3.18278ZM8.26885 4.09059H7.91885L7.73291 3.90465H7.38291L7.13135 3.78434L7.1751 3.67496L7.38291 3.78434H7.5251L7.8751 3.36871L8.26885 3.5984V4.09059Z" fill="#D22630"/>
<path d="M6.26182 1.73358L6.09775 1.67889L5.87354 1.82108V1.85936L5.51807 2.31327L5.87354 2.75077V2.78905L6.07588 2.95311L6.26182 2.89843L6.16338 2.81093V2.68514L6.20166 2.64686H6.3876V1.98514H6.17979L6.16338 1.94139V1.80468L6.26182 1.73358Z" fill="#383739"/>
<path d="M5.89004 1.8375L6.09785 1.69531L6.22363 1.73359L6.1416 1.79922V1.94141L6.17988 2.00703H6.36582V2.625H6.17988L6.1416 2.68516V2.83281L6.22363 2.87109L6.09785 2.93672L5.89004 2.78906V2.75078L5.54004 2.31328L5.89004 1.85938V1.8375Z" fill="#D22630"/>
<path d="M10.0461 1.15938L10.1938 1.01172L10.3141 1.09375L10.1938 1.24141L10.3579 1.34531H9.96411L9.63599 1.67344L9.52661 1.54766L9.86021 1.24141V1.03359L10.0461 1.15938Z" fill="#383739"/>
<path d="M9.38438 1.0937L9.53203 0.973389L9.65234 1.05542L9.53203 1.17573L9.69609 1.28511H9.29688L8.96875 1.61323L8.85938 1.48745L9.19297 1.17573V0.973389L9.38438 1.0937ZM10.0898 1.50933L10.232 1.38354L10.3797 1.49292L10.232 1.61323L10.418 1.71714H10.0078L9.69609 2.06714L9.59219 1.94136L9.92031 1.63511V1.42183L10.0898 1.50933Z" fill="#383739"/>
<path d="M8.2688 0.514038H8.6188L8.82661 0.678101H9.17661L9.45005 0.825757L9.38442 0.973413L9.13833 0.847632H9.03442L8.66255 1.26326L8.2688 1.03357V0.514038Z" fill="#383739"/>
<path d="M10.1939 1.03356L10.0681 1.15934L10.172 1.21949L10.2978 1.11559L10.1939 1.03356ZM9.88218 1.07731V1.24137L9.55405 1.54762L9.63608 1.63512L9.96421 1.3234H10.2923L9.88218 1.04996V1.07731ZM9.5103 0.989807L9.38452 1.09918L9.4939 1.17574L9.61421 1.05543L9.5103 0.989807ZM9.19858 0.989807V1.20309L8.89233 1.49293L8.97437 1.59684L9.30249 1.24684H9.63062L9.22046 0.995276L9.19858 0.989807Z" fill="#D22630"/>
<path d="M10.2321 1.42188L10.1118 1.53125L10.2102 1.59141L10.336 1.4875L10.2321 1.42188ZM9.92583 1.42188V1.64062L9.59224 1.925L9.67427 2.0125L10.0024 1.70078H10.336L9.92583 1.42188ZM8.2688 0.519531H8.6188L8.80474 0.727344H9.16021L9.4063 0.836719L9.36255 0.957031L9.16021 0.83125H9.03442L8.66255 1.24687L8.2688 1.03906V0.519531Z" fill="#D22630"/>
<path d="M10.0461 3.47266L10.1938 3.59844L10.3141 3.51641L10.1938 3.39062L10.3579 3.26484H9.96411L9.63599 2.95312L9.52661 3.07891L9.86021 3.39062V3.59844L10.0461 3.47266Z" fill="#383739"/>
<path d="M9.38438 3.51639L9.53203 3.65858L9.65234 3.57655L9.53203 3.45077L9.69609 3.33046H9.29688L8.96875 3.01874L8.85938 3.12264L9.19297 3.42889V3.63671L9.38438 3.51639ZM10.0898 3.10077L10.2266 3.22655L10.3742 3.13905L10.2266 3.01874L10.4125 2.89296H10.0078L9.67969 2.58124L9.57031 2.69061L9.89844 2.99686V3.20468L10.0898 3.10077Z" fill="#383739"/>
<path d="M8.2688 4.11249H8.6188L8.82661 3.92655H9.17661L9.45005 3.80077L9.38442 3.63671L9.13833 3.76249H9.03442L8.66255 3.34686L8.2688 3.59843V4.11249Z" fill="#383739"/>
<path d="M10.1939 3.57654L10.0626 3.44529L10.172 3.3906L10.2978 3.51638L10.1939 3.57654ZM9.88218 3.55466V3.36873L9.55405 3.05701L9.63608 2.97498L9.96421 3.28669H10.2923L9.88218 3.55466ZM9.53218 3.63669L9.4064 3.51638L9.5103 3.45076L9.63608 3.57654L9.53218 3.63669ZM9.22046 3.61482V3.41248L8.89233 3.13904L8.9689 3.06248L9.29702 3.37419H9.62515L9.21499 3.64763L9.22046 3.61482Z" fill="#D22630"/>
<path d="M10.2321 3.20465L10.1118 3.07887L10.2102 3.01871L10.336 3.13903L10.2321 3.20465ZM9.92583 3.18278V2.99684L9.59224 2.68512L9.67427 2.60309L10.0024 2.91481H10.336L9.92583 3.18278ZM8.2688 4.09059H8.6188L8.80474 3.90465H9.16021L9.4063 3.78434L9.36255 3.67496L9.16021 3.78434H9.03442L8.66255 3.36871L8.2688 3.5984V4.09059Z" fill="#D22630"/>
<path d="M10.2759 1.73358L10.44 1.67889L10.6697 1.82108V1.85936L11.0197 2.31327L10.6697 2.75077V2.78905L10.4619 2.95311L10.2759 2.89843L10.3798 2.81093V2.68514L10.3361 2.64686H10.1501V1.98514H10.358L10.3798 1.94139V1.80468L10.2759 1.73358Z" fill="#383739"/>
<path d="M10.6477 1.8375L10.4398 1.69531L10.3141 1.73359L10.3961 1.79922V1.94141L10.3578 2.00703H10.1719V2.625H10.3578L10.3961 2.68516V2.83281L10.3141 2.87109L10.4398 2.93672L10.6477 2.78906V2.75078L10.9977 2.31328L10.6477 1.85938V1.8375Z" fill="#D22630"/>
<path d="M5.95537 2.68517L5.87334 2.60314V2.57032L5.66553 2.31876L5.87334 2.07267V2.02345L5.95537 1.94142L6.14131 2.08907H6.03193L6.17959 2.23126H6.50771L6.78115 2.02345V1.48751H7.421L8.18662 1.01173V0.891418L8.06084 0.825793L7.91865 0.935168V0.989856L7.80928 0.847668L8.02256 0.683606L8.24678 0.53595H8.32881L8.53662 0.683606H8.58037L8.78818 0.847668L8.67881 0.989856L8.6624 0.935168L8.51475 0.825793H8.47646L8.35068 0.907825V1.03907L9.11631 1.51486H9.77803V2.05079L10.0241 2.25861H10.3522L10.4999 2.11642H10.4179L10.5819 1.96876L10.6694 2.05079V2.09454L10.8718 2.34064L10.6694 2.58673V2.63048L10.5819 2.71251L10.4179 2.57032H10.4999L10.3577 2.42267H10.0296L9.77803 2.63048V3.16642H9.09443L8.32881 3.62032V3.74611L8.45459 3.82814H8.47646L8.61865 3.74611V3.68595L8.72803 3.82814L8.53662 3.97579H8.51475L8.29053 4.13986H8.20303L7.99521 3.97579H7.95146L7.74912 3.81173L7.86943 3.68595V3.74611L8.01709 3.82814H8.03896L8.15928 3.74611V3.62032L7.39365 3.16642H6.75381V2.62501L6.48584 2.4172H6.15771L6.01553 2.57032H6.11943L5.95537 2.68517Z" fill="#383739"/>
<path d="M8.26875 3.82812L8.37266 3.88281L8.26875 3.94844V3.82812ZM8.02266 3.92656L8.23047 4.09063H8.26875V3.97031L8.14844 3.88281L8.27422 3.79531V3.55469L7.44844 3.0625H6.84687V2.56484L6.54062 2.31328H6.06484L5.95547 2.46094L5.83516 2.31328H5.6875L5.88984 2.54297V2.58125L5.95547 2.66875L6.07578 2.55938H6.02109V2.54297L6.16328 2.37891H6.51328L6.80313 2.58125V3.12266H7.42109L8.20859 3.59844V3.74063L8.08281 3.82266H8.02266L7.89687 3.74063V3.70234L7.81484 3.78437L7.97891 3.92656H8.02266ZM5.95547 2.19297L6.0375 2.29688H5.85156L5.95547 2.19297ZM8.26875 0.683594L8.18672 0.74375L8.26875 0.803906V0.683594ZM10.5 2.33516L10.582 2.41719L10.6914 2.31328L10.5 2.33516ZM8.51484 0.683594L8.3125 0.519531H8.26875V0.639844L8.39453 0.749219L8.26875 0.825781V1.03906L9.09453 1.53125H9.69609V2.07266L10.0078 2.29688H10.4836L10.582 2.17109L10.7078 2.29688H10.8555L10.6477 2.08906V2.02344L10.582 1.96875L10.4617 2.06719H10.5219L10.3797 2.25313H10.0242L9.75625 2.04531V1.4875H9.1L8.33437 1.03359V0.891406L8.45469 0.803906H8.51484L8.64062 0.891406V0.929688L8.72266 0.825781L8.55859 0.683594H8.51484Z" fill="#FFC72C"/>
<path d="M8.26875 3.94844L8.18672 3.88828L8.26875 3.82266V3.94844ZM6.0375 2.31328L5.95547 2.42266L5.84609 2.31328H6.0375ZM8.51484 3.92656L8.3125 4.09063H8.26875V3.97031L8.39453 3.88828L8.26875 3.80078V3.55469L9.09453 3.0625H9.69609V2.56484L10.0078 2.31328H10.4836L10.582 2.46094L10.7078 2.31328H10.8555L10.6477 2.54297V2.58125L10.582 2.66875L10.4617 2.55938H10.5219V2.54297L10.3797 2.37891H10.0242L9.75625 2.58125V3.12266H9.1L8.3125 3.59844V3.74063L8.43281 3.82266H8.49844L8.61875 3.74063V3.70234L8.70078 3.78437L8.53672 3.92656H8.51484ZM10.582 2.19297L10.5 2.29688H10.6859L10.582 2.19297ZM8.02266 0.683594L8.23047 0.519531H8.26875V0.639844L8.14297 0.749219L8.26875 0.825781V1.03906L7.44297 1.53125H6.84141V2.07266L6.53516 2.28047H6.05938L5.95 2.15469L5.82969 2.28047H5.6875L5.88984 2.07266V2.0125L5.95547 1.94687L6.07578 2.05625H6.02109L6.16328 2.23672H6.51328L6.80313 2.02891V1.49297H7.42109L8.23047 1.03906V0.896875L8.10469 0.809375H8.03906L7.91328 0.896875V0.935156L7.83125 0.83125L7.99531 0.689063H8.03906L8.02266 0.683594ZM8.26875 0.825781L8.37266 0.765625L8.26875 0.705469V0.825781Z" fill="white"/>
<path d="M8.2688 2.31327V1.07733L7.44302 1.56952H6.86333V2.06718L6.57349 2.29686H8.2688V3.5328L9.09458 3.04061H9.67974V2.56483L9.96958 2.31327H8.2688Z" fill="#00843D"/>
<path d="M6.57349 2.31327L6.86333 2.56483V3.04061H7.44302L8.2688 3.5328V2.29686H9.96411L9.67427 2.06718V1.57499H9.09458L8.27427 1.07733V2.31327H6.57349Z" fill="#D22630"/>
<path d="M7.39927 1.71718L7.25708 1.56952L7.1313 1.67889L7.25708 1.79921L7.09302 1.90311H7.4813L7.80942 2.23124L7.9188 2.11093L7.59067 1.79921V1.58593L7.39927 1.71718ZM9.13833 2.91483L9.28052 3.04061L9.42817 2.95311L9.28052 2.8328L9.44458 2.70702H9.09458L8.74458 2.3953L8.64067 2.50468L8.9688 2.81093V3.01874L9.13833 2.91483ZM7.39927 2.91483L7.25708 3.04061L7.1313 2.95311L7.25708 2.8328L7.09302 2.70702H7.4813L7.80942 2.3953L7.9188 2.50468L7.59067 2.81093V3.01874L7.39927 2.91483ZM9.13833 1.71171L9.28052 1.56952L9.42817 1.67889L9.28052 1.79921L9.44458 1.90311H9.09458L8.74458 2.23124L8.64067 2.11093L8.9688 1.79921V1.58593L9.13833 1.71171Z" fill="#383739"/>
<path d="M9.28057 3.01875L9.16025 2.89297L9.26416 2.83281L9.38447 2.95312L9.28057 3.01875ZM8.97432 2.99687V2.81094L8.64619 2.49922L8.72275 2.41719L9.05088 2.72891H9.38447L8.97432 2.99687ZM7.23525 1.61328L7.36104 1.71719L7.25166 1.77734L7.13135 1.67344L7.23525 1.61328ZM7.54697 1.61328V1.82109L7.8751 2.11094L7.79307 2.19297L7.46494 1.88125H7.13682L7.54697 1.63516V1.61328Z" fill="#D22630"/>
<path d="M9.28057 1.61328L9.16025 1.71719L9.26416 1.77734L9.38447 1.67344L9.28057 1.61328ZM8.97432 1.61328V1.82109L8.64619 2.11094L8.72275 2.19297L9.05088 1.88125H9.38447L8.97432 1.61328ZM7.23525 3.03516L7.36104 2.91484L7.25166 2.85469L7.13135 2.975L7.23525 3.03516ZM7.54697 3.01875V2.83281L7.8751 2.52109L7.79307 2.43906L7.46494 2.75078H7.13682L7.54697 3.01875Z" fill="#00843D"/>
<path d="M9.13291 2.31329L8.27432 2.89845L7.40479 2.31876L8.27979 1.73907L9.13291 2.31329Z" fill="#383739"/>
<path d="M8.26865 1.75549L7.44287 2.2969H9.09443L8.27412 1.75549V2.84924L9.09443 2.31331H7.44287L8.26865 2.85471V1.75549Z" fill="white"/>
<path d="M8.49839 2.49924V2.66331H8.06089V2.49924H7.75464V2.11096H8.06089V1.9469H8.47651V2.11096H8.78823V2.51565L8.49839 2.49924Z" fill="#383739"/>
<path d="M8.06089 1.96875V2.13281H7.75464V2.29688H8.2687V1.96875H8.06089ZM8.2687 2.29688H8.78823V2.13281H8.47651V1.96875H8.2687V2.29688ZM7.75464 2.31328V2.49922H8.06089V2.64688H8.2687V2.31875L7.75464 2.31328ZM8.2687 2.64141H8.47651V2.49922H8.78823V2.31328H8.2687V2.64141Z" fill="#D22630"/>
<path d="M9.7563 8.90859V8.6625H10.4618V8.38906H11.1454V6.09766H10.4618V5.82422H9.7563V5.57812H9.0563V5.33203H7.4813V5.57812H6.7813V5.82969H6.07036V6.09766H5.39771V8.39453H6.07036V8.67891H6.7813V8.88672H7.4813V9.13828H9.0563V8.88672L9.7563 8.90859Z" fill="#383739"/>
<path d="M7.50322 5.35388V5.5781H6.81963V5.82966H6.1251V6.09763H5.43604V8.37263H6.1251V8.61873H6.8251V8.89216H7.53057V9.13826H9.06182V8.88669H9.76182V8.6406H10.4673V8.36716H11.1563V6.09763H10.4563V5.85154H9.7126V5.59998H9.00713V5.35935L7.50322 5.35388ZM7.71104 5.53982H8.84854V5.78591H9.54854V6.03748H10.254V6.30544H10.9595V8.18669H10.254V8.47654H9.54854V8.67888H8.84854V8.93044H7.68916V8.67888H6.98916V8.47654H6.28369V8.2031H5.6001V6.32732H6.28916V6.05388H6.99463V5.78591H7.69463L7.71104 5.53982Z" fill="#FFC72C"/>
<path d="M7.02744 8.67889V8.4328H6.30557V8.18671H5.6001V6.32733H6.30557V6.05389H7.02744V5.8078H7.73291V5.56171H8.84854V5.78593H9.54854V6.03749H10.254V6.30546H10.9595V8.16483H10.254V8.41093H9.51025V8.68436H8.80479V8.95233H7.68916V8.67889H7.02744Z" fill="#D22630"/>
<path d="M7.17505 5.99375L6.98911 5.85156V6.11953L6.82505 6.22344V6.05938L6.66099 6.22344L6.49146 6.05938V6.22344L6.28364 6.11406V6.34375L6.14146 6.46953V6.32734L5.93364 6.44766L5.76958 6.32734V6.46953L5.57817 6.34375V7.07109H5.37036V7.44297H5.57817V8.16484L5.76411 8.03906V8.20312L5.95005 8.06094L6.13599 8.20312V8.03906L6.27817 8.16484V8.41094L6.48599 8.29063V8.45469L6.65005 8.29063L6.81411 8.45469V8.26875L6.97817 8.37266V8.64062L7.16958 8.49297V8.67891L7.35552 8.51484L7.51958 8.67891V8.47656L7.68364 8.59687V8.88672L7.93521 8.6625V8.90859L8.26333 8.70078L8.59146 8.90859V8.67891L8.84302 8.88672V8.61875L9.00708 8.49297V8.67891L9.17114 8.51484L9.37896 8.67891V8.47656L9.54302 8.61875V8.34531L9.70708 8.24688V8.41094L9.87661 8.24688L10.0407 8.41094V8.26875L10.2485 8.38906V8.14844L10.3907 8.02266V8.18672L10.5985 8.04453L10.7625 8.19219V8.02813L10.954 8.14844V7.44844H11.1563V7.09297H10.954V6.37109L10.768 6.49688V6.34375L10.5766 6.46953L10.3907 6.34375V6.49141L10.2485 6.36563V6.14141L10.0407 6.23984V6.07578L9.87661 6.23984L9.71255 6.07578V6.23984L9.54849 6.14141V5.86797L9.35708 6.01562V5.82969L9.19302 5.99375L8.98521 5.82969V6.01562L8.84302 5.88984V5.62188L8.59692 5.82969V5.57812L8.2688 5.78594L7.93521 5.57812V5.78594L7.68364 5.57812V5.85156L7.51958 5.97187V5.78594L7.35552 5.95L7.16958 5.78594L7.17505 5.99375Z" fill="#383739"/>
<path d="M5.78599 6.50781V6.34375L5.95005 6.46953L6.11958 6.34375V6.50781L6.28364 6.36563V8.12109L6.11958 8.00078V8.14297L5.95552 8.01719L5.79146 8.14297V8.00078L5.60005 8.12109V7.39922H5.39771V7.0875H5.60005V6.36563L5.78599 6.50781ZM7.19692 5.85156L7.36099 5.99375L7.50317 5.85156V6.0375L7.68911 5.88984V8.58594L7.50317 8.46016V8.64609L7.36099 8.49844L7.19692 8.64609V8.46016L7.01099 8.60234V5.91719L7.19692 6.04297V5.85156ZM9.34614 5.85156L9.19849 5.99375L9.03442 5.85156V6.0375L8.84849 5.88984V8.58594L9.03442 8.46016V8.64609L9.19849 8.49844L9.34614 8.64609V8.46016L9.53208 8.60234V5.91719L9.34614 6.04297V5.85156ZM10.7516 6.50781V6.34375L10.5875 6.46953L10.4235 6.34375V6.50781L10.254 6.36563V8.12109L10.418 8.00078V8.14297L10.5821 8.01719L10.7461 8.14297V8.00078L10.9375 8.12109V7.39922H11.1454V7.0875H10.9375V6.36563L10.7516 6.50781Z" fill="#00843D"/>
<path d="M6.50776 6.11953L6.65542 6.23984L6.80308 6.11953V6.26172L7.01089 6.14141V8.35078L6.80308 8.225V8.38906L6.65542 8.24688L6.51323 8.38906V8.225L6.30542 8.35078V6.14141L6.51323 6.26172L6.50776 6.11953ZM7.95698 5.84609L7.71089 5.64375V8.87031L7.95698 8.64062V8.88672L8.2687 8.67891L8.58042 8.88672V8.61875L8.82651 8.82656V5.66562L8.58042 5.86797V5.57812L8.2687 5.78594L7.95698 5.57812V5.84609ZM10.0242 6.11953L9.88198 6.23984L9.7398 6.11953V6.26172L9.53198 6.14141V8.35078L9.7398 8.225V8.38906L9.88198 8.24688L10.046 8.38906V8.225L10.232 8.35078V6.14141L10.0242 6.26172V6.11953Z" fill="#FFC72C"/>
<path d="M5.87349 6.92347L5.95552 6.96722C5.97192 6.96722 6.01567 6.96722 6.03755 6.92347C6.09771 6.86332 6.09771 6.73754 6.09771 6.65551L5.9938 6.75941L5.95552 6.65551L5.88989 6.75941L5.80786 6.65551C5.80786 6.73754 5.80786 6.86332 5.87349 6.92894V6.92347ZM6.61724 6.73754L6.55161 6.67738V6.56801L6.4313 6.69926L6.63364 6.9016L6.88521 6.69926L6.75942 6.57347V6.67738L6.69927 6.73754V6.52972L6.80317 6.44769L6.65552 6.32738L6.51333 6.44769L6.61724 6.55707V6.73754ZM7.29536 6.52972L7.25708 6.46957V6.34379L7.10942 6.46957L7.36099 6.69926L7.5688 6.49144L7.44302 6.34379V6.46957L7.39927 6.51332V6.30551L7.50864 6.23988L7.36099 6.11957L7.21333 6.23988L7.29536 6.32738V6.52972Z" fill="#383739"/>
<path d="M5.95562 6.69924L5.9939 6.78127L6.07593 6.69924C6.07593 6.79768 6.05952 6.88518 6.02124 6.90159C6.0136 6.91177 6.00369 6.92004 5.9923 6.92574C5.98091 6.93143 5.96835 6.9344 5.95562 6.9344C5.94288 6.9344 5.93032 6.93143 5.91893 6.92574C5.90754 6.92004 5.89763 6.91177 5.88999 6.90159C5.85171 6.88518 5.82983 6.79768 5.82983 6.69924L5.91187 6.78127L5.95562 6.69924ZM7.37749 6.30549V6.57346L7.46499 6.46956V6.4094L7.54702 6.49143L7.33921 6.69924L7.1314 6.49143L7.24077 6.4094V6.49143L7.31733 6.59534V6.3219L7.2353 6.26721L7.36108 6.15784L7.46499 6.26721L7.37749 6.30549Z" fill="white"/>
<path d="M6.67744 6.52972V6.78129L6.78135 6.69926V6.61176L6.86338 6.69926L6.65557 6.9016L6.44775 6.69926L6.53525 6.61176V6.69926L6.61729 6.78129V6.52972L6.53525 6.44769L6.65557 6.36566L6.76494 6.44769L6.67744 6.52972Z" fill="#D22630"/>
<path d="M10.6641 6.92347L10.5821 6.96722C10.5657 6.96722 10.5438 6.96722 10.5274 6.92347C10.4399 6.86332 10.4399 6.73754 10.4399 6.65551L10.5438 6.75941L10.5821 6.65551L10.6477 6.75941L10.7297 6.65551C10.7297 6.73754 10.7297 6.86332 10.6696 6.92894L10.6641 6.92347ZM9.94224 6.73754L9.98599 6.67738V6.56801L10.1118 6.69926L9.90396 6.9016L9.65239 6.69926L9.77817 6.57347V6.67738L9.83833 6.73754V6.52972L9.73989 6.44769L9.88208 6.32738L10.0243 6.44769L9.94224 6.55707V6.73754ZM9.24224 6.52972L9.28052 6.46957V6.34379L9.42817 6.46957L9.19849 6.69926L8.95239 6.49144L9.09458 6.34379V6.46957L9.13833 6.51332V6.30551L9.0563 6.23988L9.19849 6.11957L9.34614 6.23988L9.23677 6.32738L9.24224 6.52972Z" fill="#383739"/>
<path d="M10.5821 6.69924L10.5438 6.78127L10.4618 6.69924C10.4618 6.79768 10.4837 6.88518 10.522 6.90159C10.5297 6.91078 10.5393 6.91817 10.5502 6.92325C10.561 6.92832 10.5729 6.93095 10.5849 6.93095C10.5969 6.93095 10.6087 6.92832 10.6196 6.92325C10.6304 6.91817 10.6401 6.91078 10.6478 6.90159C10.686 6.88518 10.7079 6.79768 10.7079 6.69924L10.6478 6.78127L10.5821 6.69924ZM9.16025 6.30549V6.57346L9.07822 6.46956V6.4094L8.99072 6.49143L9.19854 6.69924L9.40635 6.49143L9.30244 6.4094V6.49143L9.22041 6.59534V6.3219L9.30244 6.26721L9.19854 6.15784L9.07822 6.26721L9.16025 6.30549Z" fill="white"/>
<path d="M9.86011 6.52972V6.78129L9.77808 6.69926V6.61176L9.69604 6.69926L9.90386 6.9016L10.1117 6.69926L10.0023 6.61176V6.69926L9.92573 6.78129V6.52972L10.0078 6.44769L9.88198 6.36566L9.77808 6.44769L9.86011 6.52972Z" fill="#D22630"/>
<path d="M8.53672 6.6172L8.47656 6.49142L8.6625 6.32736L8.47656 6.1797V6.28361L8.41641 6.34376V6.14142L8.58047 6.03204L8.26875 5.78595L7.95703 5.99376L8.12109 6.14142V6.32736L8.06641 6.26173V6.15782L7.875 6.30548L8.08281 6.46954L8.00078 6.57345L8.53672 6.6172Z" fill="#383739"/>
<path d="M8.03916 6.59534L8.10479 6.48596L7.89697 6.3219L8.04463 6.22346V6.28362L8.14307 6.38752V6.14143L8.00088 6.03206L8.27432 5.82971L8.53682 6.03752L8.39463 6.14143V6.4094L8.49854 6.30002V6.24534L8.64072 6.34377L8.43291 6.50784L8.51494 6.61721L8.03916 6.59534Z" fill="#D22630"/>
<path d="M8.12671 6.0375L8.2689 6.14141L8.41655 6.03203L8.2689 5.93359L8.12671 6.0375Z" fill="#383739"/>
<path d="M8.2687 5.95551L8.37261 6.03754L8.2687 6.09769L8.16479 6.03754L8.2687 5.95551Z" fill="#00843D"/>
<path d="M5.87349 7.56325C5.88339 7.5511 5.89591 7.54134 5.91011 7.53471C5.92432 7.52808 5.93984 7.52475 5.95552 7.52497C5.97192 7.52497 6.01567 7.52497 6.03755 7.56325C6.09771 7.62888 6.09771 7.74919 6.09771 7.83669L5.9938 7.74919L5.95552 7.83122L5.88989 7.74919L5.80786 7.83122C5.80786 7.74919 5.80786 7.62888 5.87349 7.56325ZM6.61724 7.74919L6.55161 7.81482V7.91872L6.4313 7.79294L6.63364 7.58513L6.88521 7.79294L6.75942 7.91872V7.80935L6.69927 7.75466V7.957L6.80317 8.03904L6.65552 8.16482L6.51333 8.03904L6.61724 7.93513V7.74919ZM7.29536 7.957L7.25708 8.01716V8.14294L7.10942 8.01716L7.36099 7.79294L7.5688 8.01716L7.44302 8.14294V8.01716L7.39927 7.97888V8.18669L7.50864 8.24685L7.36099 8.37263L7.21333 8.24685L7.29536 8.16482V7.957Z" fill="#383739"/>
<path d="M5.95562 7.79293L5.9939 7.7109L6.07593 7.79293C6.07593 7.68903 6.05952 7.60699 6.02124 7.58512C6.0136 7.57493 6.00369 7.56666 5.9923 7.56097C5.98091 7.55527 5.96835 7.55231 5.95562 7.55231C5.94288 7.55231 5.93032 7.55527 5.91893 7.56097C5.90754 7.56666 5.89763 7.57493 5.88999 7.58512C5.85171 7.60699 5.82983 7.68903 5.82983 7.79293L5.91187 7.7109L5.95562 7.79293ZM7.37749 8.18668V7.91324L7.46499 8.02262V8.10465L7.54702 8.01715L7.33921 7.81481L7.1314 8.01715L7.24077 8.10465V8.01715L7.31733 7.91871V8.18668L7.2353 8.24684L7.36108 8.35074L7.46499 8.24684L7.37749 8.18668Z" fill="white"/>
<path d="M6.67744 7.95702V7.71093L6.78135 7.79296V7.87499L6.86338 7.79296L6.65557 7.58514L6.44775 7.79296L6.53525 7.87499V7.79296L6.61729 7.71093V7.95702L6.53525 8.03905L6.65557 8.12108L6.76494 8.03905L6.67744 7.95702Z" fill="#D22630"/>
<path d="M10.6641 7.56325C10.6542 7.5511 10.6417 7.54134 10.6275 7.53471C10.6133 7.52808 10.5978 7.52475 10.5821 7.52497C10.5657 7.52497 10.5438 7.52497 10.5274 7.56325C10.4399 7.62888 10.4399 7.74919 10.4399 7.83669L10.5438 7.74919L10.5821 7.83122L10.6477 7.74919L10.7297 7.83122C10.7297 7.74919 10.7297 7.62888 10.6696 7.56325H10.6641ZM9.94224 7.74919L9.98599 7.81482V7.91872L10.1118 7.79294L9.90396 7.58513L9.65239 7.79294L9.77817 7.91872V7.80935L9.83833 7.75466V7.957L9.73989 8.03904L9.88208 8.16482L10.0243 8.03904L9.94224 7.93513V7.74919ZM9.24224 7.957L9.28052 8.01716V8.14294L9.42817 8.01716L9.19849 7.79294L8.95239 8.01716L9.09458 8.14294V8.01716L9.13833 7.97888V8.18669L9.0563 8.24685L9.19849 8.37263L9.34614 8.24685L9.23677 8.16482L9.24224 7.957Z" fill="#383739"/>
<path d="M10.5821 7.79296L10.5438 7.71093L10.4618 7.79296C10.4618 7.68906 10.4837 7.60702 10.522 7.58515C10.5297 7.57596 10.5393 7.56856 10.5502 7.56349C10.561 7.55841 10.5729 7.55579 10.5849 7.55579C10.5969 7.55579 10.6087 7.55841 10.6196 7.56349C10.6304 7.56856 10.6401 7.57596 10.6478 7.58515C10.686 7.60702 10.7079 7.68906 10.7079 7.79296L10.6478 7.71093L10.5821 7.79296ZM9.16025 8.18671V7.91327L9.07822 8.02265V8.10468L8.99072 8.01718L9.19854 7.81484L9.40635 8.01718L9.30244 8.10468V8.01718L9.22041 7.91874V8.18671L9.30244 8.24687L9.19854 8.35077L9.07822 8.24687L9.16025 8.18671Z" fill="white"/>
<path d="M9.86011 7.95702V7.71093L9.77808 7.79296V7.87499L9.69604 7.79296L9.90386 7.58514L10.1117 7.79296L10.0023 7.87499V7.79296L9.92573 7.71093V7.95702L10.0078 8.03905L9.88198 8.12108L9.77808 8.03905L9.86011 7.95702Z" fill="#D22630"/>
<path d="M8.53672 7.89685L8.47656 8.00076L8.6625 8.16482L8.47656 8.30701V8.2031L8.41641 8.14841V8.35076L8.58047 8.45466L8.26875 8.67888L7.95703 8.47654L8.12109 8.32888V8.14841L8.06641 8.20857V8.31795L7.875 8.17029L8.08281 8.00623L8.00078 7.89685H8.53672Z" fill="#383739"/>
<path d="M8.03916 7.9187L8.10479 8.00073L7.89697 8.16479L8.04463 8.2687V8.20308L8.14307 8.10464V8.35073L8.00088 8.45464L8.27432 8.66245L8.53682 8.45464L8.39463 8.34526V8.10464L8.49854 8.20308V8.2687L8.64072 8.15933L8.43291 7.99526L8.51494 7.9187H8.03916Z" fill="#D22630"/>
<path d="M8.12671 8.47655L8.2689 8.35077L8.41655 8.45468L8.2689 8.55858L8.12671 8.47655Z" fill="#383739"/>
<path d="M8.2687 8.53123L8.37261 8.45466L8.2687 8.38904L8.16479 8.45466L8.2687 8.53123Z" fill="#00843D"/>
<path d="M10.7516 7.13123H10.4618V7.02732H9.5102L8.84849 6.61169H7.68911L7.03286 7.02732H6.07036V7.1531H5.78052V7.36091H6.07036V7.5031H7.02192L7.68364 7.91873H8.84302L9.49927 7.5031H10.4563V7.37732H10.7461L10.7516 7.13123Z" fill="#383739"/>
<path d="M7.68911 6.61716L7.03286 7.02732H6.10317V7.1531H5.80786V7.33904H6.09771V7.45935H7.02739L7.68911 7.87498H8.84849L9.50474 7.45935H10.4454V7.33904H10.7571V7.1531H10.4454V7.02732H9.51567L8.85395 6.61169L7.68911 6.61716ZM7.68911 6.67185H8.82661L9.45005 7.07107V7.12576H10.1063V7.37732H9.42817V7.44294L8.82661 7.81482H7.71099L7.09302 7.44294V7.37732H6.4313V7.13123H7.10942V7.07107L7.68911 6.67185Z" fill="#D22630"/>
<path d="M8.82656 6.67188L9.40625 7.0875V7.13125H10.0898V7.33906H9.40625V7.42109L8.82656 7.81484H7.71094L7.13125 7.42109V7.36094H6.45312V7.15313H7.13672V7.07109L7.71094 6.67188H8.82656Z" fill="#D22630"/>
<path d="M7.42104 7.45936L7.66714 7.66718L7.8312 7.52499L7.75464 7.45936L7.66714 7.50311L7.61245 7.45936L8.55854 6.73749H8.37261L7.42104 7.45936ZM7.97886 7.74921H8.16479L9.11636 7.02733L8.87026 6.81952L8.7062 6.96718L8.80464 7.02733L8.87026 6.98358L8.93042 7.02733L7.97886 7.74921ZM8.39448 7.74921H8.55854L7.60698 7.02733L7.66714 6.98358L7.75464 7.02733L7.83667 6.96718L7.67261 6.84139L7.42104 7.02733L8.39448 7.74921ZM8.93042 7.45936L8.87026 7.50311L8.80464 7.45936L8.70073 7.52499L8.8648 7.6453L9.11636 7.45936L8.16479 6.73749H7.95698L8.93042 7.45936ZM7.23511 7.25702L7.39917 7.36093L7.56323 7.25155L7.39917 7.13124L7.23511 7.25702ZM8.10464 7.23514L8.2687 7.36093L8.43276 7.25155L8.2687 7.13124L8.10464 7.23514ZM9.30776 7.23514L9.13823 7.36093L8.97417 7.25155L9.13823 7.13124L9.30776 7.23514Z" fill="#383739"/>
<path d="M9.09443 7.45934L8.87021 7.6234L8.72256 7.52496L8.80459 7.48121L8.87021 7.52496L8.95225 7.45934L8.02256 6.75934H8.16475L9.09443 7.45934ZM8.51475 7.73278H8.37256L7.44287 7.02731L7.66709 6.86324L7.81475 6.96715L7.75459 7.00543L7.66709 6.96715L7.58506 7.02731L8.51475 7.73278ZM8.16475 7.73278H8.02256L8.95225 7.02731L8.87021 6.96715L8.80459 7.00543L8.72256 6.96715L8.87021 6.85778L9.07803 7.02731L8.16475 7.73278ZM8.37256 6.75934H8.51475L7.58506 7.45934L7.66709 7.52496L7.75459 7.48121L7.80928 7.52496L7.66709 7.62887L7.46475 7.46481L8.37256 6.75934Z" fill="#FFC72C"/>
<path d="M7.39927 7.15314L7.52505 7.25704L7.39927 7.33907L7.25708 7.25704L7.39927 7.15314ZM8.27427 7.15314L8.41645 7.25704L8.2688 7.33907L8.12661 7.25704L8.27427 7.15314ZM9.13833 7.15314L9.01255 7.25704L9.13833 7.33907L9.28052 7.25704L9.13833 7.15314Z" fill="#00843D"/>
<path d="M5.27183 11.9875L5.21167 12.0914L5.33198 12.1734L5.21167 12.2774L5.27183 12.3594L5.41401 12.3813L5.53979 12.2774L5.88979 12.4852V12.3211L5.68745 12.1734L5.88979 12.0477V11.8672L5.53979 12.075L5.41401 11.993L5.27183 11.9875ZM5.27183 11.3695L5.21167 11.4734L5.33198 11.5555L5.21167 11.6594L5.27183 11.7414L5.41401 11.7633L5.53979 11.6539L5.88979 11.8617V11.6977L5.68745 11.5555L5.88979 11.4297V11.2438L5.53979 11.4516L5.41401 11.3695H5.27183ZM5.27183 12.9828L5.21167 12.8953L5.33198 12.7969L5.21167 12.7094L5.27183 12.6109H5.41401L5.53979 12.693L5.88979 12.4852V12.6711L5.68745 12.7969L5.88979 12.9391V13.1031L5.53979 12.8953L5.41401 13.0047L5.27183 12.9828ZM11.2656 11.9875L11.3312 12.0914L11.2054 12.1734L11.3312 12.2774L11.2656 12.3594L11.1234 12.3813L10.9976 12.2774L10.6476 12.4852V12.3211L10.8554 12.1734L10.6476 12.0477V11.8672L10.9976 12.075L11.1234 11.993L11.2656 11.9875ZM11.2656 11.3695L11.3312 11.4734L11.2054 11.5555L11.3312 11.6594L11.2656 11.7414L11.1234 11.7633L10.9976 11.6539L10.6476 11.8617V11.6977L10.8554 11.5555L10.6476 11.4297V11.2438L10.9976 11.4516L11.1234 11.3695H11.2656ZM11.2656 12.9828L11.3312 12.8953L11.2054 12.7969L11.3312 12.7094L11.2656 12.6109H11.1234L10.9921 12.6875L10.6421 12.4797V12.6656L10.85 12.7914L10.6421 12.9336V13.0977L10.9921 12.8899L11.1179 12.9992L11.2656 12.9828ZM9.92573 10.3359V10.582H10.1117V10.7078H10.2976V10.5H10.1335V10.3359H9.92573ZM10.4617 10.7461V10.9539H10.6695V11.0578H10.8335V10.85H10.6695V10.7461H10.4617ZM6.61714 10.3359V10.582H6.4312V10.7078H6.24526V10.5H6.40933V10.3359H6.61714ZM9.92573 14.0547V13.8086H10.1117V13.6992H10.2976V13.9125H10.1335V14.0766L9.92573 14.0547ZM6.61714 14.0547V13.8086H6.4312V13.6992H6.24526V13.9125H6.40933V14.0766L6.61714 14.0547ZM10.4617 13.6391V13.3984H10.6695V13.2727H10.8335V13.4805H10.6695V13.6445L10.4617 13.6391ZM6.07026 10.7461V10.9539H5.86792V11.0578H5.70386V10.85H5.86792V10.7461H6.07026ZM6.07026 13.6609V13.4149H5.86792V13.2891H5.70386V13.4969H5.86792V13.6609H6.07026ZM8.9687 10.3359L8.82104 10.1883L8.67886 10.3141L8.79917 10.4399L8.63511 10.582H8.86479L8.94683 10.5L9.02886 10.582H9.30229L9.13276 10.4453L9.25854 10.3195L9.11089 10.1938L8.9687 10.3359ZM8.26323 10.3359L8.12104 10.1883L7.97339 10.3141L8.09917 10.4399L7.95151 10.582H8.1812L8.26323 10.5L8.34526 10.582H8.57495L8.42729 10.4399L8.55308 10.3141L8.41089 10.1883L8.26323 10.3359ZM7.57964 10.3359L7.72729 10.1883L7.85308 10.3141L7.72729 10.4399L7.89136 10.582H7.66167L7.57964 10.5L7.49761 10.582H7.22964L7.3937 10.4399L7.27339 10.3141L7.41558 10.1883L7.56323 10.3359H7.57964ZM8.94683 14.0547L8.82104 14.2188L8.67886 14.0766L8.79917 13.9727L8.63511 13.8086H8.86479L8.94683 13.8906L9.02886 13.8086H9.30229L9.13276 13.9727L9.25854 14.0766L9.11089 14.2188L8.94683 14.0547ZM8.26323 14.0547L8.12104 14.2188L7.97339 14.0766L8.09917 13.9727L7.95151 13.8086H8.1812L8.26323 13.8906L8.34526 13.8086H8.57495L8.42729 13.9727L8.55308 14.0766L8.41089 14.2188L8.26323 14.0547ZM7.57964 14.0547L7.72729 14.2188L7.85308 14.0766L7.72729 13.9727L7.89136 13.8086H7.66167L7.57964 13.8906L7.49761 13.8086H7.22964L7.3937 13.9727L7.27339 14.0766L7.41558 14.2188L7.56323 14.0766L7.57964 14.0547Z" fill="#383739"/>
<path d="M5.87334 12.3211V12.4633L5.54522 12.2555L5.41396 12.3648H5.29365L5.22803 12.2773L5.35381 12.1734L5.22803 12.0914L5.29365 12.0094H5.41396L5.53975 12.1133L5.86787 11.9055V12.0312L5.64365 12.1734L5.87334 12.3211ZM5.87334 11.6976V11.8453L5.54522 11.6375L5.41396 11.7414H5.29365L5.22803 11.6594L5.35381 11.55L5.22803 11.4734L5.29365 11.3914H5.41396L5.53975 11.4898L5.86787 11.2875V11.4078L5.64365 11.5555L5.87334 11.6976ZM5.87334 12.6492V12.5234L5.54522 12.7312L5.41396 12.6109H5.29365L5.22803 12.693L5.35928 12.7969L5.2335 12.8953L5.29912 12.9609H5.41396L5.53975 12.8789L5.86787 13.0812V12.9391L5.64365 12.7969L5.87334 12.6492ZM10.6694 12.3211V12.4633L10.9976 12.2555L11.1452 12.3648H11.2437L11.3093 12.2773L11.1835 12.1734L11.3093 12.0914L11.2437 12.0094H11.1616L11.0194 12.1133L10.6913 11.9055V12.0312L10.9155 12.1734L10.6694 12.3211ZM10.6694 11.6976V11.8453L10.9976 11.6375L11.1452 11.7414H11.2437L11.3093 11.6594L11.1835 11.55L11.3093 11.4734L11.2437 11.3914H11.1616L11.0194 11.4898L10.6913 11.2875V11.4078L10.9155 11.5555L10.6694 11.6976ZM10.6694 12.6492V12.5234L10.9976 12.7312L11.1452 12.6109H11.2437L11.3093 12.693L11.1835 12.7969L11.3093 12.8953L11.2437 12.9609H11.1616L11.0194 12.8789L10.6913 13.0812V12.9391L10.9155 12.7969L10.6694 12.6492ZM10.128 10.3359V10.5H10.2921V10.6641H10.128V10.5437H9.92568V10.3359H10.128ZM10.6858 10.7461V10.8937H10.8335V11.0578H10.6858V10.9539H10.4999V10.7461H10.6858ZM6.40928 10.3359V10.5H6.24521V10.6641H6.3874V10.5437H6.59521V10.3359H6.40928ZM10.128 14.0328V13.8469H10.2921V13.6828H10.128V13.7867H9.92568V13.9945L10.128 14.0328ZM6.44756 14.0328V13.8469H6.2835V13.6828H6.43115V13.7867H6.6335V13.9945L6.44756 14.0328ZM10.6858 13.6226V13.4586H10.8335V13.2945H10.6858V13.4148H10.4999V13.6226H10.6858ZM5.88975 10.7461V10.9101H5.72568V11.0742H5.87334V10.9539H6.05928V10.7461H5.88975ZM5.88975 13.6445V13.4805H5.72568V13.3109H5.87334V13.4367H6.05928V13.6391L5.88975 13.6445ZM8.82646 10.2101L8.95225 10.3578L9.09443 10.2101L9.22022 10.3141L9.09443 10.4398L9.24209 10.5601H9.03428L8.95225 10.4781L8.87021 10.5601H8.68428L8.82646 10.4398L8.70068 10.3141L8.82646 10.2101ZM8.12647 10.2101L8.26865 10.3578L8.41631 10.2101L8.51475 10.3141L8.39443 10.4398L8.53662 10.5601H8.35068L8.26865 10.4781L8.18662 10.5601H7.97881L8.14287 10.4398L8.02256 10.3141L8.12647 10.2101ZM7.71084 10.2101L7.58506 10.3578L7.44287 10.2101L7.31709 10.3141L7.44287 10.4398L7.31709 10.5601H7.48115L7.59053 10.4781L7.66709 10.5601H7.8585L7.71084 10.4453L7.83662 10.3195L7.71084 10.2101ZM8.82646 14.1805L8.95225 14.0547L9.09443 14.1805L9.22022 14.0711L9.09443 13.9726L9.24209 13.8305H9.03428L8.95225 13.9125L8.87021 13.8305H8.68428L8.82646 13.9726L8.70068 14.0766L8.82646 14.1805ZM8.12647 14.1805L8.26865 14.0547L8.41631 14.1805L8.51475 14.0711L8.39443 13.9726L8.53662 13.8305H8.35068L8.26865 13.9125L8.18662 13.8305H7.97881L8.14287 13.9726L8.02256 14.0766L8.12647 14.1805ZM7.71084 14.1805L7.58506 14.0547L7.44287 14.1805L7.31709 14.0711L7.44287 13.9726L7.31709 13.8305H7.48115L7.59053 13.9125L7.66709 13.8305H7.8585L7.71084 13.9726L7.83662 14.0766L7.71084 14.1805Z" fill="#00843D"/>
<path d="M6.40947 13.4149V13.8305H10.1282V13.4149H10.6696V10.9539H10.1282V10.5438H6.40947V10.9539H5.87354V13.4149H6.40947Z" fill="#383739"/>
<path d="M6.4313 10.5602V10.9758H5.88989V13.393H6.40942V13.8086H10.1282V13.393H10.6696V10.9539H10.1282V10.5438H6.40942L6.4313 10.5602ZM6.67739 10.7242H9.86021V11.118L10.0079 11.2055H10.5V13.1469H10.0079L9.86021 13.2508V13.6391H6.67739V13.2344L6.53521 13.1524H6.03755V11.2109H6.52974L6.67739 11.1234V10.7133V10.7242Z" fill="#FFC72C"/>
<path d="M6.69927 10.7461V11.1016L7.17505 10.7461H6.69927ZM9.38442 10.7461L9.83833 11.1016V10.7461H9.38442ZM6.07583 11.2219V11.5773L6.51333 11.2492L6.07583 11.2219ZM10.0243 11.2219L10.4836 11.5773V11.2219H10.0243ZM10.4836 12.7969L10.0243 13.125H10.4836V12.7969ZM6.05396 12.7969V13.125H6.51333L6.05396 12.7969ZM6.67739 13.2672V13.6227H7.16958L6.67739 13.2672ZM9.83833 13.2672L9.36255 13.6227H9.83833V13.2672Z" fill="#D22630"/>
<path d="M9.34604 10.7461L10.4835 11.5773V12.775L9.34604 13.5953H7.19683L6.05933 12.775V11.5719L7.19683 10.7297L9.34604 10.7461Z" fill="#00843D"/>
<path d="M6.32744 12.8953L6.20166 12.7531L6.32744 12.6109L6.20166 12.4633L6.32744 12.3211L6.20166 12.1734L6.32744 12.0313L6.20166 11.8836L6.32744 11.7414L6.20166 11.6156L6.32744 11.4516H10.2103L10.336 11.6156L10.2103 11.7414L10.336 11.8836L10.2103 12.0313L10.336 12.1734L10.2103 12.3211L10.336 12.4633L10.2103 12.6109L10.336 12.7531L10.2103 12.8953H6.32744ZM9.0126 10.932L8.84854 10.7899L8.70088 10.9156L8.55869 10.7899L8.4165 10.9156L8.26885 10.7899L8.12666 10.9156L7.979 10.7899L7.83682 10.9156L7.68916 10.7899L7.54697 10.932V13.4149L7.68916 13.557L7.83682 13.4367L7.979 13.557L8.12666 13.4367L8.26885 13.557L8.4165 13.4367L8.55869 13.557L8.70088 13.4367L8.84854 13.557L8.99072 13.4367L9.0126 10.932Z" fill="#383739"/>
<path d="M8.68442 10.9539L8.55864 10.8281L8.41645 10.9375V13.4148L8.55864 13.5406L8.68442 13.4148V10.9539ZM8.12661 10.9539L7.97895 10.8281L7.85864 10.9375V13.4148L7.97895 13.5406L8.12661 13.4148V10.9539Z" fill="#FFC72C"/>
<path d="M6.3438 12.8953L6.22349 12.7531L6.34927 12.6274H10.1938L10.3141 12.7531L10.1938 12.8953H6.3438ZM10.1938 12.0477L10.3141 12.1734L10.1938 12.3211H6.3438L6.21802 12.1734L6.3438 12.0477H10.1938ZM10.1938 11.7414L10.3141 11.6156L10.1938 11.4734H6.3438L6.21802 11.6156L6.3438 11.7414H10.1938Z" fill="#FFC72C"/>
<path d="M8.9688 10.9539L8.84849 10.8281L8.70083 10.9375V13.4148L8.84849 13.5406L8.97427 13.4148L8.9688 10.9539ZM7.85864 10.9539L7.71099 10.8281L7.58521 10.9375V13.4148L7.71099 13.5406L7.85864 13.4148V10.9539Z" fill="#D22630"/>
<path d="M6.3437 12.611L6.22339 12.4633L6.34917 12.3375H10.1937L10.314 12.4633L10.1937 12.611H6.3437ZM6.3437 12.0313L6.22339 11.8836L6.34917 11.7633H10.1937L10.314 11.8836L10.1937 12.0313H6.3437Z" fill="#D22630"/>
<path d="M8.41626 13.4367L8.2686 13.5406L8.14282 13.4148V10.9539L8.2686 10.85L8.41626 10.9594V13.4367Z" fill="#D22630"/>
<path d="M9.57031 10.9758H6.96719V11.1836H6.61719V13.1687H6.94531V13.3711H9.54844V13.1687H9.92578V11.1836H9.59219V10.9758H9.57031Z" fill="#383739"/>
<path d="M6.98901 10.9922V11.2055H6.66089V13.1469H6.98901V13.3547H7.23511L6.69917 12.8953V11.4516L7.23511 10.9976H6.96714L6.98901 10.9922ZM9.28589 10.9922L9.82183 11.4734V12.9172L9.3023 13.3328H9.57573V13.125H9.90386V11.1836H9.57573V10.9758H9.3023L9.28589 10.9922Z" fill="#D22630"/>
<path d="M7.27349 10.9922L6.73755 11.4734V12.8953L7.27896 13.3547H9.26411L9.80005 12.8953V11.4516L9.26411 10.9977L7.27349 10.9922ZM7.31724 11.0797H9.22036L9.73989 11.4898V12.857L9.22036 13.2672H7.31724L6.80317 12.857V11.5117L7.31724 11.0797Z" fill="#00843D"/>
<path d="M7.81479 12.8789L7.89683 12.9172L7.9187 13.0266L7.80933 13.1031L7.97886 13.2508H7.81479L7.71089 13.1414L7.60698 13.2508H7.44292L7.58511 13.1031L7.4812 13.0211V12.9172L7.59058 12.8789L7.68901 12.9609L7.81479 12.8789ZM8.37261 12.8789L8.45464 12.9172L8.47651 13.0266L8.37261 13.1031L8.53667 13.2508H8.37261L8.2687 13.1414L8.16479 13.2508H8.02261L8.16479 13.1031L8.06089 13.0211V12.9172L8.17026 12.8789L8.2687 12.9609L8.37261 12.8789ZM8.72261 12.8789L8.64058 12.9172L8.6187 13.0266L8.72808 13.1031L8.58042 13.2508H8.72261L8.83198 13.1414L8.93042 13.2508H9.09448L8.93042 13.1031L9.03433 13.0211V12.9172L8.93042 12.8789L8.82651 12.9609L8.72261 12.8789ZM7.82026 11.4844L7.90229 11.4461L7.92417 11.3422L7.81479 11.2383L7.98433 11.0961H7.82026L7.71636 11.2L7.61245 11.0906H7.44839L7.59058 11.2383L7.48667 11.3422V11.4461L7.59604 11.4844L7.69448 11.3859L7.82026 11.4844ZM8.37808 11.4844L8.46011 11.4461L8.48198 11.3422L8.37808 11.2383L8.54214 11.0961H8.37808L8.27417 11.2L8.17026 11.0906H8.02808L8.17026 11.2383L8.06636 11.3422V11.4461L8.17573 11.4844L8.27417 11.3859L8.37808 11.4844ZM8.72808 11.4844L8.64605 11.4461L8.62417 11.3422L8.73354 11.2383L8.58589 11.0961H8.72808L8.83745 11.2L8.93589 11.0906H9.09995L8.93589 11.2383L9.03979 11.3422V11.4461L8.93589 11.4844L8.83198 11.3859L8.72808 11.4844ZM9.72339 11.632L9.64136 11.7141L9.72339 11.7742V11.9L9.57573 11.7961L9.4937 11.8781H9.38979L9.35151 11.7961L9.43354 11.7141L9.35151 11.632L9.38979 11.55H9.49917L9.57573 11.632L9.72339 11.5281V11.632ZM9.72339 12.1078L9.64136 12.168L9.72339 12.25V12.3594L9.57573 12.25L9.4937 12.332H9.38979L9.35151 12.25L9.43354 12.168L9.35151 12.0859L9.38979 12.0258H9.49917L9.57573 12.0859L9.72339 11.982V12.1078ZM9.72339 12.7258L9.64136 12.6438L9.72339 12.5617V12.4578L9.57573 12.5617L9.4937 12.4797H9.38979L9.35151 12.5617L9.43354 12.6438L9.35151 12.7258L9.38979 12.7914H9.49917L9.57573 12.7258L9.72339 12.8352V12.7258ZM6.82495 11.632L6.93433 11.7141L6.82495 11.7742V11.9L6.97261 11.7961L7.05464 11.8781H7.15854L7.20229 11.7961L7.1148 11.7141L7.20229 11.632L7.15854 11.55H7.05464L6.97261 11.632L6.82495 11.5281V11.632ZM6.82495 12.1078L6.93433 12.168L6.82495 12.25V12.3594L6.97261 12.25L7.05464 12.332H7.15854L7.20229 12.25L7.1148 12.168L7.20229 12.0859L7.15854 12.0258H7.05464L6.97261 12.0859L6.82495 11.982V12.1078ZM6.82495 12.7258L6.93433 12.6438L6.82495 12.5617V12.4578L6.97261 12.5617L7.05464 12.4797H7.15854L7.20229 12.5617L7.1148 12.6438L7.20229 12.7258L7.15854 12.7914H7.05464L6.97261 12.7258L6.82495 12.8352V12.7258Z" fill="#00843D"/>
<path d="M7.31729 11.1016L6.8415 11.5117L6.96729 11.6211L7.04932 11.5336H7.1751L7.21338 11.6375L7.13135 11.7195L7.21338 11.8016L7.1751 11.8836H7.02744L6.94541 11.8234L6.80322 11.9273V11.9656L6.94541 12.075L7.02744 11.9875L7.15322 12.0094L7.19697 12.0914L7.10947 12.1734L7.19697 12.2555L7.15322 12.3648H7.02744L6.94541 12.2773L6.80322 12.4031V12.4195L6.94541 12.5453L7.02744 12.4633H7.15322L7.19697 12.5672L7.10947 12.6492L7.19697 12.7313L7.15322 12.8133H7.02744L6.94541 12.7531L6.81963 12.857L7.29541 13.2672H7.40478L7.56885 13.1031L7.45947 13.0211V12.8953L7.58525 12.857L7.69463 12.9391L7.79307 12.857L7.90244 12.8953L7.91885 13.0211L7.80947 13.1031L7.979 13.2508L8.12666 13.1031L8.01729 13.0211V12.8953L8.14307 12.857L8.25244 12.9391L8.35088 12.857L8.46025 12.8953L8.47666 13.0211L8.37275 13.1031L8.51494 13.2508L8.679 13.1031L8.58057 13.0211V12.8953L8.70088 12.857L8.81025 12.9391L8.90869 12.857L9.01807 12.8953L9.03447 13.0211L8.93057 13.1031L9.09463 13.2508H9.204L9.67432 12.8352L9.54854 12.7531L9.4665 12.8352L9.34619 12.8133L9.30244 12.7313L9.38447 12.6492L9.30244 12.5672L9.34619 12.4852L9.4665 12.4633L9.54854 12.5453L9.69619 12.4195V12.4031L9.54854 12.2773L9.4665 12.3594H9.35166L9.30791 12.2555L9.38994 12.1734L9.30791 12.0914L9.35166 12.0094H9.47197L9.554 12.0695L9.70166 11.9656V11.9273L9.554 11.818L9.47197 11.9055L9.35166 11.8836L9.30791 11.8016L9.38994 11.7195L9.30791 11.6375L9.35166 11.5555L9.47197 11.5336L9.554 11.6156L9.67979 11.5117L9.204 11.1016H9.1001L8.93603 11.2438L9.03994 11.3477V11.4734L8.91416 11.5117L8.81025 11.4297L8.70635 11.5117L8.60791 11.4734L8.58604 11.3477L8.68994 11.2438L8.54228 11.1016L8.37822 11.2438L8.48213 11.3477V11.4734L8.35635 11.5117L8.25244 11.4297L8.14854 11.5117L8.0501 11.4734L8.02822 11.3477L8.13213 11.2438L7.98447 11.1016L7.82041 11.2438L7.92432 11.3477V11.4734L7.79854 11.5117L7.69463 11.4297L7.59072 11.5117L7.48682 11.4734L7.47041 11.3477L7.57432 11.2438L7.41025 11.1016H7.31729ZM6.8251 12.1352V12.2336L6.87979 12.1789L6.8251 12.1352Z" fill="#D22630"/>
<path d="M7.71099 13.1852L7.62896 13.2508H7.79302L7.71099 13.1852ZM8.2688 13.1852L8.18677 13.2508H8.35083L8.2688 13.1852ZM8.82661 13.1852L8.74458 13.2508H8.90864L8.82661 13.1852ZM7.62349 11.118L7.71099 11.1836L7.79302 11.1016L7.62349 11.118ZM8.18677 11.118L8.2688 11.1836L8.35083 11.1016L8.18677 11.118ZM8.74458 11.118L8.82661 11.1836L8.90864 11.1016L8.74458 11.118ZM9.71802 11.6758L9.65239 11.7195L9.71802 11.7633V11.6758ZM9.71802 12.1352L9.65239 12.1734L9.71802 12.2336V12.1352ZM9.71802 12.6109L9.65239 12.6492L9.71802 12.693V12.6109ZM6.81958 11.6594V11.7633L6.88521 11.7195L6.81958 11.6594ZM6.81958 12.1352V12.2336L6.88521 12.1789L6.81958 12.1352ZM6.81958 12.5891V12.693L6.88521 12.6492L6.81958 12.5891Z" fill="white"/>
<path d="M8.7501 12.0312V11.8672H8.58057V11.6758H7.95713V11.8617H7.79307V12.0258H7.56885V12.3375H7.79307V12.5016H7.95713V12.693H8.58604V12.4852H8.7501V12.3375H8.97979V12.0312H8.7501Z" fill="#383739"/>
<path d="M8.2688 11.7031V11.8836L8.00083 12.0312V12.1734H7.58521V12.0477H7.79302V11.8836H7.97895V11.6758L8.2688 11.7031ZM8.2688 12.6711V12.4633L8.54224 12.3211V12.1953H8.95239V12.3211H8.74458V12.4852H8.55864V12.6711H8.2688Z" fill="#FFC72C"/>
<path d="M8.53677 12.1734V12.0312L8.2688 11.8836V11.6758H8.55864V11.8836H8.72271V12.0477H8.95239V12.1734H8.53677ZM7.58521 12.1734H8.00083V12.3211L8.27427 12.4852V12.6711H7.97895V12.4633H7.81489V12.3211H7.58521V12.1734Z" fill="white"/>
<path d="M8.02271 12.1953V12.3211L8.2688 12.4633V12.1898L8.02271 12.1953Z" fill="#D22630"/>
<path d="M8.2688 11.9055L8.02271 12.0476V12.1734H8.2688V11.9055Z" fill="#00843D"/>
<path d="M8.51489 12.1734V12.0476L8.2688 11.9055V12.1789L8.51489 12.1734Z" fill="#D22630"/>
<path d="M8.2688 12.4688L8.51489 12.3211V12.1953H8.2688V12.4688Z" fill="#00843D"/>
<path d="M6.01558 15.4765V15.9961H5.53979V16.4554H5.04761V17.7734H5.53979V18.2492H5.9937V18.7469H7.77105L8.08276 18.9547L7.94058 19.0367H7.31714L7.25698 18.9765H7.85854L7.69448 18.8125H6.86323L7.23511 19.2008H8.00073L8.27417 19.0148L8.53667 19.1789H9.3023L9.67417 18.7906H8.84839L8.68433 18.9547H9.26401L9.22026 19.0148H8.58042L8.43276 18.9109L8.74448 18.725H10.5218V18.2328H10.9976V17.7734H11.4898V16.4609H10.9976V16.0015H10.5437V15.4875H8.76636L8.45464 15.2797L8.60229 15.1976H9.22026L9.28042 15.2578H8.67886L8.84839 15.4219H9.67417L9.3023 15.0336H8.53667L8.2687 15.1976L8.00073 15.0336H7.23511L6.86323 15.4437H7.68901L7.85308 15.2578H7.27886L7.31714 15.1976H7.95698L8.10464 15.3015L7.79292 15.4875L6.01558 15.4765Z" fill="#D22630"/>
<path d="M8.75 18.725H10.5V18.2328H10.9594V17.757H11.4516V16.4719H10.9594V15.9961H10.4836V15.5039H8.72266L7.98437 15.0391H7.24062L6.9125 15.3945H7.67812L7.79844 15.2688H7.24062L7.32266 15.1648H7.9625L8.79375 15.6844H10.3359V16.1766H10.8281V16.6523H11.3312V17.5656H10.8281V18.0414H10.3359V18.5555H8.82109L7.99531 19.0477H7.33359L7.25156 18.9492H7.80938L7.68359 18.8234H6.91797L7.24609 19.1734H8.01172L8.75 18.725ZM7.73281 18.5609H6.22344V18.0469H5.74219V17.5711H5.25V16.6578H5.74219V16.1875H6.19609V15.7117H7.71094L8.53672 15.1977H9.19844L9.28047 15.3016H8.72266L8.84844 15.4273H9.61406L9.29687 15.0391H8.53125L7.80938 15.4984H6.03203V15.9906H5.57812V16.4664H5.08594V17.7516H5.57812V18.2273H6.05938V18.7195H7.83672L8.55859 19.1734H9.30234L9.63047 18.8234H8.86484L8.74453 18.9492H9.30234L9.22031 19.0531H8.58047L7.73281 18.5609Z" fill="#FFC72C"/>
<path d="M10.1718 17.8992V18.3914H8.76636L8.27417 18.7031L7.77105 18.3969H6.36558V17.9047H5.88979V17.4234H5.37573V16.8055H5.86792V16.3297H6.34917V15.8375H7.75464L8.24683 15.5422L8.74448 15.832H10.15V16.3242H10.6257V16.8055H11.1617V17.4234H10.6695V17.8992H10.1718Z" fill="#00843D"/>
<path d="M6.55151 17.7188V18.1891H7.33901L6.55151 17.6695V17.7188ZM6.55151 16.5156V16.0234H7.33901L6.55151 16.5375V16.5156ZM9.98589 17.7188V18.1891H9.19839L9.98589 17.6695V17.7188ZM9.98589 16.5156V16.0234H9.19839L9.98589 16.5375V16.5156Z" fill="#383739"/>
<path d="M6.57349 17.7352L7.27896 18.1891H6.57349V17.7352ZM6.57349 16.4938L7.27896 16.0399H6.57349V16.4938ZM9.96411 17.7352L9.26411 18.1891H9.96411V17.7352ZM9.96411 16.4938L9.26411 16.0399H9.96411V16.4938Z" fill="#D22630"/>
<path d="M7.54678 16.9696V16.7399H7.46475L7.04912 16.4938L6.6335 16.7399H6.55147V16.9914H6.34912V17.2813H6.55147V17.5274H6.6335L7.04912 17.7735L7.46475 17.5274H7.54678V17.2813H7.83662V16.9531L7.54678 16.9696Z" fill="#383739"/>
<path d="M7.02715 16.4938L7.44277 16.7235H6.65527L7.02715 16.4938ZM7.44277 17.5055L7.02715 17.7352L6.65527 17.5055H7.44277ZM7.33887 16.9914V17.2375H6.86309V16.9914H7.33887Z" fill="#D22630"/>
<path d="M7.52485 17.2594V17.4836H7.04907V17.2594H7.52485ZM7.03267 17.2594V17.4836H6.55142V17.2594H7.03267ZM7.8147 16.986V17.2375H7.36079V16.9914L7.8147 16.986ZM6.84126 16.986V17.2375H6.36548V16.9914L6.84126 16.986ZM7.52485 16.7399V16.9696H7.04907V16.7617L7.52485 16.7399ZM7.03267 16.7399V16.9696H6.55142V16.7617L7.03267 16.7399Z" fill="#FFC72C"/>
<path d="M6.72109 17.0516V17.1774H6.50781V17.0516H6.72109ZM6.90703 16.8055V16.9258H6.69922V16.8055H6.90703ZM7.39922 16.8055V16.9258H7.19688V16.8055H7.39922ZM7.19688 17.0516V17.1774H6.98906V17.0516H7.19688ZM7.68906 17.0516V17.1774H7.48125V17.0516H7.68906ZM7.39922 17.2977V17.4235H7.19688V17.2977H7.39922ZM6.90703 17.2977V17.4235H6.69922V17.2977H6.90703Z" fill="#383739"/>
<path d="M6.69922 17.0735H6.50781V17.1555H6.69375L6.69922 17.0735ZM6.90703 16.8274H6.69922V16.9094H6.90703V16.8274ZM7.38281 16.8274H7.19688V16.9094H7.38281V16.8274ZM7.175 17.0735H7.02734V17.1555H7.19141L7.175 17.0735ZM7.66719 17.0735H7.50312V17.1555H7.66719V17.0735ZM7.38281 17.3196H7.19688V17.4016H7.38281V17.3196ZM6.88516 17.3196H6.72109V17.4016H6.88516V17.3196Z" fill="white"/>
<path d="M8.99062 16.9696V16.7399H9.07812L9.48828 16.4938L9.90391 16.7399H10.0078V16.9914H10.1937V17.2813H9.98594V17.5274H9.92578L9.51016 17.7735L9.09453 17.5274H9.0125V17.2813H8.72266V16.9531L8.99062 16.9696Z" fill="#383739"/>
<path d="M9.51011 16.4938L9.09448 16.7235H9.86011L9.51011 16.4938ZM9.09448 17.5055L9.46636 17.7352L9.86011 17.5055H9.09448ZM9.17651 16.9914V17.2375H9.65229V16.9914H9.17651Z" fill="#D22630"/>
<path d="M9.0125 17.2594V17.4836H9.48828V17.2594H9.0125ZM9.50469 17.2594V17.4836H9.98594V17.2594H9.50469ZM8.72266 16.986V17.2375H9.19844V16.9914L8.72266 16.986ZM9.69609 16.986V17.2375H10.1719V16.9914L9.69609 16.986ZM9.0125 16.7399V16.9696H9.48828V16.7617L9.0125 16.7399ZM9.50469 16.7399V16.9696H9.98594V16.7617L9.50469 16.7399Z" fill="#FFC72C"/>
<path d="M9.8437 17.0516V17.1774H10.046V17.0516H9.8437ZM9.63589 16.8055V16.9258H9.83823V16.8055H9.63589ZM9.13823 16.8055V16.9258H9.34604V16.8055H9.13823ZM9.34604 17.0516V17.1774H9.54839V17.0516H9.34604ZM8.84839 17.0516V17.1774H9.0562V17.0516H8.84839ZM9.13823 17.2977V17.4235H9.34604V17.2977H9.13823ZM9.63042 17.2977V17.4235H9.83823V17.2977H9.63042Z" fill="#383739"/>
<path d="M9.8438 17.0735H10.0243V17.1555H9.8438V17.0735ZM9.65239 16.8274H9.81646V16.9094H9.65239V16.8274ZM9.16021 16.8274H9.34614V16.9094H9.16021V16.8274ZM9.36255 17.0735H9.52661V17.1555H9.36255V17.0735ZM8.87036 17.0735H9.03442V17.1555H8.89224L8.87036 17.0735ZM9.16021 17.3196H9.34614V17.4016H9.16021V17.3196ZM9.65239 17.3196H9.81646V17.4016H9.65239V17.3196Z" fill="white"/>
<path d="M8.76641 16.5539V16.8055H8.68438L8.26875 17.0735L7.85859 16.8H7.76562V16.5539H7.51953V16.2859H7.76562V16.0399H7.85313L8.26328 15.7664L8.67891 16.0399H8.76094V16.2859H9.00703V16.5375L8.76641 16.5539Z" fill="#383739"/>
<path d="M8.26885 17.0515L8.64072 16.8055H7.89697L8.26885 17.0515ZM8.64072 16.0234L8.26885 15.8156L7.89697 16.0234H8.64072Z" fill="#FFC72C"/>
<path d="M8.75 16.2859V16.0399H8.29063V16.2859H8.75ZM8.26875 16.2859V16.0399H7.79297V16.2859H8.26875ZM8.99062 16.5375V16.3297H8.51484V16.5375H8.99062ZM8.49844 16.5375V16.3297H8.06094V16.5375H8.49844ZM8.02266 16.5375V16.3297H7.54688V16.5375H8.02266ZM8.74453 16.7836V16.5539H8.29063V16.7836H8.74453ZM8.26875 16.7836V16.5539H7.79297V16.7836H8.26875Z" fill="#D22630"/>
<path d="M8.12661 16.1V16.2258H7.9188V16.1219L8.12661 16.1ZM8.6188 16.1V16.2258H8.42192V16.1219L8.6188 16.1ZM7.87505 16.3516V16.4938H7.66724V16.3297L7.87505 16.3516ZM8.37271 16.3516V16.4938H8.16489V16.3297L8.37271 16.3516ZM8.86489 16.3516V16.4938H8.66255V16.3297L8.86489 16.3516ZM8.12661 16.6196V16.7399H7.9188V16.625L8.12661 16.6196ZM8.6188 16.6196V16.7399H8.42192V16.625L8.6188 16.6196Z" fill="#383739"/>
<path d="M8.10474 16.1219H7.94067V16.2039H8.10474V16.1219ZM8.59692 16.1219H8.43286V16.2039H8.59692V16.1219ZM7.85864 16.368H7.69458V16.4774H7.85864V16.368ZM8.35083 16.368H8.18677V16.4774H8.35083V16.368ZM8.84849 16.368H8.68442V16.4774H8.84849V16.368ZM8.10474 16.6195H7.94067V16.7234H8.10474V16.6195ZM8.59692 16.6195H8.43286V16.7234H8.59692V16.6195Z" fill="white"/>
<path d="M8.76641 17.9375V18.2109H8.68438L8.26875 18.457L7.85859 18.2109H7.76562V17.9375H7.51953V17.6695H7.76562V17.4234H7.85313L8.26328 17.1555L8.67891 17.4289H8.76094V17.6695H9.00703V17.943L8.76641 17.9375Z" fill="#383739"/>
<path d="M8.26885 18.4352L8.64072 18.2109H7.89697L8.26885 18.4352ZM8.64072 17.4016L8.26885 17.1992L7.89697 17.4016H8.64072Z" fill="#FFC72C"/>
<path d="M8.75 17.6695V17.4453H8.29063V17.6695H8.75ZM8.26875 17.6695V17.4453H7.79297V17.6695H8.26875ZM8.99062 17.9211V17.6914H8.51484V17.9211H8.99062ZM8.49844 17.9211V17.6914H8.06094V17.9211H8.49844ZM8.02266 17.9211V17.6914H7.54688V17.9211H8.02266ZM8.74453 18.1891V17.943H8.29063V18.1891H8.74453ZM8.26875 18.1891V17.943H7.79297V18.1891H8.26875Z" fill="#D22630"/>
<path d="M8.12661 17.4836V17.6312H7.9188V17.4836H8.12661ZM8.6188 17.4836V17.6312H8.42192V17.4836H8.6188ZM7.87505 17.7734V17.8992H7.66724V17.7734H7.87505ZM8.37271 17.7734V17.8992H8.16489V17.7734H8.37271ZM8.86489 17.7734V17.8992H8.66255V17.7734H8.86489ZM8.12661 17.9812V18.107H7.9188V17.9812H8.12661ZM8.6188 17.9812V18.107H8.42192V17.9812H8.6188Z" fill="#383739"/>
<path d="M8.10474 17.5054H7.94067V17.6148H8.10474V17.5054ZM8.59692 17.5054H8.43286V17.6148H8.59692V17.5054ZM7.85864 17.7789H7.69458V17.8609H7.85864V17.7789ZM8.35083 17.7789H8.18677V17.8609H8.35083V17.7789ZM8.84849 17.7789H8.68442V17.8609H8.84849V17.7789ZM8.10474 18.025H7.94067V18.107H8.10474V18.025ZM8.59692 18.025H8.43286V18.107H8.59692V18.025Z" fill="white"/>
<path d="M5.57812 20.9781L7.4375 19.9883H9.09453L10.9539 20.9781V22.6133L9.09453 23.5813H7.44297L5.58359 22.6133L5.57812 20.9781Z" fill="#383739"/>
<path d="M7.4376 20.0101L5.6001 20.9781V22.5914L7.44307 23.5812H9.09463L10.9376 22.5914V20.9781L9.1165 20.0156L7.4376 20.0101ZM7.46494 20.1304H9.09463L10.8337 21.0601V22.5094L9.09463 23.439H7.48135L5.74775 22.5094V21.0547L7.46494 20.1304Z" fill="#00843D"/>
<path d="M8.2688 21.7875V23.4391H9.09458L10.8118 22.5094V21.8039H8.2688V20.1523H7.44302L5.72583 21.0602V21.7875H8.2688Z" fill="#FFC72C"/>
<path d="M8.2688 21.7875V23.4391H7.44302L5.72583 22.5094V21.8039H8.2688V20.1523H9.09458L10.8118 21.0602V21.7875H8.2688Z" fill="white"/>
<path d="M8.41641 23.3352V22.8594L8.26875 22.9688L8.12656 22.8594V23.3352H7.62891L7.95703 23.0891V22.7609L7.46484 22.4492H7.13672V21.1258H7.44297L7.93516 20.8141V20.4859L7.65625 20.2344H8.14844V20.7102L8.29609 20.6281L8.43828 20.7102V20.2562H8.93594L8.60781 20.5023V20.8305L9.1 21.1422H9.45547V22.4656H9.1L8.60781 22.7773V23.1055L8.93594 23.357L8.41641 23.3352Z" fill="#383739"/>
<path d="M8.43276 20.2562V20.7484L8.2687 20.65V20.7922L9.03433 21.2679H9.28042V21.7875H9.4062V21.164H9.07808L8.55854 20.8359V20.464L8.84839 20.2562H8.43276ZM7.15308 21.8039V22.4273H7.44292L7.95698 22.7554V23.1109L7.66714 23.3133H8.08276V22.8211L8.24683 22.9195V22.7773L7.4812 22.3015H7.23511V21.8094L7.15308 21.8039Z" fill="#FFC72C"/>
<path d="M7.68901 20.2562L7.97886 20.464V20.8359L7.46479 21.1422H7.15308V21.7656H7.25698V21.2898H7.50308L8.2687 20.814V20.6719L8.10464 20.7703V20.2562H7.68901ZM9.28042 21.8039V22.3015H9.03433L8.2687 22.7773V22.9195L8.43276 22.8211V23.3133H8.84839L8.55854 23.1109V22.7336L9.07808 22.4054H9.4062V21.7875L9.28042 21.8039Z" fill="white"/>
<path d="M7.27344 22.2797H7.50312L8.26875 22.7774L9.03437 22.2852H9.26406V21.2899H9.03437L8.26875 20.8141L7.50312 21.2899H7.29531L7.27344 22.2797Z" fill="#D22630"/>
<path d="M8.78818 22.0336H8.95225V21.9516H8.82646V21.8039H9.0999V22.1594H8.84834V22.4055H8.32881V22.0555H8.5585V22.1977H8.47646V22.2633H8.68428V22.1375L7.73271 21.5578H7.56865V21.618H7.68896V21.7656H7.44287V21.4156H7.68896V21.1641H8.2085V21.5141H8.00068V21.3719H8.06084V21.3117H7.8585V21.432L8.78818 22.0336ZM8.70068 21.432V21.3117H8.47646V21.3719H8.5585V21.5141H8.32881V21.1641H8.84834V21.4156H9.09443V21.7656H8.82646V21.618H8.95225V21.5578H8.78818L7.8585 22.1156V22.2414H8.06084V22.1758H7.98428V22.0391H8.21396V22.3891H7.69443V22.143H7.44834V21.793H7.71631V21.9352H7.59053V22.0172H7.75459L8.70068 21.432Z" fill="#383739"/>
<path d="M8.72261 22.1156V22.2797H8.47651V22.1758H8.55854V22.0774H8.37261V22.3836H8.84839V22.1375H9.09448V21.8203H8.89214V21.9297H8.99058V22.05H8.80464L7.83667 21.4266V21.2844H8.10464V21.3883H8.02261V21.4922H8.23042V21.1805H7.73276V21.4266H7.4812V21.7383H7.68901V21.6344H7.58511V21.5305H7.77105L8.72261 22.1156ZM8.78823 21.5359H8.99058V21.6453H8.84839V21.7438H9.09448V21.4375H8.84839V21.1914H8.37261V21.5031H8.55854V21.3938H8.47651V21.2953H8.74995V21.4594L7.77105 22.061H7.58511V21.9297H7.71089V21.8258H7.50308V22.1375H7.73276V22.3836H8.20855V22.0774H8.02261V22.1758H8.10464V22.2852H7.8312V22.1211L8.78823 21.5359Z" fill="white"/>
<path d="M10.4179 21.8695V22.3836H10.2101V22.2031H9.98589V22.389H9.7562V21.875H9.96401V22.0609H10.1937V21.875L10.4179 21.8695ZM9.63589 22.5476V23.0672H9.42808V22.8812H9.19839V23.0672H8.99058V22.5476H9.19839V22.7336H9.4062V22.5476H9.63589ZM10.4179 21.7273V21.1859H10.2101V21.3719H9.98589V21.1859H9.7562V21.7054H9.96401V21.514H10.1937V21.7219L10.4179 21.7273ZM6.11948 21.8695V22.3836H6.32729V22.2031H6.55151V22.389H6.7812V21.875H6.57339V22.0609H6.34917V21.875L6.11948 21.8695ZM6.11948 21.7054V21.1859H6.32729V21.3719H6.55151V21.1859H6.7812V21.7054H6.57339V21.514H6.34917V21.7219L6.11948 21.7054ZM9.63589 21.0219V20.5023H9.42808V20.6883H9.19839V20.5078H8.99058V21.0273H9.19839V20.8359H9.4062V21.0437L9.63589 21.0219ZM6.90151 22.5531V23.0672H7.10933V22.8812H7.33901V23.0672H7.5687V22.5476H7.36089V22.7336H7.1312V22.5476L6.90151 22.5531ZM6.90151 21.0219V20.5023H7.10933V20.6883H7.33901V20.5078H7.5687V21.0273H7.36089V20.8359H7.1312V21.0437L6.90151 21.0219ZM9.7562 20.6719V21.0601H10.4835L9.7562 20.6719ZM6.7812 22.914V22.5039H6.05933L6.7812 22.914ZM6.7812 20.6445V21.0547H6.05933L6.7812 20.6445ZM9.7562 22.914V22.5039H10.4835L9.7562 22.914Z" fill="#383739"/>
<path d="M10.2101 22.1758V22.3836H10.396V21.8914H10.2101V22.0774H9.96401V21.8914H9.7562V22.3617H9.96401V22.1758H10.2101ZM9.42808 22.8594V23.0672H9.61401V22.575H9.42808V22.7555H9.17651V22.5695H8.99058V23.0453H9.17651V22.8594H9.42808ZM10.2101 21.3938V21.2078H10.396V21.6836H10.2101V21.4922H9.96401V21.7H9.7562V21.2024H9.96401V21.3883L10.2101 21.3938ZM6.32729 22.1758V22.3836H6.14136V21.8914H6.32729V22.0774H6.57339V21.8914H6.7812V22.3617H6.57339V22.1758H6.32729ZM6.32729 21.3938V21.2078H6.14136V21.6836H6.32729V21.4922H6.57339V21.7H6.7812V21.2024H6.57339V21.3883L6.32729 21.3938ZM9.42808 20.7102V20.5242H9.61401V21H9.42808V20.8141H9.17651V21.0219H8.99058V20.5297H9.17651V20.7102H9.42808ZM7.10933 22.8594V23.0672H6.92339V22.575H7.10933V22.7555H7.36089V22.5695H7.5687V23.0453H7.36089V22.8594H7.10933ZM7.10933 20.7102V20.5242H6.92339V21H7.10933V20.8141H7.36089V21.0219H7.5687V20.5297H7.36089V20.7102H7.10933Z" fill="#D22630"/>
<path d="M9.77822 20.6883V21.0438H10.3962L9.77822 20.6883ZM6.11963 22.5477L6.7376 22.8758V22.5477H6.11963Z" fill="#FFC72C"/>
<path d="M6.75933 20.6883L6.14136 21.0438H6.75933V20.6883ZM9.77808 22.5477V22.8758L10.396 22.5477H9.77808Z" fill="white"/>
<path d="M11.2438 23.2313C11.2055 23.3789 11.0797 23.4828 11.0578 23.6469C11.0031 23.4828 10.9594 23.3352 11.0031 23.1711C11.0031 23.0453 11.1234 22.9633 11.1453 22.8211C11.2438 22.9195 11.2656 23.0672 11.2438 23.2313ZM11.2656 23.8547C11.1693 23.9863 11.0414 24.0916 10.8937 24.1609C10.9156 24.0406 10.8555 23.9531 10.7898 23.8547C10.7297 23.7453 10.6859 23.6469 10.7516 23.4992C10.7776 23.5656 10.8126 23.6282 10.8555 23.6852C10.9156 23.7672 10.9758 23.8492 10.9758 23.975C11.0578 23.9149 11.0852 23.8328 11.1234 23.7508C11.1892 23.6276 11.2901 23.5267 11.4133 23.461C11.3695 23.6031 11.3477 23.7289 11.2656 23.8547ZM10.7297 24.2649L10.7516 24.4727L10.9758 24.3086C11.0852 24.1992 11.2055 24.161 11.2875 24.0352C11.2848 24.112 11.2648 24.1873 11.2288 24.2554C11.1928 24.3235 11.1419 24.3828 11.0797 24.4289L10.6695 24.7024C10.6695 24.5547 10.6258 24.4289 10.5602 24.2867C10.5504 24.2273 10.5553 24.1663 10.5744 24.1092C10.5934 24.052 10.6261 24.0003 10.6695 23.9586C10.6695 24.057 10.6859 24.1609 10.7297 24.243V24.2649ZM10.418 24.7406L10.2539 25.0305C10.3961 24.9867 10.5273 24.9047 10.6695 24.8227C10.8117 24.7406 10.9758 24.7024 11.1234 24.5766C11.0578 24.8445 10.8719 24.9867 10.6312 25.0688C10.4617 25.1125 10.2977 25.0906 10.0844 25.1781C10.1121 25.0329 10.1619 24.8927 10.232 24.7625L10.3797 24.4727C10.418 24.5547 10.4398 24.6367 10.418 24.7461V24.7406ZM9.88203 25.1344C9.82942 25.2183 9.75838 25.2893 9.67422 25.3422C9.88203 25.3422 10.0461 25.2328 10.2539 25.2164C10.3797 25.2164 10.5 25.2602 10.6258 25.2383C10.4836 25.3422 10.3141 25.4461 10.1336 25.4461C9.90391 25.4844 9.67422 25.4461 9.42266 25.4461C9.54844 25.3586 9.61406 25.2383 9.67422 25.1344C9.78359 24.9703 9.88203 24.8609 10.068 24.8445C9.98594 24.9266 9.94219 25.0524 9.88203 25.1344ZM9.16016 25.4625C9.51016 25.5281 9.86016 25.6102 10.232 25.6102C9.84309 25.7723 9.40701 25.7801 9.0125 25.632C8.80469 25.5664 8.61875 25.5063 8.45469 25.5227C8.23047 25.5227 7.91875 25.6485 7.58516 25.982L7.46484 25.8781C7.94062 25.4625 8.55859 25.3586 9.16016 25.4625Z" fill="#FFC72C"/>
</g>
<defs>
<clipPath id="clip0_385_5587">
<rect width="35" height="26.25" fill="white"/>
</clipPath>
</defs>
</svg>
