<svg width="26" height="30" viewBox="0 0 26 30" fill="none" xmlns="http://www.w3.org/2000/svg">
<rect width="26" height="30" rx="2" fill="#034A7E"/>
<path d="M9.37354 13.1667H11.8346M9.37354 5.26044C9.37354 5.51356 9.60551 5.71877 9.89165 5.71877H11.3165C11.6026 5.71877 11.8346 5.51356 11.8346 5.26044" stroke="#F4F6F2" stroke-width="0.5" stroke-linecap="round"/>
<path d="M12.3524 5.03125H8.85508C8.28278 5.03125 7.81885 5.44165 7.81885 5.94792V13.0521C7.81885 13.5583 8.28278 13.9688 8.85508 13.9688H12.3524C12.9247 13.9688 13.3886 13.5583 13.3886 13.0521V11.1615V5.94792C13.3886 5.44165 12.9247 5.03125 12.3524 5.03125Z" stroke="#F4F6F2" stroke-width="0.5"/>
<path d="M13.1294 7.32294H17.5334C17.8911 7.32294 18.181 7.57944 18.181 7.89585V11.1399C18.181 11.4563 17.8911 11.7128 17.5334 11.7128H13.2589" stroke="#F4F6F2" stroke-width="0.5"/>
<path d="M17.189 10.2471H15.601M17.189 9.54468H14.3604" stroke="#F4F6F2" stroke-width="0.5" stroke-linecap="round"/>
<path d="M9.37354 9.52238L9.84524 9.95734C10.0492 10.1454 10.3891 10.1454 10.593 9.95734L11.8346 8.8125" stroke="#F4F6F2" stroke-width="0.5" stroke-linecap="round" stroke-linejoin="round"/>
<path d="M6.41679 19.5455C6.41679 19.8589 6.35807 20.1274 6.24065 20.3509C6.12417 20.5734 5.96508 20.7438 5.76338 20.8622C5.56262 20.9806 5.33487 21.0398 5.08014 21.0398C4.8254 21.0398 4.59718 20.9806 4.39548 20.8622C4.19472 20.7429 4.03563 20.572 3.91821 20.3494C3.80173 20.1259 3.74349 19.858 3.74349 19.5455C3.74349 19.232 3.80173 18.964 3.91821 18.7415C4.03563 18.518 4.19472 18.3471 4.39548 18.2287C4.59718 18.1103 4.8254 18.0511 5.08014 18.0511C5.33487 18.0511 5.56262 18.1103 5.76338 18.2287C5.96508 18.3471 6.12417 18.518 6.24065 18.7415C6.35807 18.964 6.41679 19.232 6.41679 19.5455ZM5.88696 19.5455C5.88696 19.3248 5.85239 19.1387 5.78326 18.9872C5.71508 18.8348 5.62038 18.7197 5.49917 18.642C5.37796 18.5634 5.23828 18.5241 5.08014 18.5241C4.92199 18.5241 4.78232 18.5634 4.6611 18.642C4.53989 18.7197 4.44472 18.8348 4.37559 18.9872C4.30741 19.1387 4.27332 19.3248 4.27332 19.5455C4.27332 19.7661 4.30741 19.9527 4.37559 20.1051C4.44472 20.2566 4.53989 20.3717 4.6611 20.4503C4.78232 20.5279 4.92199 20.5668 5.08014 20.5668C5.23828 20.5668 5.37796 20.5279 5.49917 20.4503C5.62038 20.3717 5.71508 20.2566 5.78326 20.1051C5.85239 19.9527 5.88696 19.7661 5.88696 19.5455ZM6.91501 21V18.0909H7.442V19.3224H8.79001V18.0909H9.31842V21H8.79001V19.7642H7.442V21H6.91501ZM9.70265 21V20.5625L9.78504 20.5582C9.89678 20.5516 9.98532 20.5114 10.0507 20.4375C10.117 20.3636 10.1657 20.2448 10.197 20.081C10.2292 19.9171 10.2505 19.6974 10.2609 19.4219L10.3092 18.0909H12.2154V21H11.6998V18.5241H10.8007L10.7552 19.5852C10.742 19.9034 10.7069 20.1671 10.6501 20.3764C10.5942 20.5857 10.5024 20.742 10.3745 20.8452C10.2476 20.9484 10.071 21 9.8447 21H9.70265ZM13.1636 21H12.6011L13.6252 18.0909H14.2758L15.3014 21H14.7389L13.9619 18.6875H13.9392L13.1636 21ZM13.1821 19.8594H14.7161V20.2827H13.1821V19.8594ZM15.6845 18.0909H16.2073V20.0739H16.2343L17.6022 18.0909H18.0752V21H17.5482V19.0185H17.524L16.1519 21H15.6845V18.0909ZM17.1618 17.3409H17.5468C17.5468 17.5066 17.4866 17.6411 17.3664 17.7443C17.247 17.8466 17.0851 17.8977 16.8806 17.8977C16.6779 17.8977 16.5165 17.8466 16.3962 17.7443C16.2769 17.6411 16.2177 17.5066 16.2186 17.3409H16.6007C16.6007 17.4091 16.6216 17.4702 16.6632 17.5241C16.7058 17.5772 16.7783 17.6037 16.8806 17.6037C16.9809 17.6037 17.0524 17.5772 17.0951 17.5241C17.1386 17.4711 17.1609 17.41 17.1618 17.3409ZM18.6494 21V18.0909H19.1764V19.3224H20.5244V18.0909H21.0528V21H20.5244V19.7642H19.1764V21H18.6494ZM6.9578 24.5455C6.9578 24.8589 6.89909 25.1274 6.78167 25.3509C6.66519 25.5734 6.5061 25.7438 6.30439 25.8622C6.10363 25.9806 5.87589 26.0398 5.62115 26.0398C5.36642 26.0398 5.1382 25.9806 4.93649 25.8622C4.73574 25.7429 4.57665 25.572 4.45922 25.3494C4.34274 25.1259 4.28451 24.858 4.28451 24.5455C4.28451 24.232 4.34274 23.964 4.45922 23.7415C4.57665 23.518 4.73574 23.3471 4.93649 23.2287C5.1382 23.1103 5.36642 23.0511 5.62115 23.0511C5.87589 23.0511 6.10363 23.1103 6.30439 23.2287C6.5061 23.3471 6.66519 23.518 6.78167 23.7415C6.89909 23.964 6.9578 24.232 6.9578 24.5455ZM6.42797 24.5455C6.42797 24.3248 6.39341 24.1387 6.32428 23.9872C6.2561 23.8348 6.1614 23.7197 6.04019 23.642C5.91898 23.5634 5.7793 23.5241 5.62115 23.5241C5.46301 23.5241 5.32333 23.5634 5.20212 23.642C5.08091 23.7197 4.98574 23.8348 4.91661 23.9872C4.84843 24.1387 4.81434 24.3248 4.81434 24.5455C4.81434 24.7661 4.84843 24.9527 4.91661 25.1051C4.98574 25.2566 5.08091 25.3717 5.20212 25.4503C5.32333 25.5279 5.46301 25.5668 5.62115 25.5668C5.7793 25.5668 5.91898 25.5279 6.04019 25.4503C6.1614 25.3717 6.2561 25.2566 6.32428 25.1051C6.39341 24.9527 6.42797 24.7661 6.42797 24.5455ZM9.82961 23.0909V26H9.30688V23.5284H8.03415V26H7.51142V23.0909H9.82961ZM10.271 26V25.5625L10.3534 25.5582C10.4651 25.5516 10.5537 25.5114 10.619 25.4375C10.6853 25.3636 10.7341 25.2448 10.7653 25.081C10.7975 24.9171 10.8188 24.6974 10.8293 24.4219L10.8775 23.0909H12.7838V26H12.2682V23.5241H11.369L11.3236 24.5852C11.3103 24.9034 11.2753 25.1671 11.2185 25.3764C11.1626 25.5857 11.0707 25.742 10.9429 25.8452C10.816 25.9484 10.6394 26 10.4131 26H10.271ZM13.7319 26H13.1694L14.1936 23.0909H14.8442L15.8697 26H15.3072L14.5302 23.6875H14.5075L13.7319 26ZM13.7504 24.8594H15.2845V25.2827H13.7504V24.8594ZM15.7735 23.5327V23.0909H18.0945V23.5327H17.1954V26H16.6726V23.5327H15.7735ZM18.564 26H18.0015L19.0256 23.0909H19.6762L20.7018 26H20.1393L19.3623 23.6875H19.3395L18.564 26ZM18.5824 24.8594H20.1165V25.2827H18.5824V24.8594Z" fill="white"/>
</svg>
