<svg width="26" height="30" viewBox="0 0 26 30" fill="none" xmlns="http://www.w3.org/2000/svg">
<rect width="26" height="30" rx="2" fill="#2F9B08"/>
<path d="M8.68351 5.15733L9.70355 6.96202C9.76022 7.01215 9.81689 7.06228 9.93023 7.11241L12.1403 7.41319C12.367 7.46332 12.4803 7.71397 12.3103 7.86437L10.7236 9.26801C10.6669 9.31814 10.6103 9.4184 10.6669 9.46853L11.0636 11.4236C11.1203 11.6241 10.8369 11.7745 10.6669 11.6743L8.68351 10.7719C8.62684 10.7218 8.5135 10.7218 8.40016 10.7719L6.41675 11.6743C6.19007 11.7745 5.9634 11.6241 6.02006 11.4236L6.41675 9.46853C6.41675 9.36827 6.41675 9.31814 6.36008 9.26801L4.60334 7.7641C4.43333 7.61371 4.54667 7.36306 4.77335 7.36306L6.98344 7.06228C7.09678 7.06228 7.15345 7.01215 7.21011 6.91189L8.23016 5.1072C8.28683 4.95681 8.62684 4.95681 8.68351 5.15733Z" fill="url(#paint0_linear_1208_1426)"/>
<path d="M18.0985 5.15733L19.1186 6.96202C19.1753 7.01215 19.2319 7.06228 19.3453 7.11241L21.5554 7.41319C21.782 7.46332 21.8954 7.71397 21.7254 7.86437L20.1386 9.26801C20.082 9.31814 20.0253 9.4184 20.082 9.46853L20.4786 11.4236C20.5353 11.6241 20.252 11.7745 20.082 11.6743L18.0985 10.7719C18.0419 10.7218 17.9285 10.7218 17.8152 10.7719L15.8318 11.6743C15.6051 11.7745 15.3784 11.6241 15.4351 11.4236L15.8318 9.46853C15.8318 9.36827 15.8318 9.31814 15.7751 9.26801L14.0184 7.7641C13.8484 7.61371 13.9617 7.36306 14.1884 7.36306L16.3985 7.06228C16.5118 7.06228 16.5685 7.01215 16.6252 6.91189L17.6452 5.1072C17.7019 4.95681 18.0419 4.95681 18.0985 5.15733Z" fill="url(#paint1_linear_1208_1426)"/>
<path d="M1.29084 21V18.0909H2.40447C2.6147 18.0909 2.78942 18.1241 2.92862 18.1903C3.06877 18.2557 3.17341 18.3452 3.24254 18.4588C3.31262 18.5724 3.34766 18.7012 3.34766 18.8452C3.34766 18.9635 3.32493 19.0649 3.27947 19.1491C3.23402 19.2325 3.17294 19.3002 3.09624 19.3523C3.01953 19.4044 2.93383 19.4418 2.83913 19.4645V19.4929C2.94235 19.4986 3.04131 19.5303 3.13601 19.5881C3.23165 19.6449 3.30978 19.7254 3.37038 19.8295C3.43099 19.9337 3.46129 20.0597 3.46129 20.2074C3.46129 20.358 3.42483 20.4934 3.35192 20.6136C3.279 20.733 3.16915 20.8272 3.02237 20.8963C2.87559 20.9654 2.69093 21 2.46839 21H1.29084ZM1.81783 20.5597H2.38459C2.57588 20.5597 2.71366 20.5232 2.79794 20.4503C2.88317 20.3764 2.92578 20.2817 2.92578 20.1662C2.92578 20.08 2.90447 20.0024 2.86186 19.9332C2.81925 19.8632 2.75864 19.8082 2.68004 19.7685C2.60144 19.7277 2.50769 19.7074 2.39879 19.7074H1.81783V20.5597ZM1.81783 19.3281H2.33913C2.43004 19.3281 2.51196 19.3116 2.58487 19.2784C2.65779 19.2443 2.71508 19.1965 2.75675 19.1349C2.79936 19.0724 2.82067 18.9986 2.82067 18.9134C2.82067 18.8007 2.78089 18.7079 2.70135 18.6349C2.62275 18.562 2.5058 18.5256 2.3505 18.5256H1.81783V19.3281ZM4.27628 19.2145H5.01491C5.23745 19.2145 5.42827 19.2509 5.58736 19.3239C5.7474 19.3958 5.87003 19.4976 5.95526 19.6293C6.04048 19.7609 6.0831 19.9157 6.0831 20.0938C6.0831 20.2727 6.04048 20.4304 5.95526 20.5668C5.87003 20.7022 5.7474 20.8082 5.58736 20.8849C5.42827 20.9616 5.23745 21 5.01491 21H3.92543V18.0909H4.45384V20.5682H5.01491C5.13234 20.5682 5.23177 20.5459 5.31321 20.5014C5.39465 20.4569 5.4562 20.3982 5.49787 20.3253C5.54048 20.2524 5.56179 20.1733 5.56179 20.0881C5.56179 19.965 5.51444 19.8603 5.41974 19.7741C5.32599 19.687 5.19105 19.6435 5.01491 19.6435H4.27628V19.2145ZM6.86293 18.0909V21H6.33452V18.0909H6.86293ZM9.30611 18.0909V18.5327H7.96236V21H7.43537V18.0909H9.30611ZM12.2223 19.5455C12.2223 19.8589 12.1636 20.1274 12.0462 20.3509C11.9297 20.5734 11.7706 20.7438 11.5689 20.8622C11.3681 20.9806 11.1404 21.0398 10.8857 21.0398C10.6309 21.0398 10.4027 20.9806 10.201 20.8622C10.0002 20.7429 9.84115 20.572 9.72372 20.3494C9.60724 20.1259 9.54901 19.858 9.54901 19.5455C9.54901 19.232 9.60724 18.964 9.72372 18.7415C9.84115 18.518 10.0002 18.3471 10.201 18.2287C10.4027 18.1103 10.6309 18.0511 10.8857 18.0511C11.1404 18.0511 11.3681 18.1103 11.5689 18.2287C11.7706 18.3471 11.9297 18.518 12.0462 18.7415C12.1636 18.964 12.2223 19.232 12.2223 19.5455ZM11.6925 19.5455C11.6925 19.3248 11.6579 19.1387 11.5888 18.9872C11.5206 18.8348 11.4259 18.7197 11.3047 18.642C11.1835 18.5634 11.0438 18.5241 10.8857 18.5241C10.7275 18.5241 10.5878 18.5634 10.4666 18.642C10.3454 18.7197 10.2502 18.8348 10.1811 18.9872C10.1129 19.1387 10.0788 19.3248 10.0788 19.5455C10.0788 19.7661 10.1129 19.9527 10.1811 20.1051C10.2502 20.2566 10.3454 20.3717 10.4666 20.4503C10.5878 20.5279 10.7275 20.5668 10.8857 20.5668C11.0438 20.5668 11.1835 20.5279 11.3047 20.4503C11.4259 20.3717 11.5206 20.2566 11.5888 20.1051C11.6579 19.9527 11.6925 19.7661 11.6925 19.5455ZM12.5316 21.7017V20.5696H12.7262C12.7915 20.5175 12.8526 20.4441 12.9094 20.3494C12.9663 20.2547 13.0146 20.125 13.0543 19.9602C13.0941 19.7955 13.1216 19.5824 13.1367 19.321L13.2134 18.0909H15.0728V20.5696H15.3967V21.6989H14.891V21H13.0373V21.7017H12.5316ZM13.3398 20.5696H14.5671V18.5327H13.6879L13.6424 19.321C13.6301 19.5189 13.6102 19.696 13.5827 19.8523C13.5553 20.0085 13.5207 20.1463 13.479 20.2656C13.4374 20.384 13.391 20.4853 13.3398 20.5696ZM15.826 21V18.0909H16.353V19.3224H17.701V18.0909H18.2294V21H17.701V19.7642H16.353V21H15.826ZM19.1591 19.2145H19.8977C20.1203 19.2145 20.3111 19.2509 20.4702 19.3239C20.6302 19.3958 20.7528 19.4976 20.8381 19.6293C20.9233 19.7609 20.9659 19.9157 20.9659 20.0938C20.9659 20.2727 20.9233 20.4304 20.8381 20.5668C20.7528 20.7022 20.6302 20.8082 20.4702 20.8849C20.3111 20.9616 20.1203 21 19.8977 21H18.8082V18.0909H19.3366V20.5682H19.8977C20.0152 20.5682 20.1146 20.5459 20.196 20.5014C20.2775 20.4569 20.339 20.3982 20.3807 20.3253C20.4233 20.2524 20.4446 20.1733 20.4446 20.0881C20.4446 19.965 20.3973 19.8603 20.3026 19.7741C20.2088 19.687 20.0739 19.6435 19.8977 19.6435H19.1591V19.2145ZM21.7457 18.0909V21H21.2173V18.0909H21.7457ZM22.3182 18.0909H22.8409V20.0739H22.8679L24.2358 18.0909H24.7088V21H24.1818V19.0185H24.1577L22.7855 21H22.3182V18.0909ZM23.7955 17.3409H24.1804C24.1804 17.5066 24.1203 17.6411 24 17.7443C23.8807 17.8466 23.7188 17.8977 23.5142 17.8977C23.3116 17.8977 23.1501 17.8466 23.0298 17.7443C22.9105 17.6411 22.8513 17.5066 22.8523 17.3409H23.2344C23.2344 17.4091 23.2552 17.4702 23.2969 17.5241C23.3395 17.5772 23.4119 17.6037 23.5142 17.6037C23.6146 17.6037 23.6861 17.5772 23.7287 17.5241C23.7723 17.4711 23.7945 17.41 23.7955 17.3409ZM5.76403 23.0909V26H5.2413V23.5284H3.96857V26H3.44585V23.0909H5.76403ZM6.39435 26V23.0909H7.48526C7.70875 23.0909 7.89625 23.1326 8.04776 23.2159C8.20023 23.2992 8.31528 23.4138 8.39293 23.5597C8.47153 23.7045 8.51083 23.8693 8.51083 24.054C8.51083 24.2405 8.47153 24.4062 8.39293 24.5511C8.31433 24.696 8.19833 24.8101 8.04492 24.8935C7.89151 24.9759 7.70259 25.017 7.47816 25.017H6.75515V24.5838H7.40714C7.53782 24.5838 7.64483 24.5611 7.72816 24.5156C7.81149 24.4702 7.87305 24.4077 7.91282 24.3281C7.95354 24.2486 7.9739 24.1572 7.9739 24.054C7.9739 23.9508 7.95354 23.8598 7.91282 23.7812C7.87305 23.7027 7.81102 23.6416 7.72674 23.598C7.64341 23.5535 7.53593 23.5312 7.4043 23.5312H6.92134V26H6.39435ZM11.568 24.5455C11.568 24.8589 11.5093 25.1274 11.3919 25.3509C11.2754 25.5734 11.1163 25.7438 10.9146 25.8622C10.7138 25.9806 10.4861 26.0398 10.2314 26.0398C9.97662 26.0398 9.7484 25.9806 9.5467 25.8622C9.34594 25.7429 9.18685 25.572 9.06942 25.3494C8.95295 25.1259 8.89471 24.858 8.89471 24.5455C8.89471 24.232 8.95295 23.964 9.06942 23.7415C9.18685 23.518 9.34594 23.3471 9.5467 23.2287C9.7484 23.1103 9.97662 23.0511 10.2314 23.0511C10.4861 23.0511 10.7138 23.1103 10.9146 23.2287C11.1163 23.3471 11.2754 23.518 11.3919 23.7415C11.5093 23.964 11.568 24.232 11.568 24.5455ZM11.0382 24.5455C11.0382 24.3248 11.0036 24.1387 10.9345 23.9872C10.8663 23.8348 10.7716 23.7197 10.6504 23.642C10.5292 23.5634 10.3895 23.5241 10.2314 23.5241C10.0732 23.5241 9.93353 23.5634 9.81232 23.642C9.69111 23.7197 9.59594 23.8348 9.52681 23.9872C9.45863 24.1387 9.42454 24.3248 9.42454 24.5455C9.42454 24.7661 9.45863 24.9527 9.52681 25.1051C9.59594 25.2566 9.69111 25.3717 9.81232 25.4503C9.93353 25.5279 10.0732 25.5668 10.2314 25.5668C10.3895 25.5668 10.5292 25.5279 10.6504 25.4503C10.7716 25.3717 10.8663 25.2566 10.9345 25.1051C11.0036 24.9527 11.0382 24.7661 11.0382 24.5455ZM11.8773 26.7017V25.5696H12.0719C12.1373 25.5175 12.1983 25.4441 12.2551 25.3494C12.312 25.2547 12.3603 25.125 12.4 24.9602C12.4398 24.7955 12.4673 24.5824 12.4824 24.321L12.5591 23.0909H14.4185V25.5696H14.7424V26.6989H14.2367V26H12.383V26.7017H11.8773ZM12.6855 25.5696H13.9128V23.5327H13.0336L12.9881 24.321C12.9758 24.5189 12.9559 24.696 12.9284 24.8523C12.901 25.0085 12.8664 25.1463 12.8248 25.2656C12.7831 25.384 12.7367 25.4853 12.6855 25.5696ZM15.4316 26.0398V25.5966H15.5978C15.6726 25.5966 15.7342 25.5857 15.7825 25.5639C15.8308 25.5421 15.8696 25.5109 15.899 25.4702C15.9293 25.4295 15.9544 25.3821 15.9743 25.3281L16.0126 25.2301L14.9728 23.0909H15.524L16.2484 24.6477L16.8748 23.0909H17.4174L16.4146 25.4631C16.3682 25.5653 16.3147 25.6605 16.2541 25.7486C16.1935 25.8357 16.1144 25.9062 16.0169 25.9602C15.9203 26.0133 15.7943 26.0398 15.639 26.0398H15.4316ZM19.5357 26L18.5783 24.7287H18.3198V26H17.7928V23.0909H18.3198V24.2869H18.4519L19.486 23.0909H20.1351L18.986 24.4176L20.1848 26H19.5357ZM20.415 23.5327V23.0909H22.736V23.5327H21.8368V26H21.3141V23.5327H20.415Z" fill="white"/>
<defs>
<linearGradient id="paint0_linear_1208_1426" x1="4.5257" y1="8.31554" x2="12.388" y2="8.31554" gradientUnits="userSpaceOnUse">
<stop stop-color="#FFC600"/>
<stop offset="1" stop-color="#FFC777"/>
</linearGradient>
<linearGradient id="paint1_linear_1208_1426" x1="13.9407" y1="8.31554" x2="21.803" y2="8.31554" gradientUnits="userSpaceOnUse">
<stop stop-color="#FFC600"/>
<stop offset="1" stop-color="#FFC777"/>
</linearGradient>
</defs>
</svg>
