<svg width="26" height="30" viewBox="0 0 26 30" fill="none" xmlns="http://www.w3.org/2000/svg">
<rect width="26" height="30" rx="2" fill="#0BC15C"/>
<path d="M11.2565 9.56257C11.2393 9.23803 11.0884 8.93204 10.835 8.70798C10.5816 8.48391 10.2452 8.35894 9.89531 8.35894C9.54544 8.35894 9.20898 8.48391 8.95559 8.70798C8.70221 8.93204 8.55132 9.23803 8.53417 9.56257C8.52944 9.72878 8.56 9.89423 8.62411 10.0495C8.68823 10.2047 8.78464 10.3467 8.90784 10.4673C9.03104 10.588 9.17861 10.6849 9.34214 10.7526C9.50567 10.8202 9.68195 10.8573 9.86091 10.8617C10.2223 10.8706 10.5728 10.7457 10.8351 10.5147C11.0974 10.2836 11.2502 9.96518 11.2597 9.62951C11.2597 9.61125 11.2597 9.58691 11.2565 9.56257ZM9.63488 10.1041C9.54713 10.0651 9.47262 10.0045 9.41947 9.92885C9.36632 9.8532 9.33657 9.76543 9.33349 9.67514C9.32892 9.63774 9.32892 9.59997 9.33349 9.56257C9.35143 9.4376 9.41762 9.32294 9.51975 9.23989C9.62189 9.15685 9.75301 9.11107 9.88876 9.11107C10.0245 9.11107 10.1556 9.15685 10.2578 9.23989C10.3599 9.32294 10.4261 9.4376 10.444 9.56257C10.4464 9.58686 10.4464 9.6113 10.444 9.63559C10.4427 9.72373 10.4176 9.81016 10.371 9.88694C10.3244 9.96372 10.2577 10.0284 10.1772 10.075C10.0966 10.1217 10.0048 10.1488 9.91003 10.1539C9.81527 10.1589 9.72066 10.1418 9.63488 10.1041ZM19.918 9.56257C19.9008 9.23803 19.7499 8.93204 19.4965 8.70798C19.2432 8.48391 18.9067 8.35894 18.5568 8.35894C18.207 8.35894 17.8705 8.48391 17.6171 8.70798C17.3637 8.93204 17.2128 9.23803 17.1957 9.56257C17.191 9.72878 17.2215 9.89423 17.2856 10.0495C17.3497 10.2047 17.4462 10.3467 17.5694 10.4673C17.6926 10.588 17.8401 10.6849 18.0037 10.7526C18.1672 10.8202 18.3435 10.8573 18.5224 10.8617C18.8839 10.8706 19.2343 10.7457 19.4966 10.5147C19.7589 10.2836 19.9117 9.96518 19.9212 9.62951C19.9212 9.61125 19.9212 9.58691 19.918 9.56257ZM18.2964 10.1041C18.2087 10.0651 18.1341 10.0045 18.081 9.92885C18.0278 9.8532 17.9981 9.76543 17.995 9.67514C17.9904 9.63774 17.9904 9.59997 17.995 9.56257C18.0129 9.4376 18.0791 9.32294 18.1813 9.23989C18.2834 9.15685 18.4145 9.11107 18.5503 9.11107C18.686 9.11107 18.8171 9.15685 18.9193 9.23989C19.0214 9.32294 19.0876 9.4376 19.1055 9.56257C19.1079 9.58686 19.1079 9.6113 19.1055 9.63559C19.1042 9.72373 19.0791 9.81016 19.0325 9.88694C18.9859 9.96372 18.9192 10.0284 18.8387 10.075C18.7582 10.1217 18.6663 10.1488 18.5715 10.1539C18.4768 10.1589 18.3822 10.1418 18.2964 10.1041ZM10.2802 5.40961C10.1951 5.66315 10.0935 5.92175 9.97557 6.18544H10.2802C10.2661 5.92699 10.2661 5.66805 10.2802 5.40961Z" fill="white"/>
<path d="M21.3071 6.69659L20.4259 5.60131C20.3389 5.49049 20.2251 5.40024 20.0937 5.33787C19.9622 5.2755 19.8168 5.24276 19.6691 5.2423H18.5226C18.4995 5.2423 18.4766 5.23803 18.4553 5.22974C18.4341 5.22144 18.4148 5.20929 18.3986 5.194C18.3824 5.1787 18.3697 5.16056 18.3612 5.14065C18.3527 5.12073 18.3485 5.09943 18.3489 5.078L18.3784 3.99793C18.3949 3.87567 18.3837 3.75157 18.3458 3.63352C18.3078 3.51546 18.2438 3.40604 18.1579 3.31219C18.0719 3.21834 17.9659 3.14212 17.8465 3.08838C17.7271 3.03463 17.597 3.00453 17.4644 3H7.69566C7.45935 3.00572 7.23396 3.09362 7.0641 3.24631C6.89424 3.39899 6.79228 3.60534 6.77841 3.82451L6.72272 4.4117H5.3239C5.24138 4.41146 5.16179 4.44015 5.10105 4.49204C5.04032 4.54394 5.00291 4.61521 4.99631 4.69161C4.99631 4.7723 5.03083 4.84969 5.09226 4.90675C5.1537 4.9638 5.23702 4.99586 5.3239 4.99586H6.63427L6.55892 5.80819H4.5213C4.43878 5.80795 4.35919 5.83664 4.29846 5.88854C4.23772 5.94043 4.20031 6.0117 4.19371 6.0881C4.19371 6.16879 4.22823 6.24618 4.28966 6.30324C4.3511 6.36029 4.43442 6.39235 4.5213 6.39235H6.51961L6.4672 7.25945H3.7187C3.63618 7.2592 3.55659 7.2879 3.49586 7.33979C3.43512 7.39169 3.39772 7.46296 3.39111 7.53936C3.39111 7.62005 3.42563 7.69743 3.48706 7.75449C3.5485 7.81155 3.63182 7.8436 3.7187 7.8436H6.38857L6.26409 9.18533C6.25867 9.22963 6.26291 9.27449 6.27658 9.31722C6.29025 9.35996 6.31305 9.3997 6.34364 9.43407C6.37422 9.46843 6.41194 9.49672 6.45456 9.51723C6.49718 9.53775 6.54382 9.55007 6.59168 9.55347H7.93153C7.97523 9.55372 8.01749 9.53894 8.05015 9.51197C8.08281 9.48501 8.10357 9.44777 8.10843 9.40743C8.16642 9.01479 8.37555 8.65493 8.69715 8.39442C9.01874 8.13392 9.43104 7.99039 9.85777 7.99039C10.2845 7.99039 10.6968 8.13392 11.0184 8.39442C11.34 8.65493 11.5491 9.01479 11.6071 9.40743C11.6126 9.44751 11.6336 9.48437 11.6661 9.51121C11.6986 9.53805 11.7405 9.55306 11.784 9.55347H16.6324C16.6761 9.55372 16.7183 9.53894 16.751 9.51197C16.7836 9.48501 16.8044 9.44777 16.8093 9.40743C16.8672 9.01479 17.0764 8.65493 17.398 8.39442C17.7196 8.13392 18.1319 7.99039 18.5586 7.99039C18.9853 7.99039 19.3976 8.13392 19.7192 8.39442C20.0408 8.65493 20.2499 9.01479 20.3079 9.40743C20.3135 9.44751 20.3344 9.48437 20.3669 9.51121C20.3995 9.53805 20.4413 9.55306 20.4848 9.55347H21.2579C21.2941 9.55229 21.3296 9.54451 21.3625 9.53056C21.3954 9.51662 21.4251 9.49679 21.4497 9.47221C21.4743 9.44762 21.4935 9.41877 21.5062 9.38729C21.5188 9.35582 21.5246 9.32234 21.5233 9.28877V7.30204C21.5235 7.08384 21.4477 6.87142 21.3071 6.69659ZM8.70792 6.82134H8.26567L8.6293 4.99586H9.53345L9.45483 5.38833H8.9962L8.93068 5.72301H9.33362L9.25827 6.10331H8.85861L8.70792 6.82134ZM10.3131 6.82134V6.51709H9.84139L9.7038 6.82134H9.23534L10.1231 4.99586H10.6243L10.7816 6.82134H10.3131ZM12.1607 5.43397C12.0716 5.37641 11.9676 5.34177 11.8594 5.33357C11.8104 5.33158 11.7622 5.34439 11.7218 5.37008C11.7035 5.38226 11.688 5.39767 11.6762 5.41542C11.6644 5.43317 11.6565 5.45292 11.653 5.47352C11.6377 5.5506 11.6945 5.6368 11.8233 5.73213C11.9115 5.80017 11.9868 5.8814 12.0461 5.97249C12.1172 6.07861 12.1408 6.20641 12.1116 6.32846C12.0817 6.48414 11.9906 6.62399 11.8561 6.72093C11.7389 6.80711 11.5972 6.85987 11.4484 6.87283C11.2996 6.88579 11.1499 6.85839 11.0174 6.79395L11.1026 6.36801C11.198 6.4343 11.3115 6.47436 11.4302 6.48362C11.4811 6.48527 11.531 6.47019 11.5711 6.44103C11.6097 6.41213 11.6354 6.37092 11.6431 6.32541C11.6506 6.28986 11.6436 6.25299 11.6235 6.22197C11.5927 6.17851 11.5552 6.13954 11.5121 6.10636C11.4009 6.02167 11.3075 5.9185 11.2369 5.80211C11.1882 5.70748 11.1733 5.6009 11.1943 5.49786C11.2218 5.34668 11.3066 5.20961 11.4335 5.11147C11.5568 5.01193 11.7157 4.95876 11.879 4.96239C12.0038 4.96223 12.1269 4.98823 12.2394 5.03845L12.1607 5.43397ZM13.5301 5.41876H13.2221L12.9404 6.83046H12.4883L12.7701 5.41876H12.4621L12.544 5.00194H13.612L13.5301 5.41876ZM15.4956 6.0668C15.4608 6.36232 15.364 6.64863 15.2106 6.90957C15.0551 7.17272 14.8459 7.40523 14.5947 7.59412C14.5369 7.6376 14.4703 7.66995 14.3989 7.68928C14.3275 7.70861 14.2526 7.71453 14.1787 7.70669H14.1394C14.0353 7.68768 13.9391 7.64177 13.8618 7.57422C13.7846 7.50668 13.7295 7.42026 13.7028 7.3249C13.6761 7.22954 13.6789 7.12912 13.7109 7.03519C13.743 6.94127 13.8029 6.85764 13.8839 6.79395L13.9199 6.76961C14.0696 6.67481 14.1977 6.55342 14.2966 6.41243C14.3956 6.27144 14.4635 6.11364 14.4965 5.94815C14.5546 5.5987 14.473 5.24158 14.2671 4.94413C14.0946 4.67593 13.848 4.45537 13.553 4.30522C12.9994 4.0305 12.3535 3.96301 11.748 4.11658C11.9774 3.94372 12.2412 3.81449 12.5244 3.73628C12.8121 3.65723 13.1137 3.63138 13.4121 3.66021C13.714 3.69064 14.0067 3.77538 14.2737 3.9097C14.5432 4.0473 14.7813 4.23227 14.9747 4.4543C15.169 4.67183 15.3168 4.9217 15.4104 5.19057C15.5025 5.47112 15.5348 5.76566 15.5054 6.05768L15.4956 6.0668ZM20.5929 7.03735H18.6176C18.5802 7.03735 18.5444 7.02357 18.518 6.99903C18.4915 6.9745 18.4767 6.94122 18.4767 6.90652V6.01204C18.4767 5.96605 18.4964 5.92194 18.5314 5.88941C18.5664 5.85689 18.6139 5.83862 18.6634 5.83862H19.6691C19.6984 5.8385 19.7273 5.84477 19.7535 5.85693C19.7796 5.86908 19.8024 5.88678 19.8198 5.9086L20.6519 6.9552C20.6549 6.963 20.656 6.97134 20.6551 6.97959C20.6541 6.98783 20.6512 6.99577 20.6464 7.0028C20.6417 7.00983 20.6353 7.01577 20.6277 7.02018C20.6202 7.02458 20.6116 7.02733 20.6028 7.02822L20.5929 7.03735Z" fill="white"/>
<path d="M3.48224 20V17.0909H5.35298V17.5327H4.00923V18.2145H4.57031C4.79285 18.2145 4.98366 18.2509 5.14276 18.3239C5.30279 18.3958 5.42543 18.4976 5.51065 18.6293C5.59588 18.7609 5.63849 18.9157 5.63849 19.0938C5.63849 19.2727 5.59588 19.4304 5.51065 19.5668C5.42543 19.7022 5.30279 19.8082 5.14276 19.8849C4.98366 19.9616 4.79285 20 4.57031 20H3.48224ZM4.00923 19.5682H4.57031C4.68774 19.5682 4.78717 19.5459 4.86861 19.5014C4.95005 19.4569 5.0116 19.3982 5.05327 19.3253C5.09588 19.2524 5.11719 19.1733 5.11719 19.0881C5.11719 18.965 5.06984 18.8603 4.97514 18.7741C4.88139 18.687 4.74645 18.6435 4.57031 18.6435H4.00923V19.5682ZM6.45597 18.2145H7.1946C7.41714 18.2145 7.60795 18.2509 7.76705 18.3239C7.92708 18.3958 8.04972 18.4976 8.13494 18.6293C8.22017 18.7609 8.26278 18.9157 8.26278 19.0938C8.26278 19.2727 8.22017 19.4304 8.13494 19.5668C8.04972 19.7022 7.92708 19.8082 7.76705 19.8849C7.60795 19.9616 7.41714 20 7.1946 20H6.10511V17.0909H6.63352V19.5682H7.1946C7.31203 19.5682 7.41146 19.5459 7.4929 19.5014C7.57434 19.4569 7.63589 19.3982 7.67756 19.3253C7.72017 19.2524 7.74148 19.1733 7.74148 19.0881C7.74148 18.965 7.69413 18.8603 7.59943 18.7741C7.50568 18.687 7.37074 18.6435 7.1946 18.6435H6.45597V18.2145ZM9.04261 17.0909V20H8.5142V17.0909H9.04261ZM12.1051 18.0724H11.5739C11.5587 17.9853 11.5308 17.9081 11.4901 17.8409C11.4493 17.7727 11.3987 17.715 11.3381 17.6676C11.2775 17.6203 11.2083 17.5848 11.1307 17.5611C11.054 17.5365 10.9711 17.5241 10.8821 17.5241C10.724 17.5241 10.5838 17.5639 10.4616 17.6435C10.3395 17.7221 10.2438 17.8376 10.1747 17.9901C10.1056 18.1416 10.071 18.3267 10.071 18.5455C10.071 18.768 10.1056 18.9555 10.1747 19.108C10.2448 19.2595 10.3404 19.3741 10.4616 19.4517C10.5838 19.5284 10.7235 19.5668 10.8807 19.5668C10.9678 19.5668 11.0492 19.5554 11.125 19.5327C11.2017 19.509 11.2704 19.4744 11.331 19.429C11.3925 19.3835 11.4441 19.3277 11.4858 19.2614C11.5284 19.1951 11.5578 19.1193 11.5739 19.0341L12.1051 19.0369C12.0852 19.1752 12.0421 19.3049 11.9759 19.4261C11.9105 19.5473 11.8248 19.6544 11.7188 19.7472C11.6127 19.839 11.4886 19.911 11.3466 19.9631C11.2045 20.0142 11.0469 20.0398 10.8736 20.0398C10.6179 20.0398 10.3897 19.9806 10.1889 19.8622C9.98816 19.7438 9.83002 19.5729 9.71449 19.3494C9.59896 19.1259 9.54119 18.858 9.54119 18.5455C9.54119 18.232 9.59943 17.964 9.71591 17.7415C9.83239 17.518 9.991 17.3471 10.1918 17.2287C10.3925 17.1103 10.6198 17.0511 10.8736 17.0511C11.0355 17.0511 11.1861 17.0739 11.3253 17.1193C11.4645 17.1648 11.5885 17.2315 11.6974 17.3196C11.8063 17.4067 11.8958 17.5137 11.9659 17.6406C12.0369 17.7666 12.0833 17.9105 12.1051 18.0724ZM12.4599 17.5327V17.0909H14.7809V17.5327H13.8817V20H13.359V17.5327H12.4599ZM15.2283 20V17.0909H16.3192C16.5427 17.0909 16.7302 17.1326 16.8817 17.2159C17.0342 17.2992 17.1493 17.4138 17.2269 17.5597C17.3055 17.7045 17.3448 17.8693 17.3448 18.054C17.3448 18.2405 17.3055 18.4062 17.2269 18.5511C17.1483 18.696 17.0323 18.8101 16.8789 18.8935C16.7255 18.9759 16.5366 19.017 16.3121 19.017H15.5891V18.5838H16.2411C16.3718 18.5838 16.4788 18.5611 16.5621 18.5156C16.6455 18.4702 16.707 18.4077 16.7468 18.3281C16.7875 18.2486 16.8079 18.1572 16.8079 18.054C16.8079 17.9508 16.7875 17.8598 16.7468 17.7812C16.707 17.7027 16.645 17.6416 16.5607 17.598C16.4774 17.5535 16.3699 17.5312 16.2383 17.5312H15.7553V20H15.2283ZM17.8519 20H17.2894L18.3136 17.0909H18.9641L19.9897 20H19.4272L18.6502 17.6875H18.6275L17.8519 20ZM17.8704 18.8594H19.4045V19.2827H17.8704V18.8594ZM22.5206 20H21.9922V17.5312H21.5092C21.3786 17.5312 21.2711 17.5507 21.1868 17.5895C21.1035 17.6274 21.0414 17.6832 21.0007 17.7571C20.9609 17.83 20.9411 17.9181 20.9411 18.0213C20.9411 18.1245 20.9609 18.2116 21.0007 18.2827C21.0405 18.3527 21.102 18.4062 21.1854 18.4432C21.2696 18.4792 21.3767 18.4972 21.5064 18.4972H22.2138V18.9347H21.4354C21.2119 18.9347 21.0234 18.8977 20.87 18.8239C20.7166 18.7491 20.6001 18.6435 20.5206 18.5071C20.442 18.3698 20.4027 18.2079 20.4027 18.0213C20.4027 17.8357 20.4415 17.6733 20.5192 17.5341C20.5978 17.3939 20.7133 17.285 20.8658 17.2074C21.0182 17.1297 21.2057 17.0909 21.4283 17.0909H22.5206V20ZM21.0163 18.6818H21.5916L20.8842 20H20.2962L21.0163 18.6818ZM1.78161 25.7017V24.5696H1.97621C2.04155 24.5175 2.10263 24.4441 2.15945 24.3494C2.21626 24.2547 2.26456 24.125 2.30433 23.9602C2.34411 23.7955 2.37157 23.5824 2.38672 23.321L2.46342 22.0909H4.3228V24.5696H4.64666V25.6989H4.14098V25H2.28729V25.7017H1.78161ZM2.58984 24.5696H3.81712V22.5327H2.93786L2.8924 23.321C2.88009 23.5189 2.8602 23.696 2.83274 23.8523C2.80528 24.0085 2.77072 24.1463 2.72905 24.2656C2.68738 24.384 2.64098 24.4853 2.58984 24.5696ZM7.67543 23.5455C7.67543 23.8589 7.61671 24.1274 7.49929 24.3509C7.38281 24.5734 7.22372 24.7438 7.02202 24.8622C6.82126 24.9806 6.59351 25.0398 6.33878 25.0398C6.08404 25.0398 5.85582 24.9806 5.65412 24.8622C5.45336 24.7429 5.29427 24.572 5.17685 24.3494C5.06037 24.1259 5.00213 23.858 5.00213 23.5455C5.00213 23.232 5.06037 22.964 5.17685 22.7415C5.29427 22.518 5.45336 22.3471 5.65412 22.2287C5.85582 22.1103 6.08404 22.0511 6.33878 22.0511C6.59351 22.0511 6.82126 22.1103 7.02202 22.2287C7.22372 22.3471 7.38281 22.518 7.49929 22.7415C7.61671 22.964 7.67543 23.232 7.67543 23.5455ZM7.1456 23.5455C7.1456 23.3248 7.11103 23.1387 7.0419 22.9872C6.97372 22.8348 6.87902 22.7197 6.75781 22.642C6.6366 22.5634 6.49692 22.5241 6.33878 22.5241C6.18063 22.5241 6.04096 22.5634 5.91974 22.642C5.79853 22.7197 5.70336 22.8348 5.63423 22.9872C5.56605 23.1387 5.53196 23.3248 5.53196 23.5455C5.53196 23.7661 5.56605 23.9527 5.63423 24.1051C5.70336 24.2566 5.79853 24.3717 5.91974 24.4503C6.04096 24.5279 6.18063 24.5668 6.33878 24.5668C6.49692 24.5668 6.6366 24.5279 6.75781 24.4503C6.87902 24.3717 6.97372 24.2566 7.0419 24.1051C7.11103 23.9527 7.1456 23.7661 7.1456 23.5455ZM10.6637 23.0724H10.1325C10.1173 22.9853 10.0894 22.9081 10.0487 22.8409C10.0079 22.7727 9.95727 22.715 9.89666 22.6676C9.83606 22.6203 9.76693 22.5848 9.68928 22.5611C9.61257 22.5365 9.52971 22.5241 9.4407 22.5241C9.28255 22.5241 9.1424 22.5639 9.02024 22.6435C8.89808 22.7221 8.80244 22.8376 8.73331 22.9901C8.66418 23.1416 8.62962 23.3267 8.62962 23.5455C8.62962 23.768 8.66418 23.9555 8.73331 24.108C8.80339 24.2595 8.89903 24.3741 9.02024 24.4517C9.1424 24.5284 9.28208 24.5668 9.43928 24.5668C9.5264 24.5668 9.60784 24.5554 9.68359 24.5327C9.7603 24.509 9.82895 24.4744 9.88956 24.429C9.95111 24.3835 10.0027 24.3277 10.0444 24.2614C10.087 24.1951 10.1164 24.1193 10.1325 24.0341L10.6637 24.0369C10.6438 24.1752 10.6007 24.3049 10.5344 24.4261C10.4691 24.5473 10.3834 24.6544 10.2773 24.7472C10.1713 24.839 10.0472 24.911 9.90518 24.9631C9.76314 25.0142 9.60547 25.0398 9.43217 25.0398C9.17649 25.0398 8.94827 24.9806 8.74751 24.8622C8.54676 24.7438 8.38861 24.5729 8.27308 24.3494C8.15755 24.1259 8.09979 23.858 8.09979 23.5455C8.09979 23.232 8.15803 22.964 8.2745 22.7415C8.39098 22.518 8.5496 22.3471 8.75036 22.2287C8.95111 22.1103 9.17839 22.0511 9.43217 22.0511C9.59411 22.0511 9.74467 22.0739 9.88388 22.1193C10.0231 22.1648 10.1471 22.2315 10.256 22.3196C10.3649 22.4067 10.4544 22.5137 10.5245 22.6406C10.5955 22.7666 10.6419 22.9105 10.6637 23.0724ZM11.0185 22.5327V22.0909H13.3395V22.5327H12.4403V25H11.9176V22.5327H11.0185ZM13.8089 25H13.2464L14.2706 22.0909H14.9212L15.9467 25H15.3842L14.6072 22.6875H14.5845L13.8089 25ZM13.8274 23.8594H15.3615V24.2827H13.8274V23.8594ZM16.3299 25V22.0909H17.4435C17.6538 22.0909 17.8285 22.1241 17.9677 22.1903C18.1078 22.2557 18.2125 22.3452 18.2816 22.4588C18.3517 22.5724 18.3867 22.7012 18.3867 22.8452C18.3867 22.9635 18.364 23.0649 18.3185 23.1491C18.2731 23.2325 18.212 23.3002 18.1353 23.3523C18.0586 23.4044 17.9729 23.4418 17.8782 23.4645V23.4929C17.9814 23.4986 18.0804 23.5303 18.1751 23.5881C18.2707 23.6449 18.3488 23.7254 18.4094 23.8295C18.4701 23.9337 18.5004 24.0597 18.5004 24.2074C18.5004 24.358 18.4639 24.4934 18.391 24.6136C18.3181 24.733 18.2082 24.8272 18.0614 24.8963C17.9147 24.9654 17.73 25 17.5075 25H16.3299ZM16.8569 24.5597H17.4237C17.6149 24.5597 17.7527 24.5232 17.837 24.4503C17.9222 24.3764 17.9648 24.2817 17.9648 24.1662C17.9648 24.08 17.9435 24.0024 17.9009 23.9332C17.8583 23.8632 17.7977 23.8082 17.7191 23.7685C17.6405 23.7277 17.5468 23.7074 17.4379 23.7074H16.8569V24.5597ZM16.8569 23.3281H17.3782C17.4691 23.3281 17.551 23.3116 17.6239 23.2784C17.6969 23.2443 17.7541 23.1965 17.7958 23.1349C17.8384 23.0724 17.8597 22.9986 17.8597 22.9134C17.8597 22.8007 17.82 22.7079 17.7404 22.6349C17.6618 22.562 17.5449 22.5256 17.3896 22.5256H16.8569V23.3281ZM20.7017 25L19.7443 23.7287H19.4858V25H18.9588V22.0909H19.4858V23.2869H19.6179L20.652 22.0909H21.3011L20.152 23.4176L21.3509 25H20.7017ZM22.0824 25H21.5199L22.544 22.0909H23.1946L24.2202 25H23.6577L22.8807 22.6875H22.858L22.0824 25ZM22.1009 23.8594H23.6349V24.2827H22.1009V23.8594Z" fill="white"/>
</svg>
