<svg width="26" height="30" viewBox="0 0 26 30" fill="none" xmlns="http://www.w3.org/2000/svg">
<rect width="26" height="30" rx="2" fill="#8F8F8F"/>
<path fill-rule="evenodd" clip-rule="evenodd" d="M13.2953 5.39044L14.2473 5.75035L10.2107 7.27763C10.2067 7.27912 10.2028 7.28072 10.199 7.28244L9.24619 6.92185L13.2953 5.39044ZM14.7416 5.93769L15.8972 6.3746L11.7852 7.93041C11.7472 7.94485 11.7154 7.96964 11.6945 8.00117C11.6735 8.0327 11.6645 8.06933 11.6686 8.10572C11.668 8.11235 11.6677 8.11901 11.6679 8.12566V9.96472L11.2466 9.40544C11.2204 9.37063 11.1807 9.34549 11.135 9.33473C11.0892 9.32397 11.0407 9.32833 10.9983 9.347L10.5021 9.56632V7.54163L14.7416 5.93769ZM16.3915 6.56125L17.3447 6.92185L13.2953 8.45325L12.3428 8.09335L16.3803 6.56607C16.3842 6.56458 16.3881 6.56297 16.3919 6.56125H16.3915ZM8.94775 7.18241L10.1135 7.62344V9.84441C10.1135 9.87372 10.122 9.90254 10.1381 9.92814C10.1543 9.95373 10.1775 9.97525 10.2057 9.99065C10.2339 10.006 10.2661 10.0148 10.2992 10.0161C10.3323 10.0174 10.3652 10.0112 10.3949 9.99807L11.0181 9.72203L11.6896 10.613C11.7017 10.6335 11.7182 10.6515 11.7383 10.6662C11.7584 10.6808 11.7816 10.6917 11.8066 10.6983L11.8074 10.699C11.8425 10.708 11.8798 10.708 11.915 10.699C11.9601 10.688 11.9991 10.663 12.025 10.6286C12.0509 10.5942 12.062 10.5526 12.0561 10.5116V8.35941L13.101 8.75403V13.537L8.94814 11.966L8.94775 7.18241ZM17.6424 7.1831V11.966L13.4892 13.5377V8.75403L17.6424 7.1831ZM15.2032 11.1335L15.2009 11.1342C15.1767 11.1352 15.153 11.1402 15.1309 11.1489L13.9982 11.5773C13.7596 11.6673 13.9123 11.9836 14.1505 11.8935L15.2844 11.4652C15.4896 11.394 15.4236 11.1232 15.2032 11.1335ZM16.334 11.3913C16.3103 11.3924 16.2869 11.3975 16.2652 11.4061L15.1313 11.8344L13.9982 12.2634C13.7596 12.3534 13.9127 12.6697 14.1505 12.5796L15.2844 12.1506L16.4176 11.7216C16.6181 11.6474 16.5512 11.3827 16.334 11.3913Z" fill="white"/>
<path d="M7.20006 21V18.0909H9.0708V18.5327H7.72705V19.2145H8.28813C8.51066 19.2145 8.70148 19.2509 8.86057 19.3239C9.02061 19.3958 9.14324 19.4976 9.22847 19.6293C9.31369 19.7609 9.35631 19.9157 9.35631 20.0938C9.35631 20.2727 9.31369 20.4304 9.22847 20.5668C9.14324 20.7022 9.02061 20.8082 8.86057 20.8849C8.70148 20.9616 8.51066 21 8.28813 21H7.20006ZM7.72705 20.5682H8.28813C8.40555 20.5682 8.50498 20.5459 8.58642 20.5014C8.66786 20.4569 8.72941 20.3982 8.77108 20.3253C8.81369 20.2524 8.835 20.1733 8.835 20.0881C8.835 19.965 8.78765 19.8603 8.69295 19.7741C8.5992 19.687 8.46426 19.6435 8.28813 19.6435H7.72705V20.5682ZM9.81724 21V18.0909H11.7093V18.5327H10.3442V19.3224H11.6113V19.7642H10.3442V20.5582H11.7207V21H9.81724ZM14.737 19.0724H14.2057C14.1906 18.9853 14.1627 18.9081 14.1219 18.8409C14.0812 18.7727 14.0305 18.715 13.9699 18.6676C13.9093 18.6203 13.8402 18.5848 13.7626 18.5611C13.6859 18.5365 13.603 18.5241 13.514 18.5241C13.3558 18.5241 13.2157 18.5639 13.0935 18.6435C12.9714 18.7221 12.8757 18.8376 12.8066 18.9901C12.7375 19.1416 12.7029 19.3267 12.7029 19.5455C12.7029 19.768 12.7375 19.9555 12.8066 20.108C12.8767 20.2595 12.9723 20.3741 13.0935 20.4517C13.2157 20.5284 13.3554 20.5668 13.5126 20.5668C13.5997 20.5668 13.6811 20.5554 13.7569 20.5327C13.8336 20.509 13.9022 20.4744 13.9628 20.429C14.0244 20.3835 14.076 20.3277 14.1177 20.2614C14.1603 20.1951 14.1896 20.1193 14.2057 20.0341L14.737 20.0369C14.7171 20.1752 14.674 20.3049 14.6077 20.4261C14.5424 20.5473 14.4567 20.6544 14.3506 20.7472C14.2446 20.839 14.1205 20.911 13.9785 20.9631C13.8364 21.0142 13.6788 21.0398 13.5055 21.0398C13.2498 21.0398 13.0216 20.9806 12.8208 20.8622C12.62 20.7438 12.4619 20.5729 12.3464 20.3494C12.2308 20.1259 12.1731 19.858 12.1731 19.5455C12.1731 19.232 12.2313 18.964 12.3478 18.7415C12.4643 18.518 12.6229 18.3471 12.8236 18.2287C13.0244 18.1103 13.2517 18.0511 13.5055 18.0511C13.6674 18.0511 13.818 18.0739 13.9572 18.1193C14.0964 18.1648 14.2204 18.2315 14.3293 18.3196C14.4382 18.4067 14.5277 18.5137 14.5978 18.6406C14.6688 18.7666 14.7152 18.9105 14.737 19.0724ZM17.5932 18.0909V21H17.0704V18.5284H15.7977V21H15.275V18.0909H17.5932ZM18.5175 21.0312C18.4314 21.0312 18.3575 21.0009 18.2959 20.9403C18.2344 20.8797 18.2041 20.8059 18.205 20.7188C18.2041 20.6335 18.2344 20.5606 18.2959 20.5C18.3575 20.4394 18.4314 20.4091 18.5175 20.4091C18.6009 20.4091 18.6733 20.4394 18.7349 20.5C18.7974 20.5606 18.8291 20.6335 18.83 20.7188C18.8291 20.7765 18.8139 20.8291 18.7846 20.8764C18.7562 20.9238 18.7183 20.9616 18.6709 20.9901C18.6245 21.0175 18.5734 21.0312 18.5175 21.0312ZM1.74161 26.7017V25.5696H1.93621C2.00155 25.5175 2.06263 25.4441 2.11945 25.3494C2.17626 25.2547 2.22456 25.125 2.26433 24.9602C2.30411 24.7955 2.33157 24.5824 2.34672 24.321L2.42342 23.0909H4.2828V25.5696H4.60666V26.6989H4.10098V26H2.24729V26.7017H1.74161ZM2.54984 25.5696H3.77712V23.5327H2.89786L2.8524 24.321C2.84009 24.5189 2.8202 24.696 2.79274 24.8523C2.76528 25.0085 2.73072 25.1463 2.68905 25.2656C2.64738 25.384 2.60098 25.4853 2.54984 25.5696ZM7.63543 24.5455C7.63543 24.8589 7.57671 25.1274 7.45929 25.3509C7.34281 25.5734 7.18372 25.7438 6.98202 25.8622C6.78126 25.9806 6.55351 26.0398 6.29878 26.0398C6.04404 26.0398 5.81582 25.9806 5.61412 25.8622C5.41336 25.7429 5.25427 25.572 5.13685 25.3494C5.02037 25.1259 4.96213 24.858 4.96213 24.5455C4.96213 24.232 5.02037 23.964 5.13685 23.7415C5.25427 23.518 5.41336 23.3471 5.61412 23.2287C5.81582 23.1103 6.04404 23.0511 6.29878 23.0511C6.55351 23.0511 6.78126 23.1103 6.98202 23.2287C7.18372 23.3471 7.34281 23.518 7.45929 23.7415C7.57671 23.964 7.63543 24.232 7.63543 24.5455ZM7.1056 24.5455C7.1056 24.3248 7.07103 24.1387 7.0019 23.9872C6.93372 23.8348 6.83902 23.7197 6.71781 23.642C6.5966 23.5634 6.45692 23.5241 6.29878 23.5241C6.14063 23.5241 6.00096 23.5634 5.87974 23.642C5.75853 23.7197 5.66336 23.8348 5.59423 23.9872C5.52605 24.1387 5.49196 24.3248 5.49196 24.5455C5.49196 24.7661 5.52605 24.9527 5.59423 25.1051C5.66336 25.2566 5.75853 25.3717 5.87974 25.4503C6.00096 25.5279 6.14063 25.5668 6.29878 25.5668C6.45692 25.5668 6.5966 25.5279 6.71781 25.4503C6.83902 25.3717 6.93372 25.2566 7.0019 25.1051C7.07103 24.9527 7.1056 24.7661 7.1056 24.5455ZM10.6237 24.0724H10.0925C10.0773 23.9853 10.0494 23.9081 10.0087 23.8409C9.96793 23.7727 9.91727 23.715 9.85666 23.6676C9.79606 23.6203 9.72693 23.5848 9.64928 23.5611C9.57257 23.5365 9.48971 23.5241 9.4007 23.5241C9.24255 23.5241 9.1024 23.5639 8.98024 23.6435C8.85808 23.7221 8.76244 23.8376 8.69331 23.9901C8.62418 24.1416 8.58962 24.3267 8.58962 24.5455C8.58962 24.768 8.62418 24.9555 8.69331 25.108C8.76339 25.2595 8.85903 25.3741 8.98024 25.4517C9.1024 25.5284 9.24208 25.5668 9.39928 25.5668C9.4864 25.5668 9.56784 25.5554 9.64359 25.5327C9.7203 25.509 9.78895 25.4744 9.84956 25.429C9.91111 25.3835 9.96272 25.3277 10.0044 25.2614C10.047 25.1951 10.0764 25.1193 10.0925 25.0341L10.6237 25.0369C10.6038 25.1752 10.5607 25.3049 10.4944 25.4261C10.4291 25.5473 10.3434 25.6544 10.2373 25.7472C10.1313 25.839 10.0072 25.911 9.86518 25.9631C9.72314 26.0142 9.56547 26.0398 9.39217 26.0398C9.13649 26.0398 8.90827 25.9806 8.70751 25.8622C8.50676 25.7438 8.34861 25.5729 8.23308 25.3494C8.11755 25.1259 8.05979 24.858 8.05979 24.5455C8.05979 24.232 8.11803 23.964 8.2345 23.7415C8.35098 23.518 8.5096 23.3471 8.71036 23.2287C8.91111 23.1103 9.13839 23.0511 9.39217 23.0511C9.55411 23.0511 9.70467 23.0739 9.84388 23.1193C9.98308 23.1648 10.1071 23.2315 10.216 23.3196C10.3249 23.4067 10.4144 23.5137 10.4845 23.6406C10.5555 23.7666 10.6019 23.9105 10.6237 24.0724ZM10.9785 23.5327V23.0909H13.2995V23.5327H12.4003V26H11.8776V23.5327H10.9785ZM13.7689 26H13.2064L14.2306 23.0909H14.8812L15.9067 26H15.3442L14.5672 23.6875H14.5445L13.7689 26ZM13.7874 24.8594H15.3215V25.2827H13.7874V24.8594ZM16.2899 26V23.0909H17.4035C17.6138 23.0909 17.7885 23.1241 17.9277 23.1903C18.0678 23.2557 18.1725 23.3452 18.2416 23.4588C18.3117 23.5724 18.3467 23.7012 18.3467 23.8452C18.3467 23.9635 18.324 24.0649 18.2785 24.1491C18.2331 24.2325 18.172 24.3002 18.0953 24.3523C18.0186 24.4044 17.9329 24.4418 17.8382 24.4645V24.4929C17.9414 24.4986 18.0404 24.5303 18.1351 24.5881C18.2307 24.6449 18.3088 24.7254 18.3694 24.8295C18.4301 24.9337 18.4604 25.0597 18.4604 25.2074C18.4604 25.358 18.4239 25.4934 18.351 25.6136C18.2781 25.733 18.1682 25.8272 18.0214 25.8963C17.8747 25.9654 17.69 26 17.4675 26H16.2899ZM16.8169 25.5597H17.3837C17.5749 25.5597 17.7127 25.5232 17.797 25.4503C17.8822 25.3764 17.9248 25.2817 17.9248 25.1662C17.9248 25.08 17.9035 25.0024 17.8609 24.9332C17.8183 24.8632 17.7577 24.8082 17.6791 24.7685C17.6005 24.7277 17.5068 24.7074 17.3979 24.7074H16.8169V25.5597ZM16.8169 24.3281H17.3382C17.4291 24.3281 17.511 24.3116 17.5839 24.2784C17.6569 24.2443 17.7141 24.1965 17.7558 24.1349C17.7984 24.0724 17.8197 23.9986 17.8197 23.9134C17.8197 23.8007 17.78 23.7079 17.7004 23.6349C17.6218 23.562 17.5049 23.5256 17.3496 23.5256H16.8169V24.3281ZM20.6617 26L19.7043 24.7287H19.4458V26H18.9188V23.0909H19.4458V24.2869H19.5779L20.612 23.0909H21.2611L20.112 24.4176L21.3109 26H20.6617ZM22.0424 26H21.4799L22.504 23.0909H23.1546L24.1802 26H23.6177L22.8407 23.6875H22.818L22.0424 26ZM22.0609 24.8594H23.5949V25.2827H22.0609V24.8594Z" fill="white"/>
</svg>
