<svg width="23" height="30" viewBox="0 0 23 30" fill="none" xmlns="http://www.w3.org/2000/svg">
<rect width="23" height="30" rx="2" fill="#2F9B08"/>
<path d="M7.68179 5.15733L8.58414 6.96202C8.63427 7.01215 8.6844 7.06228 8.78466 7.11241L10.7397 7.41319C10.9403 7.46332 11.0405 7.71397 10.8901 7.86437L9.48648 9.26801C9.43635 9.31814 9.38622 9.4184 9.43635 9.46853L9.78726 11.4236C9.83739 11.6241 9.58674 11.7745 9.43635 11.6743L7.68179 10.7719C7.63166 10.7218 7.5314 10.7218 7.43114 10.7719L5.67658 11.6743C5.47606 11.7745 5.27554 11.6241 5.32567 11.4236L5.67658 9.46853C5.67658 9.36827 5.67658 9.31814 5.62645 9.26801L4.07241 7.7641C3.92202 7.61371 4.02228 7.36306 4.2228 7.36306L6.17788 7.06228C6.27814 7.06228 6.32827 7.01215 6.3784 6.91189L7.28075 5.1072C7.33088 4.95681 7.63166 4.95681 7.68179 5.15733Z" fill="url(#paint0_linear_691_6993)"/>
<path d="M16.0104 5.15733L16.9127 6.96202C16.9629 7.01215 17.013 7.06228 17.1133 7.11241L19.0684 7.41319C19.2689 7.46332 19.3691 7.71397 19.2187 7.86437L17.8151 9.26801C17.765 9.31814 17.7148 9.4184 17.765 9.46853L18.1159 11.4236C18.166 11.6241 17.9154 11.7745 17.765 11.6743L16.0104 10.7719C15.9603 10.7218 15.86 10.7218 15.7598 10.7719L14.0052 11.6743C13.8047 11.7745 13.6042 11.6241 13.6543 11.4236L14.0052 9.46853C14.0052 9.36827 14.0052 9.31814 13.9551 9.26801L12.401 7.7641C12.2506 7.61371 12.3509 7.36306 12.5514 7.36306L14.5065 7.06228C14.6068 7.06228 14.6569 7.01215 14.707 6.91189L15.6094 5.1072C15.6595 4.95681 15.9603 4.95681 16.0104 5.15733Z" fill="url(#paint1_linear_691_6993)"/>
<path d="M3.91442 20H3.35192L4.37607 17.0909H5.02663L6.0522 20H5.4897L4.71271 17.6875H4.68999L3.91442 20ZM3.93288 18.8594H5.46697V19.2827H3.93288V18.8594ZM6.43537 17.0909H7.08026L7.94389 19.1989H7.97798L8.84162 17.0909H9.48651V20H8.98082V18.0014H8.95384L8.14986 19.9915H7.77202L6.96804 17.9972H6.94105V20H6.43537V17.0909ZM10.4339 20H9.87145L10.8956 17.0909H11.5462L12.5717 20H12.0092L11.2322 17.6875H11.2095L10.4339 20ZM10.4524 18.8594H11.9865V19.2827H10.4524V18.8594ZM12.4755 17.5327V17.0909H14.7965V17.5327H13.8974V20H13.3746V17.5327H12.4755ZM15.244 20V17.0909H15.771V19.5582H17.0522V20H15.244ZM17.0178 17.0909H17.6129L18.3246 18.3778H18.353L19.0646 17.0909H19.6598L18.6016 18.9148V20H18.076V18.9148L17.0178 17.0909ZM8.07582 23.5455C8.07582 23.8589 8.0171 24.1274 7.89968 24.3509C7.7832 24.5734 7.62411 24.7438 7.42241 24.8622C7.22165 24.9806 6.9939 25.0398 6.73917 25.0398C6.48443 25.0398 6.25621 24.9806 6.05451 24.8622C5.85375 24.7429 5.69466 24.572 5.57724 24.3494C5.46076 24.1259 5.40252 23.858 5.40252 23.5455C5.40252 23.232 5.46076 22.964 5.57724 22.7415C5.69466 22.518 5.85375 22.3471 6.05451 22.2287C6.25621 22.1103 6.48443 22.0511 6.73917 22.0511C6.9939 22.0511 7.22165 22.1103 7.42241 22.2287C7.62411 22.3471 7.7832 22.518 7.89968 22.7415C8.0171 22.964 8.07582 23.232 8.07582 23.5455ZM7.54599 23.5455C7.54599 23.3248 7.51142 23.1387 7.44229 22.9872C7.37411 22.8348 7.27942 22.7197 7.1582 22.642C7.03699 22.5634 6.89731 22.5241 6.73917 22.5241C6.58103 22.5241 6.44135 22.5634 6.32013 22.642C6.19892 22.7197 6.10375 22.8348 6.03462 22.9872C5.96644 23.1387 5.93235 23.3248 5.93235 23.5455C5.93235 23.7661 5.96644 23.9527 6.03462 24.1051C6.10375 24.2566 6.19892 24.3717 6.32013 24.4503C6.44135 24.5279 6.58103 24.5668 6.73917 24.5668C6.89731 24.5668 7.03699 24.5279 7.1582 24.4503C7.27942 24.3717 7.37411 24.2566 7.44229 24.1051C7.51142 23.9527 7.54599 23.7661 7.54599 23.5455ZM6.31445 21.7699C6.23964 21.7699 6.17478 21.7434 6.11985 21.6903C6.06587 21.6373 6.03888 21.5748 6.03888 21.5028C6.03888 21.4271 6.06587 21.3636 6.11985 21.3125C6.17478 21.2604 6.23964 21.2344 6.31445 21.2344C6.39116 21.2344 6.45555 21.2604 6.50763 21.3125C6.56067 21.3636 6.58718 21.4271 6.58718 21.5028C6.58718 21.5748 6.56067 21.6373 6.50763 21.6903C6.45555 21.7434 6.39116 21.7699 6.31445 21.7699ZM7.16673 21.7699C7.09192 21.7699 7.02705 21.7434 6.97212 21.6903C6.91815 21.6373 6.89116 21.5748 6.89116 21.5028C6.89116 21.4271 6.91815 21.3636 6.97212 21.3125C7.02705 21.2604 7.09192 21.2344 7.16673 21.2344C7.24343 21.2344 7.30782 21.2604 7.35991 21.3125C7.41294 21.3636 7.43945 21.4271 7.43945 21.5028C7.43945 21.5748 7.41294 21.6373 7.35991 21.6903C7.30782 21.7434 7.24343 21.7699 7.16673 21.7699ZM10.9647 22.0909V25H10.4959L9.12518 23.0185H9.10103V25H8.57404V22.0909H9.04563L10.415 24.0739H10.4405V22.0909H10.9647ZM13.3727 22.0909H13.8997V23.9915C13.8997 24.1998 13.8504 24.383 13.752 24.5412C13.6544 24.6993 13.5171 24.8229 13.34 24.9119C13.1629 25 12.956 25.044 12.7193 25.044C12.4816 25.044 12.2742 25 12.0971 24.9119C11.92 24.8229 11.7827 24.6993 11.6852 24.5412C11.5877 24.383 11.5389 24.1998 11.5389 23.9915V22.0909H12.0659V23.9474C12.0659 24.0687 12.0924 24.1766 12.1454 24.2713C12.1994 24.366 12.2752 24.4403 12.3727 24.4943C12.4702 24.5473 12.5858 24.5739 12.7193 24.5739C12.8528 24.5739 12.9683 24.5473 13.0659 24.4943C13.1644 24.4403 13.2401 24.366 13.2931 24.2713C13.3462 24.1766 13.3727 24.0687 13.3727 23.9474V22.0909ZM12.2946 21.7699C12.2198 21.7699 12.1549 21.7434 12.1 21.6903C12.046 21.6373 12.019 21.5748 12.019 21.5028C12.019 21.4271 12.046 21.3636 12.1 21.3125C12.1549 21.2604 12.2198 21.2344 12.2946 21.2344C12.3713 21.2344 12.4357 21.2604 12.4877 21.3125C12.5408 21.3636 12.5673 21.4271 12.5673 21.5028C12.5673 21.5748 12.5408 21.6373 12.4877 21.6903C12.4357 21.7434 12.3713 21.7699 12.2946 21.7699ZM13.1468 21.7699C13.072 21.7699 13.0072 21.7434 12.9522 21.6903C12.8983 21.6373 12.8713 21.5748 12.8713 21.5028C12.8713 21.4271 12.8983 21.3636 12.9522 21.3125C13.0072 21.2604 13.072 21.2344 13.1468 21.2344C13.2235 21.2344 13.2879 21.2604 13.34 21.3125C13.3931 21.3636 13.4196 21.4271 13.4196 21.5028C13.4196 21.5748 13.3931 21.6373 13.34 21.6903C13.2879 21.7434 13.2235 21.7699 13.1468 21.7699ZM14.4725 22.0909H15.1174L15.981 24.1989H16.0151L16.8787 22.0909H17.5236V25H17.0179V23.0014H16.9909L16.187 24.9915H15.8091L15.0051 22.9972H14.9782V25H14.4725V22.0909Z" fill="white"/>
<defs>
<linearGradient id="paint0_linear_691_6993" x1="4.00373" y1="8.31554" x2="10.9588" y2="8.31554" gradientUnits="userSpaceOnUse">
<stop stop-color="#FFC600"/>
<stop offset="1" stop-color="#FFC777"/>
</linearGradient>
<linearGradient id="paint1_linear_691_6993" x1="12.3323" y1="8.31554" x2="19.2874" y2="8.31554" gradientUnits="userSpaceOnUse">
<stop stop-color="#FFC600"/>
<stop offset="1" stop-color="#FFC777"/>
</linearGradient>
</defs>
</svg>
