<svg width="38" height="38" viewBox="0 0 38 38" fill="none" xmlns="http://www.w3.org/2000/svg">
<rect width="37.0286" height="37.0286" rx="18.5143" fill="#C01B15"/>
<path d="M8.52308 8.90909V14H7.60085V9.80646H7.57102L6.38033 10.5671V9.72195L7.6456 8.90909H8.52308ZM12.6607 14.0771C12.4187 14.0771 12.2008 14.034 12.0069 13.9478C11.8147 13.86 11.6622 13.7307 11.5495 13.56C11.4385 13.3893 11.383 13.1789 11.383 12.9286C11.383 12.7132 11.4228 12.535 11.5023 12.3942C11.5819 12.2533 11.6904 12.1406 11.8279 12.0561C11.9655 11.9716 12.1204 11.9078 12.2928 11.8647C12.4668 11.82 12.6466 11.7876 12.8322 11.7678C13.0559 11.7446 13.2374 11.7238 13.3766 11.7056C13.5158 11.6857 13.6169 11.6559 13.6799 11.6161C13.7445 11.5747 13.7768 11.5109 13.7768 11.4247V11.4098C13.7768 11.2225 13.7213 11.0775 13.6103 10.9748C13.4992 10.872 13.3393 10.8207 13.1305 10.8207C12.9101 10.8207 12.7353 10.8687 12.606 10.9648C12.4784 11.061 12.3922 11.1745 12.3475 11.3054L11.5073 11.1861C11.5736 10.9541 11.6829 10.7602 11.8354 10.6044C11.9879 10.447 12.1743 10.3293 12.3947 10.2514C12.6151 10.1719 12.8587 10.1321 13.1255 10.1321C13.3095 10.1321 13.4926 10.1536 13.6749 10.1967C13.8572 10.2398 14.0237 10.3111 14.1745 10.4105C14.3253 10.5083 14.4463 10.6417 14.5375 10.8107C14.6303 10.9798 14.6767 11.1911 14.6767 11.4446V14H13.8116V13.4755H13.7818C13.7271 13.5816 13.65 13.681 13.5506 13.7738C13.4528 13.8649 13.3294 13.9387 13.1802 13.995C13.0327 14.0497 12.8596 14.0771 12.6607 14.0771ZM12.8944 13.4158C13.075 13.4158 13.2316 13.3802 13.3642 13.3089C13.4967 13.236 13.5987 13.1399 13.6699 13.0206C13.7428 12.9013 13.7793 12.7712 13.7793 12.6303V12.1804C13.7511 12.2036 13.7031 12.2251 13.6351 12.245C13.5688 12.2649 13.4943 12.2823 13.4114 12.2972C13.3285 12.3121 13.2465 12.3254 13.1653 12.337C13.0841 12.3486 13.0137 12.3585 12.954 12.3668C12.8198 12.3851 12.6996 12.4149 12.5936 12.4563C12.4875 12.4978 12.4038 12.5558 12.3425 12.6303C12.2812 12.7032 12.2505 12.7977 12.2505 12.9137C12.2505 13.0794 12.311 13.2045 12.432 13.2891C12.553 13.3736 12.7071 13.4158 12.8944 13.4158ZM16.4814 8.90909V14H15.5815V8.90909H16.4814ZM18.5054 14.0771C18.2635 14.0771 18.0455 14.034 17.8517 13.9478C17.6594 13.86 17.507 13.7307 17.3943 13.56C17.2832 13.3893 17.2277 13.1789 17.2277 12.9286C17.2277 12.7132 17.2675 12.535 17.347 12.3942C17.4266 12.2533 17.5351 12.1406 17.6727 12.0561C17.8102 11.9716 17.9652 11.9078 18.1375 11.8647C18.3115 11.82 18.4913 11.7876 18.6769 11.7678C18.9007 11.7446 19.0821 11.7238 19.2213 11.7056C19.3605 11.6857 19.4616 11.6559 19.5246 11.6161C19.5892 11.5747 19.6215 11.5109 19.6215 11.4247V11.4098C19.6215 11.2225 19.566 11.0775 19.455 10.9748C19.344 10.872 19.184 10.8207 18.9752 10.8207C18.7548 10.8207 18.58 10.8687 18.4507 10.9648C18.3231 11.061 18.2369 11.1745 18.1922 11.3054L17.352 11.1861C17.4183 10.9541 17.5277 10.7602 17.6801 10.6044C17.8326 10.447 18.019 10.3293 18.2394 10.2514C18.4598 10.1719 18.7035 10.1321 18.9703 10.1321C19.1542 10.1321 19.3373 10.1536 19.5196 10.1967C19.7019 10.2398 19.8685 10.3111 20.0193 10.4105C20.1701 10.5083 20.291 10.6417 20.3822 10.8107C20.475 10.9798 20.5214 11.1911 20.5214 11.4446V14H19.6563V13.4755H19.6265C19.5718 13.5816 19.4948 13.681 19.3953 13.7738C19.2976 13.8649 19.1741 13.9387 19.0249 13.995C18.8775 14.0497 18.7043 14.0771 18.5054 14.0771ZM18.7391 13.4158C18.9197 13.4158 19.0763 13.3802 19.2089 13.3089C19.3415 13.236 19.4434 13.1399 19.5146 13.0206C19.5876 12.9013 19.624 12.7712 19.624 12.6303V12.1804C19.5959 12.2036 19.5478 12.2251 19.4798 12.245C19.4136 12.2649 19.339 12.2823 19.2561 12.2972C19.1733 12.3121 19.0912 12.3254 19.01 12.337C18.9288 12.3486 18.8584 12.3585 18.7987 12.3668C18.6645 12.3851 18.5444 12.4149 18.4383 12.4563C18.3322 12.4978 18.2486 12.5558 18.1872 12.6303C18.1259 12.7032 18.0953 12.7977 18.0953 12.9137C18.0953 13.0794 18.1557 13.2045 18.2767 13.2891C18.3977 13.3736 18.5518 13.4158 18.7391 13.4158ZM22.3261 11.7628V14H21.4262V10.1818H22.2863V10.8306H22.3311C22.4189 10.6168 22.5589 10.447 22.7512 10.321C22.945 10.1951 23.1845 10.1321 23.4695 10.1321C23.733 10.1321 23.9626 10.1884 24.1581 10.3011C24.3553 10.4138 24.5078 10.5771 24.6155 10.7908C24.7249 11.0046 24.7787 11.264 24.7771 11.5689V14H23.8772V11.7081C23.8772 11.4529 23.8109 11.2532 23.6784 11.109C23.5474 10.9648 23.366 10.8928 23.134 10.8928C22.9765 10.8928 22.8365 10.9276 22.7139 10.9972C22.5929 11.0651 22.4976 11.1637 22.428 11.293C22.3601 11.4222 22.3261 11.5788 22.3261 11.7628ZM26.7906 14.0771C26.5486 14.0771 26.3307 14.034 26.1368 13.9478C25.9446 13.86 25.7921 13.7307 25.6794 13.56C25.5684 13.3893 25.5129 13.1789 25.5129 12.9286C25.5129 12.7132 25.5526 12.535 25.6322 12.3942C25.7117 12.2533 25.8203 12.1406 25.9578 12.0561C26.0954 11.9716 26.2503 11.9078 26.4227 11.8647C26.5967 11.82 26.7765 11.7876 26.9621 11.7678C27.1858 11.7446 27.3673 11.7238 27.5065 11.7056C27.6457 11.6857 27.7468 11.6559 27.8097 11.6161C27.8744 11.5747 27.9067 11.5109 27.9067 11.4247V11.4098C27.9067 11.2225 27.8512 11.0775 27.7401 10.9748C27.6291 10.872 27.4692 10.8207 27.2604 10.8207C27.04 10.8207 26.8651 10.8687 26.7359 10.9648C26.6083 11.061 26.5221 11.1745 26.4774 11.3054L25.6372 11.1861C25.7035 10.9541 25.8128 10.7602 25.9653 10.6044C26.1177 10.447 26.3042 10.3293 26.5246 10.2514C26.745 10.1719 26.9886 10.1321 27.2554 10.1321C27.4394 10.1321 27.6225 10.1536 27.8048 10.1967C27.9871 10.2398 28.1536 10.3111 28.3044 10.4105C28.4552 10.5083 28.5762 10.6417 28.6673 10.8107C28.7602 10.9798 28.8066 11.1911 28.8066 11.4446V14H27.9415V13.4755H27.9117C27.857 13.5816 27.7799 13.681 27.6805 13.7738C27.5827 13.8649 27.4593 13.9387 27.3101 13.995C27.1626 14.0497 26.9894 14.0771 26.7906 14.0771ZM27.0242 13.4158C27.2049 13.4158 27.3615 13.3802 27.4941 13.3089C27.6266 13.236 27.7285 13.1399 27.7998 13.0206C27.8727 12.9013 27.9092 12.7712 27.9092 12.6303V12.1804C27.881 12.2036 27.8329 12.2251 27.765 12.245C27.6987 12.2649 27.6241 12.2823 27.5413 12.2972C27.4584 12.3121 27.3764 12.3254 27.2952 12.337C27.214 12.3486 27.1436 12.3585 27.0839 12.3668C26.9497 12.3851 26.8295 12.4149 26.7235 12.4563C26.6174 12.4978 26.5337 12.5558 26.4724 12.6303C26.4111 12.7032 26.3804 12.7977 26.3804 12.9137C26.3804 13.0794 26.4409 13.2045 26.5619 13.2891C26.6829 13.3736 26.837 13.4158 27.0242 13.4158Z" fill="white"/>
<path d="M8.52308 22.9091V28H7.60085V23.8065H7.57102L6.38033 24.5671V23.7219L7.6456 22.9091H8.52308ZM11.562 28V24.1818H12.4221V24.8306H12.4668C12.5463 24.6119 12.6781 24.4412 12.862 24.3185C13.046 24.1942 13.2656 24.1321 13.5208 24.1321C13.7793 24.1321 13.9972 24.1951 14.1745 24.321C14.3535 24.4453 14.4795 24.6152 14.5524 24.8306H14.5922C14.6767 24.6185 14.8192 24.4495 15.0197 24.3235C15.2219 24.1959 15.4614 24.1321 15.7381 24.1321C16.0894 24.1321 16.3761 24.2431 16.5982 24.4652C16.8203 24.6873 16.9313 25.0112 16.9313 25.4371V28H16.0289V25.5763C16.0289 25.3394 15.966 25.1662 15.84 25.0568C15.7141 24.9458 15.56 24.8903 15.3777 24.8903C15.1606 24.8903 14.9907 24.9582 14.8681 25.0941C14.7471 25.2283 14.6866 25.4032 14.6866 25.6186V28H13.8042V25.5391C13.8042 25.3419 13.7445 25.1844 13.6252 25.0668C13.5075 24.9491 13.3534 24.8903 13.1628 24.8903C13.0336 24.8903 12.9159 24.9234 12.8098 24.9897C12.7038 25.0543 12.6193 25.1463 12.5563 25.2656C12.4933 25.3833 12.4618 25.5208 12.4618 25.6783V28H11.562ZM20.2778 26.3942V24.1818H21.1776V28H20.3051V27.3214H20.2654C20.1792 27.5352 20.0375 27.71 19.8403 27.8459C19.6447 27.9818 19.4036 28.0497 19.1169 28.0497C18.8667 28.0497 18.6454 27.9942 18.4532 27.8832C18.2626 27.7705 18.1135 27.6072 18.0058 27.3935C17.8981 27.178 17.8442 26.9179 17.8442 26.6129V24.1818H18.7441V26.4737C18.7441 26.7157 18.8103 26.9079 18.9429 27.0504C19.0755 27.1929 19.2495 27.2642 19.4649 27.2642C19.5975 27.2642 19.7259 27.2319 19.8502 27.1673C19.9745 27.1026 20.0764 27.0065 20.156 26.8789C20.2372 26.7496 20.2778 26.5881 20.2778 26.3942ZM23.7635 29.5114C23.4403 29.5114 23.1628 29.4674 22.9308 29.3796C22.6987 29.2934 22.5123 29.1774 22.3714 29.0316C22.2306 28.8858 22.1328 28.7242 22.0781 28.5469L22.8885 28.3505C22.925 28.4251 22.978 28.4988 23.0476 28.5717C23.1172 28.6463 23.2108 28.7076 23.3285 28.7557C23.4478 28.8054 23.5978 28.8303 23.7784 28.8303C24.0336 28.8303 24.2449 28.7681 24.4123 28.6438C24.5797 28.5212 24.6634 28.319 24.6634 28.0373V27.3139H24.6186C24.5722 27.4067 24.5043 27.502 24.4148 27.5998C24.3269 27.6976 24.2101 27.7796 24.0643 27.8459C23.9201 27.9122 23.7386 27.9453 23.5199 27.9453C23.2266 27.9453 22.9606 27.8765 22.7219 27.739C22.485 27.5998 22.296 27.3926 22.1552 27.1175C22.016 26.8408 21.9464 26.4944 21.9464 26.0785C21.9464 25.6592 22.016 25.3054 22.1552 25.017C22.296 24.727 22.4858 24.5075 22.7244 24.3583C22.9631 24.2075 23.229 24.1321 23.5224 24.1321C23.7461 24.1321 23.93 24.1702 24.0742 24.2464C24.2201 24.321 24.3361 24.4113 24.4222 24.5174C24.5084 24.6218 24.5739 24.7204 24.6186 24.8132H24.6683V24.1818H25.5558V28.0621C25.5558 28.3886 25.4779 28.6587 25.3221 28.8725C25.1663 29.0863 24.9534 29.2462 24.6832 29.3523C24.4131 29.4583 24.1065 29.5114 23.7635 29.5114ZM23.771 27.2393C23.9615 27.2393 24.1239 27.1929 24.2582 27.1001C24.3924 27.0073 24.4943 26.8739 24.5639 26.6999C24.6335 26.5259 24.6683 26.3171 24.6683 26.0735C24.6683 25.8332 24.6335 25.6228 24.5639 25.4421C24.496 25.2615 24.3949 25.1214 24.2607 25.022C24.1281 24.9209 23.9648 24.8704 23.771 24.8704C23.5704 24.8704 23.4031 24.9226 23.2688 25.027C23.1346 25.1314 23.0335 25.2747 22.9656 25.457C22.8976 25.6377 22.8636 25.8432 22.8636 26.0735C22.8636 26.3072 22.8976 26.5118 22.9656 26.6875C23.0352 26.8615 23.1371 26.9974 23.2713 27.0952C23.4072 27.1913 23.5737 27.2393 23.771 27.2393ZM28.3846 24.1818V24.8778H26.1896V24.1818H28.3846ZM26.7315 23.267H27.6314V26.8516C27.6314 26.9725 27.6496 27.0653 27.6861 27.13C27.7242 27.1929 27.7739 27.236 27.8352 27.2592C27.8965 27.2824 27.9645 27.294 28.0391 27.294C28.0954 27.294 28.1468 27.2899 28.1932 27.2816C28.2412 27.2733 28.2777 27.2659 28.3026 27.2592L28.4542 27.9627C28.4061 27.9793 28.3374 27.9975 28.2479 28.0174C28.16 28.0373 28.0523 28.0489 27.9247 28.0522C27.6993 28.0588 27.4963 28.0249 27.3157 27.9503C27.1351 27.8741 26.9917 27.7564 26.8857 27.5973C26.7813 27.4382 26.7299 27.2393 26.7315 27.0007V23.267Z" fill="white"/>
<path d="M6 18L30 18" stroke="white" stroke-linecap="round"/>
</svg>
