<svg width="111" height="116" viewBox="0 0 111 116" fill="none" xmlns="http://www.w3.org/2000/svg">
<path fill-rule="evenodd" clip-rule="evenodd" d="M55.5714 105.95C80.6646 105.95 101.007 85.608 101.007 60.5147C101.007 35.4215 80.6646 15.0793 55.5714 15.0793C30.4781 15.0793 10.136 35.4215 10.136 60.5147C10.136 85.608 30.4781 105.95 55.5714 105.95Z" stroke="#C01C15" stroke-width="0.305962" stroke-dasharray="1.84 1.84"/>
<path fill-rule="evenodd" clip-rule="evenodd" d="M55.5715 115.588C85.9876 115.588 110.645 90.9308 110.645 60.5147C110.645 30.0986 85.9876 5.44153 55.5715 5.44153C25.1554 5.44153 0.498291 30.0986 0.498291 60.5147C0.498291 90.9308 25.1554 115.588 55.5715 115.588Z" stroke="#C01C15" stroke-width="0.305962" stroke-dasharray="1.84 1.84"/>
<path d="M92.4307 78.0602C92.4322 71.6482 87.554 66.2884 81.1702 65.6881C74.7865 65.0878 68.9945 69.4442 67.8007 75.744L29.6182 74.7083L30.0373 81.2682C30.0373 81.2682 24.5927 93.831 53.2078 97.1782V109.876H86.2885V88.7642C90.0897 86.5384 92.4271 82.4651 92.4307 78.0602Z" fill="url(#paint0_linear_1282_4592)"/>
<path d="M31.3486 81.5436C31.3486 81.5436 26.135 93.574 53.5385 96.7835V108.949H85.2194V76.7323L30.9417 75.2606L31.3486 81.5436Z" fill="#FFCBB4"/>
<path d="M47.1821 31.3397C45.4624 34.0533 41.8741 34.8688 39.1506 33.1648L22.1406 21.9559C19.427 20.2362 18.6116 16.6479 20.3155 13.9244C22.035 11.2145 25.6187 10.3995 28.3409 12.0993L45.3509 23.3082C48.0667 25.0259 48.8849 28.6146 47.1821 31.3397Z" fill="url(#paint1_linear_1282_4592)"/>
<path d="M46.2396 30.7278C44.6411 33.2502 41.3057 34.0081 38.7741 32.4244L22.9574 21.9972C20.435 20.3987 19.677 17.0633 21.2608 14.5317C22.8593 12.0093 26.1947 11.2514 28.7263 12.8351L44.5399 23.2562C47.0671 24.8539 47.8269 28.1941 46.2396 30.7278Z" fill="#FFCBB4"/>
<path d="M79.2054 90.3675C85.7762 90.3675 91.1028 85.0409 91.1028 78.4702C91.1028 71.8994 85.7762 66.5728 79.2054 66.5728C72.6347 66.5728 67.3081 71.8994 67.3081 78.4702C67.3081 85.0409 72.6347 90.3675 79.2054 90.3675Z" fill="#FFCBB4"/>
<path d="M77.0639 0H31.4878C30.4528 0 29.6138 0.839027 29.6138 1.87402V87.1549C29.6138 88.1899 30.4528 89.0289 31.4878 89.0289H77.0639C78.0989 89.0289 78.9379 88.1899 78.9379 87.1549V1.87402C78.9379 0.839027 78.0989 0 77.0639 0Z" fill="url(#paint2_linear_1282_4592)"/>
<path d="M76.1826 1.20398H32.3657C31.2133 1.20398 30.2791 2.13821 30.2791 3.29064V85.7413C30.2791 86.8938 31.2133 87.828 32.3657 87.828H76.1826C77.335 87.828 78.2692 86.8938 78.2692 85.7413V3.29064C78.2692 2.13821 77.335 1.20398 76.1826 1.20398Z" fill="white"/>
<path d="M66.3307 3.37628C66.0439 5.27448 64.4152 6.67964 62.4955 6.68526H45.9215C44.0024 6.67889 42.3746 5.27391 42.0878 3.37628H33.3067C32.8232 3.37628 32.3594 3.56766 32.0173 3.90939C31.6753 4.25113 31.4832 4.7148 31.4832 5.19829V83.8306C31.4832 84.3141 31.6745 84.7779 32.0163 85.1199C32.358 85.4619 32.8217 85.6541 33.3052 85.6541H75.2434C75.7269 85.6541 76.1907 85.4627 76.5327 85.121C76.8748 84.7793 77.0669 84.3156 77.0669 83.8321V5.19982C77.0669 4.71633 76.8756 4.2525 76.5338 3.91048C76.1921 3.56845 75.7284 3.37628 75.2449 3.37628H66.3307Z" fill="#E9ECFF"/>
<path d="M59.3838 4.41199H49.3008C49.1319 4.41199 48.9949 4.54897 48.9949 4.71795V4.77455C48.9949 4.94353 49.1319 5.08051 49.3008 5.08051H59.3838C59.5528 5.08051 59.6898 4.94353 59.6898 4.77455V4.71795C59.6898 4.54897 59.5528 4.41199 59.3838 4.41199Z" fill="#DBDBDB"/>
<path d="M61.9615 5.17807C62.2368 5.17807 62.4599 4.95493 62.4599 4.67967C62.4599 4.40442 62.2368 4.18127 61.9615 4.18127C61.6863 4.18127 61.4631 4.40442 61.4631 4.67967C61.4631 4.95493 61.6863 5.17807 61.9615 5.17807Z" fill="#DBDBDB"/>
<path d="M86.8959 80.569C83.4432 81.3676 81.0735 79.1157 80.2749 75.6644L72.3413 46.2049C71.5519 42.7402 73.7081 39.2883 77.1679 38.4778C80.6325 37.6884 84.0844 39.8446 84.8949 43.3043L91.3691 73.5242C92.1677 76.977 90.3472 79.7705 86.8959 80.569Z" fill="url(#paint3_linear_1282_4592)"/>
<path d="M84.0047 44.0255C83.3316 41.1122 80.4242 39.2962 77.5109 39.9693C74.5975 40.6424 72.7815 43.5498 73.4546 46.4631L80.7499 78.0373C81.423 80.9506 84.3304 82.7666 87.2438 82.0935C90.1571 81.4204 91.9731 78.513 91.3 75.5997L84.0047 44.0255Z" fill="#FFCBB4"/>
<path d="M91.0524 104.968H45.77V115.524H91.0524V104.968Z" fill="url(#paint4_linear_1282_4592)"/>
<path d="M89.8286 106.192H46.9939V114.453H89.8286V106.192Z" fill="#4D8AF0"/>
<path d="M40.5793 62.9425C38.8806 65.6239 35.3351 66.4298 32.6442 64.7462L21.2364 57.3648C18.5551 55.6661 17.7492 52.1206 19.4328 49.4297C21.1315 46.7484 24.677 45.9425 27.3679 47.6261L38.7757 55.0074C41.457 56.7062 42.2629 60.2516 40.5793 62.9425Z" fill="url(#paint5_linear_1282_4592)"/>
<path d="M37.7155 78.5665C36.0016 81.2724 32.4239 82.0859 29.7085 80.387L22.6423 75.2346C19.9363 73.5207 19.1229 69.9429 20.8218 67.2275C22.5357 64.5216 26.1134 63.7082 28.8288 65.4071L35.895 70.561C38.6 72.2749 39.4134 75.8514 37.7155 78.5665Z" fill="url(#paint6_linear_1282_4592)"/>
<g opacity="0.5">
<path d="M54.2743 58.2751C61.8732 58.2751 68.0334 52.1149 68.0334 44.516C68.0334 36.917 61.8732 30.7568 54.2743 30.7568C46.6753 30.7568 40.5151 36.917 40.5151 44.516C40.5151 52.1149 46.6753 58.2751 54.2743 58.2751Z" fill="url(#paint7_linear_1282_4592)"/>
</g>
<path d="M54.2743 57.4658C61.4263 57.4658 67.2242 51.668 67.2242 44.516C67.2242 37.3639 61.4263 31.5661 54.2743 31.5661C47.1223 31.5661 41.3245 37.3639 41.3245 44.516C41.3245 51.668 47.1223 57.4658 54.2743 57.4658Z" fill="#C01C15"/>
<path d="M48.6536 42.7873L53.5092 47.239L60.3888 37.1224L62.8181 39.1463L53.5092 51.2869L46.6296 43.5981L48.6536 42.7873Z" fill="white"/>
<path d="M37.1449 78.1825C35.5464 80.7049 32.211 81.4628 29.6794 79.8791L23.0889 75.0816C20.5666 73.4831 19.8086 70.1477 21.3924 67.6161C22.9909 65.0938 26.3263 64.3358 28.8579 65.9195L35.4468 70.7262C37.9641 72.3238 38.7221 75.6524 37.1449 78.1825Z" fill="#FFCBB4"/>
<path d="M39.9521 62.5372C38.3537 65.0595 35.0183 65.8175 32.4867 64.2337L21.7535 57.2884C19.2312 55.6899 18.4732 52.3545 20.0569 49.8229C21.6554 47.3005 24.9908 46.5426 27.5224 48.1263L38.2556 55.0717C40.7779 56.6702 41.5359 60.0056 39.9521 62.5372Z" fill="#FFCBB4"/>
<path d="M43.5289 47.392C41.8217 50.0852 38.2603 50.8944 35.557 49.2033L21.1003 39.7904C18.4072 38.0833 17.598 34.5218 19.289 31.8186C20.9962 29.1255 24.5576 28.3163 27.2609 30.0073L41.7176 39.4202C44.4107 41.1273 45.2199 44.6888 43.5289 47.392Z" fill="url(#paint8_linear_1282_4592)"/>
<path d="M42.7608 46.9025C41.1623 49.4249 37.8269 50.1828 35.2953 48.5991L21.755 39.7828C19.2326 38.1843 18.4746 34.8489 20.0584 32.3173C21.6569 29.7949 24.9923 29.0369 27.5239 30.6207L41.0627 39.437C43.5856 41.035 44.3443 44.3705 42.7608 46.9025Z" fill="#FFCBB4"/>
<defs>
<linearGradient id="paint0_linear_1282_4592" x1="61.0267" y1="109.883" x2="61.0267" y2="65.635" gradientUnits="userSpaceOnUse">
<stop stop-color="#808080" stop-opacity="0.25"/>
<stop offset="0.54" stop-color="#808080" stop-opacity="0.12"/>
<stop offset="1" stop-color="#808080" stop-opacity="0.1"/>
</linearGradient>
<linearGradient id="paint1_linear_1282_4592" x1="33.7473" y1="34.0567" x2="33.7473" y2="11.2105" gradientUnits="userSpaceOnUse">
<stop stop-color="#808080" stop-opacity="0.25"/>
<stop offset="0.54" stop-color="#808080" stop-opacity="0.12"/>
<stop offset="1" stop-color="#808080" stop-opacity="0.1"/>
</linearGradient>
<linearGradient id="paint2_linear_1282_4592" x1="54.2759" y1="89.0274" x2="54.2759" y2="-0.00152828" gradientUnits="userSpaceOnUse">
<stop stop-color="#808080" stop-opacity="0.25"/>
<stop offset="0.54" stop-color="#808080" stop-opacity="0.12"/>
<stop offset="1" stop-color="#808080" stop-opacity="0.1"/>
</linearGradient>
<linearGradient id="paint3_linear_1282_4592" x1="81.8659" y1="80.7281" x2="81.8659" y2="38.3126" gradientUnits="userSpaceOnUse">
<stop stop-color="#808080" stop-opacity="0.25"/>
<stop offset="0.54" stop-color="#808080" stop-opacity="0.12"/>
<stop offset="1" stop-color="#808080" stop-opacity="0.1"/>
</linearGradient>
<linearGradient id="paint4_linear_1282_4592" x1="68.4143" y1="115.521" x2="68.4143" y2="104.965" gradientUnits="userSpaceOnUse">
<stop stop-color="#808080" stop-opacity="0.25"/>
<stop offset="0.54" stop-color="#808080" stop-opacity="0.12"/>
<stop offset="1" stop-color="#808080" stop-opacity="0.1"/>
</linearGradient>
<linearGradient id="paint5_linear_1282_4592" x1="30.0038" y1="65.6258" x2="30.0038" y2="46.7479" gradientUnits="userSpaceOnUse">
<stop stop-color="#808080" stop-opacity="0.25"/>
<stop offset="0.54" stop-color="#808080" stop-opacity="0.12"/>
<stop offset="1" stop-color="#808080" stop-opacity="0.1"/>
</linearGradient>
<linearGradient id="paint6_linear_1282_4592" x1="29.2694" y1="81.2743" x2="29.2694" y2="64.5182" gradientUnits="userSpaceOnUse">
<stop stop-color="#808080" stop-opacity="0.25"/>
<stop offset="0.54" stop-color="#808080" stop-opacity="0.12"/>
<stop offset="1" stop-color="#808080" stop-opacity="0.1"/>
</linearGradient>
<linearGradient id="paint7_linear_1282_4592" x1="54.2743" y1="58.2751" x2="54.2743" y2="30.7553" gradientUnits="userSpaceOnUse">
<stop stop-color="#808080" stop-opacity="0.25"/>
<stop offset="0.54" stop-color="#808080" stop-opacity="0.12"/>
<stop offset="1" stop-color="#808080" stop-opacity="0.1"/>
</linearGradient>
<linearGradient id="paint8_linear_1282_4592" x1="31.4082" y1="50.0922" x2="31.4082" y2="29.1292" gradientUnits="userSpaceOnUse">
<stop stop-color="#808080" stop-opacity="0.25"/>
<stop offset="0.54" stop-color="#808080" stop-opacity="0.12"/>
<stop offset="1" stop-color="#808080" stop-opacity="0.1"/>
</linearGradient>
</defs>
</svg>
