<svg width="101" height="72" viewBox="0 0 101 72" fill="none" xmlns="http://www.w3.org/2000/svg">
<path opacity="0.4" d="M95.9176 32.3169C96.1916 32.582 96.6264 32.582 96.9004 32.3169C97.095 32.1288 97.3798 32.0682 97.6341 32.161C97.9922 32.2917 98.3894 32.1148 98.5319 31.7613C98.6331 31.5103 98.8687 31.3391 99.1387 31.3204C99.519 31.2941 99.8099 30.971 99.7963 30.59C99.7867 30.3196 99.9323 30.0673 100.171 29.9405C100.508 29.7618 100.642 29.3483 100.475 29.0058C100.356 28.7626 100.387 28.473 100.553 28.2598C100.788 27.9596 100.743 27.5272 100.451 27.2824C100.243 27.1086 100.153 26.8316 100.219 26.5691C100.311 26.1993 100.094 25.8227 99.7276 25.718C99.4673 25.6436 99.2725 25.4271 99.2257 25.1606C99.1598 24.7851 98.808 24.5295 98.4306 24.5829C98.1626 24.6208 97.8965 24.5023 97.7454 24.2778C97.5325 23.9616 97.1072 23.8712 96.7841 24.0735C96.5547 24.2171 96.2634 24.2171 96.034 24.0735C95.7109 23.8712 95.2856 23.9616 95.0727 24.2778C94.9215 24.5023 94.6554 24.6208 94.3875 24.5829C94.01 24.5295 93.6583 24.7851 93.5924 25.1606C93.5456 25.4271 93.3507 25.6436 93.0905 25.718C92.724 25.8227 92.5066 26.1993 92.5991 26.5691C92.6648 26.8316 92.5748 27.1086 92.3673 27.2824C92.0751 27.5272 92.0297 27.9596 92.2646 28.2598C92.4314 28.473 92.4618 28.7626 92.343 29.0058C92.1756 29.3483 92.31 29.7618 92.6467 29.9405C92.8857 30.0673 93.0314 30.3196 93.0217 30.59C93.0081 30.971 93.299 31.2941 93.6793 31.3204C93.9493 31.3391 94.185 31.5103 94.2861 31.7613C94.4287 32.1148 94.8259 32.2917 95.184 32.161C95.4382 32.0682 95.7231 32.1288 95.9176 32.3169Z" fill="#C01C15"/>
<path opacity="0.4" d="M4.09951 15.9208C4.37351 16.1858 4.80831 16.1858 5.0823 15.9208C5.27684 15.7327 5.56173 15.6721 5.81597 15.7649C6.17407 15.8955 6.57128 15.7187 6.71379 15.3651C6.81498 15.1141 7.05061 14.9429 7.3206 14.9243C7.70089 14.898 7.99182 14.5749 7.97822 14.1939C7.96856 13.9235 8.11419 13.6712 8.35325 13.5443C8.68996 13.3657 8.82432 12.9521 8.65694 12.6097C8.53811 12.3665 8.56856 12.0768 8.73535 11.8637C8.97027 11.5635 8.92482 11.1311 8.63262 10.8863C8.42516 10.7125 8.33516 10.4355 8.40084 10.173C8.49335 9.80316 8.27595 9.42662 7.90944 9.32184C7.64923 9.24745 7.45434 9.031 7.40756 8.76444C7.34166 8.38898 6.9899 8.13342 6.61246 8.18677C6.34449 8.22465 6.07841 8.10618 5.92725 7.88169C5.71434 7.5655 5.28905 7.4751 4.96594 7.67736C4.73654 7.82096 4.44528 7.82096 4.21588 7.67736C3.89277 7.4751 3.46748 7.5655 3.25457 7.88169C3.10341 8.10618 2.83733 8.22465 2.56936 8.18677C2.19191 8.13342 1.84016 8.38898 1.77426 8.76444C1.72748 9.031 1.53259 9.24745 1.27238 9.32184C0.905864 9.42662 0.688468 9.80316 0.780981 10.173C0.846663 10.4355 0.75666 10.7125 0.549201 10.8863C0.256994 11.1311 0.211545 11.5635 0.446471 11.8637C0.613262 12.0768 0.643707 12.3665 0.524874 12.6097C0.357496 12.9521 0.491855 13.3657 0.828573 13.5443C1.06763 13.6712 1.21326 13.9235 1.2036 14.1939C1.18999 14.5749 1.48093 14.898 1.86122 14.9243C2.13121 14.9429 2.36684 15.1141 2.46802 15.3651C2.61054 15.7187 3.00775 15.8955 3.36585 15.7649C3.62009 15.6721 3.90498 15.7327 4.09951 15.9208Z" fill="#C01C15"/>
<path d="M47.6468 15.0894C49.4278 13.3668 52.254 13.3668 54.035 15.0894C55.2994 16.3124 57.1512 16.706 58.8038 16.103C61.1315 15.2537 63.7133 16.4032 64.6397 18.7013C65.2974 20.3329 66.829 21.4457 68.5839 21.567C71.0558 21.7379 72.9469 23.8381 72.8584 26.3143C72.7956 28.0723 73.7422 29.7119 75.2961 30.5365C77.4848 31.698 78.3581 34.3858 77.2701 36.612C76.4977 38.1925 76.6956 40.0753 77.7798 41.4606C79.3068 43.4119 79.0114 46.2226 77.112 47.8138C75.7635 48.9435 75.1785 50.744 75.6054 52.4505C76.2068 54.8542 74.7937 57.3017 72.4114 57.9828C70.72 58.4664 69.4532 59.8733 69.1491 61.6059C68.7208 64.0464 66.4344 65.7076 63.981 65.3608C62.2392 65.1146 60.5097 65.8846 59.5271 67.3438C58.1432 69.399 55.3788 69.9866 53.2786 68.6719C51.7875 67.7385 49.8943 67.7385 48.4032 68.6719C46.303 69.9866 43.5386 69.399 42.1547 67.3438C41.1721 65.8846 39.4426 65.1146 37.7008 65.3608C35.2474 65.7076 32.961 64.0464 32.5327 61.6059C32.2286 59.8733 30.9618 58.4664 29.2704 57.9828C26.8881 57.3017 25.475 54.8542 26.0764 52.4505C26.5033 50.744 25.9183 48.9435 24.5698 47.8138C22.6705 46.2226 22.375 43.4119 23.9021 41.4606C24.9862 40.0753 25.1841 38.1925 24.4117 36.612C23.3237 34.3858 24.1971 31.698 26.3857 30.5365C27.9396 29.7119 28.8862 28.0723 28.8234 26.3143C28.735 23.8381 30.626 21.7379 33.0979 21.567C34.8529 21.4457 36.3845 20.3329 37.0422 18.7013C37.9685 16.4032 40.5503 15.2537 42.878 16.103C44.5306 16.706 46.3824 16.3124 47.6468 15.0894Z" fill="#C01C15"/>
<path d="M38.1574 41.479L45.5735 50.2962C45.929 50.7188 46.5598 50.7733 46.9825 50.4178L65.737 34.6435" stroke="white" stroke-width="4"/>
<path opacity="0.4" d="M61.0756 4.3533C61.2126 4.48581 61.43 4.48581 61.567 4.3533C61.6643 4.25922 61.8067 4.22894 61.9339 4.27532C62.1129 4.34066 62.3115 4.25223 62.3828 4.07546C62.4334 3.94995 62.5512 3.86435 62.6862 3.85502C62.8763 3.84188 63.0218 3.68032 63.015 3.48984C63.0102 3.35461 63.083 3.22849 63.2025 3.16506C63.3709 3.07571 63.438 2.86896 63.3544 2.69771C63.2949 2.57614 63.3102 2.43131 63.3936 2.32474C63.511 2.17464 63.4883 1.95843 63.3422 1.83604C63.2385 1.74914 63.1935 1.61064 63.2263 1.47936C63.2726 1.29446 63.1639 1.10619 62.9806 1.0538C62.8505 1.01661 62.753 0.908384 62.7297 0.775102C62.6967 0.587374 62.5208 0.459591 62.3321 0.486268C62.1981 0.505207 62.0651 0.445974 61.9895 0.33373C61.883 0.175633 61.6704 0.130434 61.5088 0.231564C61.3941 0.303363 61.2485 0.303363 61.1338 0.231564C60.9723 0.130434 60.7596 0.175633 60.6532 0.33373C60.5776 0.445974 60.4445 0.505207 60.3106 0.486268C60.1218 0.459591 59.946 0.587374 59.913 0.775103C59.8896 0.908384 59.7922 1.01661 59.6621 1.0538C59.4788 1.10619 59.3701 1.29446 59.4164 1.47936C59.4492 1.61064 59.4042 1.74914 59.3005 1.83604C59.1544 1.95843 59.1317 2.17464 59.2491 2.32474C59.3325 2.43131 59.3477 2.57614 59.2883 2.69771C59.2046 2.86896 59.2718 3.07571 59.4402 3.16506C59.5597 3.22849 59.6325 3.35461 59.6277 3.48984C59.6209 3.68032 59.7663 3.84188 59.9565 3.85502C60.0915 3.86435 60.2093 3.94995 60.2599 4.07546C60.3311 4.25223 60.5298 4.34066 60.7088 4.27532C60.8359 4.22894 60.9784 4.25922 61.0756 4.3533Z" fill="#C01C15"/>
<path opacity="0.4" d="M14.3705 66.5227C14.5857 66.7309 14.9274 66.7309 15.1427 66.5227C15.2955 66.3748 15.5193 66.3273 15.7191 66.4001C16.0005 66.5028 16.3126 66.3639 16.4245 66.0861C16.504 65.8888 16.6892 65.7543 16.9013 65.7397C17.2001 65.719 17.4287 65.4651 17.418 65.1658C17.4104 64.9533 17.5248 64.7551 17.7127 64.6554C17.9772 64.515 18.0828 64.1901 17.9513 63.921C17.8579 63.73 17.8819 63.5024 18.0129 63.3349C18.1975 63.0991 18.1618 62.7593 17.9322 62.567C17.7692 62.4304 17.6985 62.2128 17.7501 62.0065C17.8228 61.7159 17.6519 61.4201 17.364 61.3378C17.1595 61.2793 17.0064 61.1092 16.9696 60.8998C16.9179 60.6048 16.6415 60.404 16.3449 60.4459C16.1344 60.4757 15.9253 60.3826 15.8065 60.2062C15.6393 59.9578 15.3051 59.8867 15.0512 60.0457C14.871 60.1585 14.6421 60.1585 14.4619 60.0457C14.208 59.8867 13.8739 59.9578 13.7066 60.2062C13.5878 60.3826 13.3787 60.4757 13.1682 60.4459C12.8716 60.404 12.5953 60.6048 12.5435 60.8998C12.5067 61.1092 12.3536 61.2793 12.1491 61.3378C11.8612 61.4201 11.6904 61.7159 11.763 62.0065C11.8146 62.2128 11.7439 62.4304 11.5809 62.567C11.3513 62.7593 11.3156 63.0991 11.5002 63.3349C11.6313 63.5024 11.6552 63.73 11.5618 63.921C11.4303 64.1901 11.5359 64.515 11.8004 64.6554C11.9883 64.7551 12.1027 64.9533 12.0951 65.1658C12.0844 65.4651 12.313 65.719 12.6118 65.7397C12.8239 65.7543 13.0091 65.8888 13.0886 66.0861C13.2006 66.3639 13.5126 66.5028 13.794 66.4001C13.9938 66.3273 14.2176 66.3748 14.3705 66.5227Z" fill="#C01C15"/>
<path opacity="0.4" d="M11.2316 37.1454C11.3686 37.2779 11.586 37.2779 11.723 37.1454C11.8203 37.0513 11.9627 37.0211 12.0899 37.0674C12.2689 37.1328 12.4675 37.0443 12.5388 36.8676C12.5894 36.7421 12.7072 36.6565 12.8422 36.6471C13.0323 36.634 13.1778 36.4724 13.171 36.282C13.1662 36.1467 13.239 36.0206 13.3585 35.9572C13.5269 35.8678 13.594 35.6611 13.5104 35.4898C13.4509 35.3683 13.4662 35.2234 13.5496 35.1169C13.667 34.9668 13.6443 34.7505 13.4982 34.6282C13.3945 34.5413 13.3495 34.4028 13.3823 34.2715C13.4286 34.0866 13.3199 33.8983 13.1366 33.8459C13.0065 33.8087 12.9091 33.7005 12.8857 33.5672C12.8527 33.3795 12.6768 33.2517 12.4881 33.2784C12.3541 33.2973 12.2211 33.2381 12.1455 33.1258C12.0391 32.9677 11.8264 32.9225 11.6649 33.0237C11.5502 33.0955 11.4045 33.0955 11.2898 33.0237C11.1283 32.9225 10.9156 32.9677 10.8092 33.1258C10.7336 33.2381 10.6005 33.2973 10.4666 33.2784C10.2778 33.2517 10.102 33.3795 10.069 33.5672C10.0456 33.7005 9.94818 33.8087 9.81807 33.8459C9.63482 33.8983 9.52612 34.0866 9.57238 34.2715C9.60522 34.4028 9.56021 34.5413 9.45649 34.6282C9.31038 34.7505 9.28766 34.9668 9.40512 35.1169C9.48852 35.2234 9.50374 35.3683 9.44432 35.4898C9.36063 35.6611 9.42781 35.8678 9.59617 35.9572C9.7157 36.0206 9.78852 36.1467 9.78369 36.282C9.77688 36.4724 9.92235 36.634 10.1125 36.6471C10.2475 36.6565 10.3653 36.7421 10.4159 36.8676C10.4872 37.0443 10.6858 37.1328 10.8648 37.0674C10.9919 37.0211 11.1344 37.0513 11.2316 37.1454Z" fill="#C01C15"/>
<path opacity="0.4" d="M83.3745 56.8208C83.5115 56.9533 83.7289 56.9533 83.8659 56.8208C83.9631 56.7267 84.1056 56.6965 84.2327 56.7429C84.4117 56.8082 84.6103 56.7198 84.6816 56.543C84.7322 56.4175 84.85 56.3319 84.985 56.3225C85.1752 56.3094 85.3206 56.1478 85.3138 55.9574C85.309 55.8221 85.3818 55.696 85.5013 55.6326C85.6697 55.5432 85.7369 55.3365 85.6532 55.1652C85.5938 55.0437 85.609 54.8988 85.6924 54.7923C85.8098 54.6422 85.7871 54.426 85.641 54.3036C85.5373 54.2167 85.4923 54.0782 85.5251 53.9469C85.5714 53.762 85.4627 53.5737 85.2794 53.5213C85.1493 53.4841 85.0519 53.3759 85.0285 53.2426C84.9955 53.0549 84.8197 52.9271 84.6309 52.9538C84.497 52.9727 84.3639 52.9135 84.2883 52.8013C84.1819 52.6432 83.9692 52.598 83.8077 52.6991C83.693 52.7709 83.5473 52.7709 83.4326 52.6991C83.2711 52.598 83.0584 52.6432 82.952 52.8013C82.8764 52.9135 82.7434 52.9727 82.6094 52.9538C82.4207 52.9271 82.2448 53.0549 82.2118 53.2426C82.1884 53.3759 82.091 53.4841 81.9609 53.5213C81.7776 53.5737 81.6689 53.762 81.7152 53.9469C81.748 54.0782 81.703 54.2167 81.5993 54.3036C81.4532 54.426 81.4305 54.6422 81.5479 54.7923C81.6313 54.8988 81.6466 55.0437 81.5871 55.1652C81.5035 55.3365 81.5706 55.5432 81.739 55.6326C81.8585 55.696 81.9313 55.8221 81.9265 55.9574C81.9197 56.1478 82.0652 56.3094 82.2553 56.3225C82.3903 56.3319 82.5081 56.4175 82.5587 56.543C82.63 56.7198 82.8286 56.8082 83.0076 56.7429C83.1348 56.6965 83.2772 56.7267 83.3745 56.8208Z" fill="#C01C15"/>
</svg>
