<svg width="35" height="35" viewBox="0 0 35 35" fill="none" xmlns="http://www.w3.org/2000/svg">
<circle cx="17.5" cy="17.5" r="17.5" fill="#C01C15"/>
<circle cx="17.5" cy="17.5" r="15.75" fill="white"/>
<circle cx="17.5" cy="17.5" r="14.4375" fill="#C01C15"/>
<path d="M8.06019 22H7.47781L8.7864 18.3636H9.42028L10.7289 22H10.1465L9.11843 19.0241H9.09002L8.06019 22ZM8.15785 20.576H10.0471V21.0376H8.15785V20.576ZM11.254 18.3636H11.9198L13.0775 21.1903H13.1201L14.2778 18.3636H14.9436V22H14.4216V19.3686H14.3879L13.3154 21.9947H12.8822L11.8097 19.3668H11.776V22H11.254V18.3636ZM16.0485 22H15.4661L16.7747 18.3636H17.4086L18.7172 22H18.1348L17.1067 19.0241H17.0783L16.0485 22ZM16.1461 20.576H18.0353V21.0376H16.1461V20.576ZM18.6333 18.8359V18.3636H21.4475V18.8359H20.3129V22H19.7661V18.8359H18.6333ZM22.0694 22V18.3636H22.6181V21.5277H24.2658V22H22.0694ZM24.3426 18.3636H24.9658L25.9157 20.0167H25.9548L26.9047 18.3636H27.528L26.2087 20.5724V22H25.6618V20.5724L24.3426 18.3636ZM13.1823 26.1818C13.1823 26.5701 13.1112 26.9039 12.9692 27.1832C12.8271 27.4614 12.6324 27.6757 12.385 27.826C12.1388 27.9751 11.8589 28.0497 11.5452 28.0497C11.2303 28.0497 10.9492 27.9751 10.7018 27.826C10.4556 27.6757 10.2615 27.4608 10.1194 27.1815C9.97736 26.9021 9.90634 26.5689 9.90634 26.1818C9.90634 25.7936 9.97736 25.4603 10.1194 25.1822C10.2615 24.9028 10.4556 24.6886 10.7018 24.5394C10.9492 24.3891 11.2303 24.3139 11.5452 24.3139C11.8589 24.3139 12.1388 24.3891 12.385 24.5394C12.6324 24.6886 12.8271 24.9028 12.9692 25.1822C13.1112 25.4603 13.1823 25.7936 13.1823 26.1818ZM12.6389 26.1818C12.6389 25.8859 12.591 25.6367 12.4951 25.4343C12.4004 25.2307 12.2702 25.0768 12.1045 24.9727C11.94 24.8673 11.7535 24.8146 11.5452 24.8146C11.3357 24.8146 11.1486 24.8673 10.9841 24.9727C10.8196 25.0768 10.6894 25.2307 10.5935 25.4343C10.4988 25.6367 10.4514 25.8859 10.4514 26.1818C10.4514 26.4777 10.4988 26.7275 10.5935 26.9311C10.6894 27.1335 10.8196 27.2874 10.9841 27.3928C11.1486 27.4969 11.3357 27.549 11.5452 27.549C11.7535 27.549 11.94 27.4969 12.1045 27.3928C12.2702 27.2874 12.4004 27.1335 12.4951 26.9311C12.591 26.7275 12.6389 26.4777 12.6389 26.1818ZM11.0232 23.9357C10.9391 23.9357 10.8657 23.9049 10.803 23.8434C10.7403 23.7807 10.7089 23.7085 10.7089 23.6268C10.7089 23.538 10.7403 23.464 10.803 23.4048C10.8657 23.3456 10.9391 23.3161 11.0232 23.3161C11.1119 23.3161 11.1859 23.3456 11.2451 23.4048C11.3055 23.464 11.3357 23.538 11.3357 23.6268C11.3357 23.7085 11.3055 23.7807 11.2451 23.8434C11.1859 23.9049 11.1119 23.9357 11.0232 23.9357ZM12.0672 23.9357C11.9832 23.9357 11.9098 23.9049 11.847 23.8434C11.7843 23.7807 11.7529 23.7085 11.7529 23.6268C11.7529 23.538 11.7843 23.464 11.847 23.4048C11.9098 23.3456 11.9832 23.3161 12.0672 23.3161C12.156 23.3161 12.23 23.3456 12.2892 23.4048C12.3495 23.464 12.3797 23.538 12.3797 23.6268C12.3797 23.7085 12.3495 23.7807 12.2892 23.8434C12.23 23.9049 12.156 23.9357 12.0672 23.9357ZM16.8013 24.3636V28H16.2971L14.4487 25.3331H14.415V28H13.8663V24.3636H14.3741L16.2243 27.0341H16.258V24.3636H16.8013ZM19.9401 24.3636H20.4905V26.7553C20.4905 27.0098 20.4307 27.2353 20.3112 27.4318C20.1916 27.6271 20.0235 27.781 19.8069 27.8935C19.5903 28.0047 19.3364 28.0604 19.0452 28.0604C18.7552 28.0604 18.5019 28.0047 18.2852 27.8935C18.0686 27.781 17.9005 27.6271 17.781 27.4318C17.6614 27.2353 17.6017 27.0098 17.6017 26.7553V24.3636H18.1503V26.7109C18.1503 26.8755 18.1864 27.0217 18.2586 27.1495C18.332 27.2773 18.4356 27.378 18.5693 27.4513C18.7031 27.5236 18.8617 27.5597 19.0452 27.5597C19.2298 27.5597 19.3891 27.5236 19.5228 27.4513C19.6578 27.378 19.7607 27.2773 19.8318 27.1495C19.904 27.0217 19.9401 26.8755 19.9401 26.7109V24.3636ZM18.5249 23.9357C18.4409 23.9357 18.3675 23.9049 18.3048 23.8434C18.242 23.7807 18.2107 23.7085 18.2107 23.6268C18.2107 23.538 18.242 23.464 18.3048 23.4048C18.3675 23.3456 18.4409 23.3161 18.5249 23.3161C18.6137 23.3161 18.6877 23.3456 18.7469 23.4048C18.8073 23.464 18.8374 23.538 18.8374 23.6268C18.8374 23.7085 18.8073 23.7807 18.7469 23.8434C18.6877 23.9049 18.6137 23.9357 18.5249 23.9357ZM19.569 23.9357C19.4849 23.9357 19.4115 23.9049 19.3488 23.8434C19.2861 23.7807 19.2547 23.7085 19.2547 23.6268C19.2547 23.538 19.2861 23.464 19.3488 23.4048C19.4115 23.3456 19.4849 23.3161 19.569 23.3161C19.6578 23.3161 19.7317 23.3456 19.7909 23.4048C19.8513 23.464 19.8815 23.538 19.8815 23.6268C19.8815 23.7085 19.8513 23.7807 19.7909 23.8434C19.7317 23.9049 19.6578 23.9357 19.569 23.9357ZM21.2882 24.3636H21.954L23.1117 27.1903H23.1543L24.312 24.3636H24.9778V28H24.4558V25.3686H24.4221L23.3496 27.9947H22.9164L21.8439 25.3668H21.8102V28H21.2882V24.3636Z" fill="white"/>
<path d="M11.0859 9.71982L11.8423 11.2325C11.8843 11.2745 11.9263 11.3165 12.0103 11.3585L13.649 11.6106C13.8171 11.6526 13.9011 11.8627 13.7751 11.9888L12.5986 13.1653C12.5566 13.2073 12.5145 13.2913 12.5566 13.3333L12.8507 14.972C12.8927 15.1401 12.6826 15.2661 12.5566 15.1821L11.0859 14.4258C11.0439 14.3838 10.9599 14.3838 10.8759 14.4258L9.40525 15.1821C9.23718 15.2661 9.06911 15.1401 9.11113 14.972L9.40525 13.3333C9.40525 13.2493 9.40525 13.2073 9.36323 13.1653L8.06069 11.9047C7.93464 11.7787 8.01867 11.5686 8.18674 11.5686L9.82543 11.3165C9.90946 11.3165 9.95148 11.2745 9.9935 11.1904L10.7498 9.6778C10.7918 9.55175 11.0439 9.55175 11.0859 9.71982Z" fill="url(#paint0_linear_190_7310)"/>
<path d="M23.3826 9.71982L24.1389 11.2325C24.1809 11.2745 24.2229 11.3165 24.307 11.3585L25.9456 11.6106C26.1137 11.6526 26.1978 11.8627 26.0717 11.9888L24.8952 13.1653C24.8532 13.2073 24.8112 13.2913 24.8532 13.3333L25.1473 14.972C25.1893 15.1401 24.9792 15.2661 24.8532 15.1821L23.3826 14.4258C23.3406 14.3838 23.2565 14.3838 23.1725 14.4258L21.7019 15.1821C21.5338 15.2661 21.3657 15.1401 21.4078 14.972L21.7019 13.3333C21.7019 13.2493 21.7019 13.2073 21.6599 13.1653L20.3573 11.9047C20.2313 11.7787 20.3153 11.5686 20.4834 11.5686L22.1221 11.3165C22.2061 11.3165 22.2481 11.2745 22.2901 11.1904L23.0464 9.6778C23.0885 9.55175 23.3406 9.55175 23.3826 9.71982Z" fill="url(#paint1_linear_190_7310)"/>
<path d="M17.3097 6.19119L18.4063 8.38421C18.4672 8.44513 18.5281 8.50605 18.6499 8.56697L21.0257 8.93247C21.2694 8.99339 21.3912 9.29798 21.2085 9.48073L19.5028 11.1864C19.4419 11.2473 19.3809 11.3692 19.4419 11.4301L19.8683 13.8059C19.9292 14.0495 19.6246 14.2323 19.4419 14.1105L17.3097 13.0139C17.2488 12.953 17.127 12.953 17.0052 13.0139L14.873 14.1105C14.6294 14.2323 14.3857 14.0495 14.4466 13.8059L14.873 11.4301C14.873 11.3083 14.873 11.2473 14.8121 11.1864L12.9237 9.35889C12.7409 9.17614 12.8628 8.87155 13.1064 8.87155L15.4822 8.50605C15.6041 8.50605 15.665 8.44513 15.7259 8.3233L16.8224 6.13027C16.8833 5.94752 17.2488 5.94752 17.3097 6.19119Z" fill="url(#paint2_linear_190_7310)"/>
<defs>
<linearGradient id="paint0_linear_190_7310" x1="8.00313" y1="12.3669" x2="13.8326" y2="12.3669" gradientUnits="userSpaceOnUse">
<stop stop-color="#FFC600"/>
<stop offset="1" stop-color="#FFC777"/>
</linearGradient>
<linearGradient id="paint1_linear_190_7310" x1="20.2998" y1="12.3669" x2="26.1293" y2="12.3669" gradientUnits="userSpaceOnUse">
<stop stop-color="#FFC600"/>
<stop offset="1" stop-color="#FFC777"/>
</linearGradient>
<linearGradient id="paint2_linear_190_7310" x1="12.8402" y1="10.029" x2="21.2919" y2="10.029" gradientUnits="userSpaceOnUse">
<stop stop-color="#FFC600"/>
<stop offset="1" stop-color="#FFC777"/>
</linearGradient>
</defs>
</svg>
