<svg width="35" height="35" viewBox="0 0 35 35" fill="none" xmlns="http://www.w3.org/2000/svg">
<circle cx="17.5" cy="17.5" r="17.5" fill="#4F46E5"/>
<circle cx="17.5" cy="17.5" r="15.75" fill="white"/>
<circle cx="17.5" cy="17.5" r="14.4375" fill="#4F46E5"/>
<path d="M8.06019 21H7.47781L8.7864 17.3636H9.42028L10.7289 21H10.1465L9.11843 18.0241H9.09002L8.06019 21ZM8.15785 19.576H10.0471V20.0376H8.15785V19.576ZM11.254 17.3636H11.9198L13.0775 20.1903H13.1201L14.2778 17.3636H14.9436V21H14.4216V18.3686H14.3879L13.3154 20.9947H12.8822L11.8097 18.3668H11.776V21H11.254V17.3636ZM16.0485 21H15.4661L16.7747 17.3636H17.4086L18.7172 21H18.1348L17.1067 18.0241H17.0783L16.0485 21ZM16.1461 19.576H18.0353V20.0376H16.1461V19.576ZM18.6333 17.8359V17.3636H21.4475V17.8359H20.3129V21H19.7661V17.8359H18.6333ZM22.0694 21V17.3636H22.6181V20.5277H24.2658V21H22.0694ZM24.3426 17.3636H24.9658L25.9157 19.0167H25.9548L26.9047 17.3636H27.528L26.2087 19.5724V21H25.6618V19.5724L24.3426 17.3636ZM13.1823 25.1818C13.1823 25.5701 13.1112 25.9039 12.9692 26.1832C12.8271 26.4614 12.6324 26.6757 12.385 26.826C12.1388 26.9751 11.8589 27.0497 11.5452 27.0497C11.2303 27.0497 10.9492 26.9751 10.7018 26.826C10.4556 26.6757 10.2615 26.4608 10.1194 26.1815C9.97736 25.9021 9.90634 25.5689 9.90634 25.1818C9.90634 24.7936 9.97736 24.4603 10.1194 24.1822C10.2615 23.9028 10.4556 23.6886 10.7018 23.5394C10.9492 23.3891 11.2303 23.3139 11.5452 23.3139C11.8589 23.3139 12.1388 23.3891 12.385 23.5394C12.6324 23.6886 12.8271 23.9028 12.9692 24.1822C13.1112 24.4603 13.1823 24.7936 13.1823 25.1818ZM12.6389 25.1818C12.6389 24.8859 12.591 24.6367 12.4951 24.4343C12.4004 24.2307 12.2702 24.0768 12.1045 23.9727C11.94 23.8673 11.7535 23.8146 11.5452 23.8146C11.3357 23.8146 11.1486 23.8673 10.9841 23.9727C10.8196 24.0768 10.6894 24.2307 10.5935 24.4343C10.4988 24.6367 10.4514 24.8859 10.4514 25.1818C10.4514 25.4777 10.4988 25.7275 10.5935 25.9311C10.6894 26.1335 10.8196 26.2874 10.9841 26.3928C11.1486 26.4969 11.3357 26.549 11.5452 26.549C11.7535 26.549 11.94 26.4969 12.1045 26.3928C12.2702 26.2874 12.4004 26.1335 12.4951 25.9311C12.591 25.7275 12.6389 25.4777 12.6389 25.1818ZM11.0232 22.9357C10.9391 22.9357 10.8657 22.9049 10.803 22.8434C10.7403 22.7807 10.7089 22.7085 10.7089 22.6268C10.7089 22.538 10.7403 22.464 10.803 22.4048C10.8657 22.3456 10.9391 22.3161 11.0232 22.3161C11.1119 22.3161 11.1859 22.3456 11.2451 22.4048C11.3055 22.464 11.3357 22.538 11.3357 22.6268C11.3357 22.7085 11.3055 22.7807 11.2451 22.8434C11.1859 22.9049 11.1119 22.9357 11.0232 22.9357ZM12.0672 22.9357C11.9832 22.9357 11.9098 22.9049 11.847 22.8434C11.7843 22.7807 11.7529 22.7085 11.7529 22.6268C11.7529 22.538 11.7843 22.464 11.847 22.4048C11.9098 22.3456 11.9832 22.3161 12.0672 22.3161C12.156 22.3161 12.23 22.3456 12.2892 22.4048C12.3495 22.464 12.3797 22.538 12.3797 22.6268C12.3797 22.7085 12.3495 22.7807 12.2892 22.8434C12.23 22.9049 12.156 22.9357 12.0672 22.9357ZM16.8013 23.3636V27H16.2971L14.4487 24.3331H14.415V27H13.8663V23.3636H14.3741L16.2243 26.0341H16.258V23.3636H16.8013ZM19.9401 23.3636H20.4905V25.7553C20.4905 26.0098 20.4307 26.2353 20.3112 26.4318C20.1916 26.6271 20.0235 26.781 19.8069 26.8935C19.5903 27.0047 19.3364 27.0604 19.0452 27.0604C18.7552 27.0604 18.5019 27.0047 18.2852 26.8935C18.0686 26.781 17.9005 26.6271 17.781 26.4318C17.6614 26.2353 17.6017 26.0098 17.6017 25.7553V23.3636H18.1503V25.7109C18.1503 25.8755 18.1864 26.0217 18.2586 26.1495C18.332 26.2773 18.4356 26.378 18.5693 26.4513C18.7031 26.5236 18.8617 26.5597 19.0452 26.5597C19.2298 26.5597 19.3891 26.5236 19.5228 26.4513C19.6578 26.378 19.7607 26.2773 19.8318 26.1495C19.904 26.0217 19.9401 25.8755 19.9401 25.7109V23.3636ZM18.5249 22.9357C18.4409 22.9357 18.3675 22.9049 18.3048 22.8434C18.242 22.7807 18.2107 22.7085 18.2107 22.6268C18.2107 22.538 18.242 22.464 18.3048 22.4048C18.3675 22.3456 18.4409 22.3161 18.5249 22.3161C18.6137 22.3161 18.6877 22.3456 18.7469 22.4048C18.8073 22.464 18.8374 22.538 18.8374 22.6268C18.8374 22.7085 18.8073 22.7807 18.7469 22.8434C18.6877 22.9049 18.6137 22.9357 18.5249 22.9357ZM19.569 22.9357C19.4849 22.9357 19.4115 22.9049 19.3488 22.8434C19.2861 22.7807 19.2547 22.7085 19.2547 22.6268C19.2547 22.538 19.2861 22.464 19.3488 22.4048C19.4115 22.3456 19.4849 22.3161 19.569 22.3161C19.6578 22.3161 19.7317 22.3456 19.7909 22.4048C19.8513 22.464 19.8815 22.538 19.8815 22.6268C19.8815 22.7085 19.8513 22.7807 19.7909 22.8434C19.7317 22.9049 19.6578 22.9357 19.569 22.9357ZM21.2882 23.3636H21.954L23.1117 26.1903H23.1543L24.312 23.3636H24.9778V27H24.4558V24.3686H24.4221L23.3496 26.9947H22.9164L21.8439 24.3668H21.8102V27H21.2882V23.3636Z" fill="white"/>
<path d="M17.5242 6.20072L18.633 8.50309C18.6946 8.56705 18.7562 8.631 18.8794 8.69496L21.2818 9.07868C21.5282 9.14264 21.6514 9.46241 21.4666 9.65428L19.7418 11.445C19.6802 11.509 19.6186 11.6369 19.6802 11.7008L20.1114 14.1951C20.173 14.4509 19.865 14.6428 19.6802 14.5148L17.5242 13.3637C17.4626 13.2997 17.3394 13.2997 17.2162 13.3637L15.0602 14.5148C14.8138 14.6428 14.5674 14.4509 14.629 14.1951L15.0602 11.7008C15.0602 11.5729 15.0602 11.509 14.9986 11.445L13.089 9.52637C12.9042 9.3345 13.0274 9.01473 13.2738 9.01473L15.6762 8.631C15.7994 8.631 15.861 8.56705 15.9226 8.43914L17.0314 6.13676C17.093 5.9449 17.4626 5.9449 17.5242 6.20072Z" fill="url(#paint0_linear_190_7311)"/>
<defs>
<linearGradient id="paint0_linear_190_7311" x1="13.0046" y1="10.2299" x2="21.551" y2="10.2299" gradientUnits="userSpaceOnUse">
<stop stop-color="#FFC600"/>
<stop offset="1" stop-color="#FFC777"/>
</linearGradient>
</defs>
</svg>
