<svg width="77" height="19" viewBox="0 0 77 19" fill="none" xmlns="http://www.w3.org/2000/svg">
<rect width="77" height="19" rx="4" fill="#0BC15C"/>
<path d="M12.6756 12.7812C12.6567 12.3765 12.4902 11.995 12.2107 11.7156C11.9313 11.4362 11.5601 11.2804 11.1742 11.2804C10.7883 11.2804 10.4172 11.4362 10.1377 11.7156C9.85824 11.995 9.6918 12.3765 9.67289 12.7812C9.66767 12.9884 9.70138 13.1947 9.7721 13.3883C9.84282 13.5818 9.94916 13.7589 10.085 13.9093C10.2209 14.0597 10.3837 14.1806 10.5641 14.2649C10.7445 14.3493 10.9389 14.3955 11.1363 14.401C11.5349 14.4121 11.9215 14.2564 12.2108 13.9683C12.5002 13.6802 12.6686 13.2832 12.6792 12.8646C12.6792 12.8419 12.6792 12.8115 12.6756 12.7812ZM10.887 13.4564C10.7902 13.4078 10.708 13.3322 10.6494 13.2379C10.5907 13.1435 10.5579 13.0341 10.5545 12.9215C10.5495 12.8749 10.5495 12.8278 10.5545 12.7812C10.5743 12.6254 10.6473 12.4824 10.76 12.3788C10.8726 12.2753 11.0173 12.2182 11.167 12.2182C11.3167 12.2182 11.4614 12.2753 11.574 12.3788C11.6867 12.4824 11.7597 12.6254 11.7795 12.7812C11.7821 12.8115 11.7821 12.8419 11.7795 12.8722C11.778 12.9821 11.7503 13.0899 11.6989 13.1856C11.6475 13.2814 11.574 13.362 11.4851 13.4201C11.3963 13.4783 11.295 13.5121 11.1905 13.5184C11.0859 13.5248 10.9816 13.5034 10.887 13.4564ZM22.2292 12.7812C22.2103 12.3765 22.0439 11.995 21.7644 11.7156C21.4849 11.4362 21.1138 11.2804 20.7279 11.2804C20.342 11.2804 19.9709 11.4362 19.6914 11.7156C19.4119 11.995 19.2455 12.3765 19.2265 12.7812C19.2213 12.9884 19.255 13.1947 19.3258 13.3883C19.3965 13.5818 19.5028 13.7589 19.6387 13.9093C19.7746 14.0597 19.9374 14.1806 20.1177 14.2649C20.2981 14.3493 20.4925 14.3955 20.6899 14.401C21.0886 14.4121 21.4751 14.2564 21.7645 13.9683C22.0538 13.6802 22.2223 13.2832 22.2328 12.8646C22.2328 12.8419 22.2328 12.8115 22.2292 12.7812ZM20.4406 13.4564C20.3438 13.4078 20.2617 13.3322 20.203 13.2379C20.1444 13.1435 20.1116 13.0341 20.1082 12.9215C20.1032 12.8749 20.1032 12.8278 20.1082 12.7812C20.128 12.6254 20.201 12.4824 20.3136 12.3788C20.4263 12.2753 20.5709 12.2182 20.7207 12.2182C20.8704 12.2182 21.015 12.2753 21.1277 12.3788C21.2403 12.4824 21.3133 12.6254 21.3331 12.7812C21.3357 12.8115 21.3357 12.8419 21.3331 12.8722C21.3317 12.9821 21.304 13.0899 21.2526 13.1856C21.2011 13.2814 21.1276 13.362 21.0388 13.4201C20.95 13.4783 20.8486 13.5121 20.7441 13.5184C20.6396 13.5248 20.5352 13.5034 20.4406 13.4564ZM11.5988 7.60297C11.5048 7.9191 11.3928 8.24155 11.2628 8.57032H11.5988C11.5832 8.24808 11.5832 7.92521 11.5988 7.60297Z" fill="white"/>
<path d="M23.7613 9.20762L22.7893 7.84194C22.6934 7.70377 22.5679 7.59124 22.4229 7.51347C22.2779 7.4357 22.1175 7.39488 21.9547 7.3943H20.69C20.6645 7.39431 20.6393 7.38898 20.6159 7.37864C20.5924 7.3683 20.5711 7.35315 20.5533 7.33408C20.5354 7.315 20.5214 7.29239 20.512 7.26756C20.5026 7.24272 20.498 7.21617 20.4985 7.18945L20.531 5.84274C20.5491 5.6903 20.5369 5.53556 20.495 5.38836C20.4531 5.24117 20.3825 5.10472 20.2877 4.98771C20.1929 4.87069 20.076 4.77566 19.9443 4.70864C19.8126 4.64163 19.6691 4.6041 19.5229 4.59845H8.74792C8.48727 4.60558 8.23866 4.71518 8.0513 4.90556C7.86395 5.09594 7.75149 5.35323 7.73619 5.6265L7.67476 6.35866H6.13187C6.04084 6.35835 5.95306 6.39413 5.88607 6.45883C5.81908 6.52354 5.77781 6.61241 5.77053 6.70767C5.77053 6.80828 5.8086 6.90477 5.87637 6.97591C5.94413 7.04706 6.03604 7.08702 6.13187 7.08702H7.5772L7.49409 8.0999H5.2466C5.15557 8.0996 5.06779 8.13537 5.0008 8.20008C4.93381 8.26478 4.89255 8.35365 4.88527 8.44891C4.88527 8.54952 4.92334 8.64601 4.9911 8.71715C5.05886 8.7883 5.15077 8.82826 5.2466 8.82826H7.45073L7.39292 9.90943H4.36133C4.27031 9.90912 4.18252 9.9449 4.11553 10.0096C4.04854 10.0743 4.00728 10.1632 4 10.2584C4 10.359 4.03807 10.4555 4.10583 10.5267C4.1736 10.5978 4.2655 10.6378 4.36133 10.6378H7.3062L7.16889 12.3108C7.16291 12.366 7.1676 12.4219 7.18267 12.4752C7.19775 12.5285 7.2229 12.578 7.25663 12.6209C7.29036 12.6637 7.33198 12.699 7.37898 12.7246C7.42599 12.7502 7.47743 12.7655 7.53023 12.7698H9.00808C9.05628 12.7701 9.10289 12.7517 9.13892 12.718C9.17495 12.6844 9.19784 12.638 9.2032 12.5877C9.26716 12.0981 9.49784 11.6494 9.85256 11.3246C10.2073 10.9998 10.662 10.8208 11.1327 10.8208C11.6034 10.8208 12.0582 10.9998 12.4129 11.3246C12.7676 11.6494 12.9983 12.0981 13.0622 12.5877C13.0683 12.6376 13.0915 12.6836 13.1273 12.7171C13.1632 12.7505 13.2094 12.7693 13.2574 12.7698H18.6051C18.6533 12.7701 18.6999 12.7517 18.7359 12.718C18.772 12.6844 18.7949 12.638 18.8002 12.5877C18.8642 12.0981 19.0948 11.6494 19.4496 11.3246C19.8043 10.9998 20.259 10.8208 20.7297 10.8208C21.2004 10.8208 21.6552 10.9998 22.0099 11.3246C22.3646 11.6494 22.5953 12.0981 22.6593 12.5877C22.6654 12.6376 22.6885 12.6836 22.7243 12.7171C22.7602 12.7505 22.8064 12.7693 22.8544 12.7698H23.7071C23.747 12.7683 23.7862 12.7586 23.8225 12.7412C23.8588 12.7238 23.8914 12.6991 23.9186 12.6684C23.9458 12.6378 23.967 12.6018 23.9809 12.5626C23.9948 12.5233 24.0012 12.4816 23.9998 12.4397V9.96254C24.0001 9.69046 23.9164 9.42561 23.7613 9.20762ZM9.86444 9.36316H9.37664L9.77772 7.08702H10.775L10.6883 7.57639H10.1824L10.1101 7.99368H10.5546L10.4715 8.46788H10.0307L9.86444 9.36316ZM11.635 9.36316V8.9838H11.1147L10.9629 9.36316H10.4462L11.4254 7.08702H11.9782L12.1517 9.36316H11.635ZM13.6729 7.63329C13.5745 7.56153 13.4598 7.51834 13.3405 7.50811C13.2865 7.50563 13.2333 7.5216 13.1887 7.55363C13.1686 7.56881 13.1515 7.58803 13.1385 7.61016C13.1255 7.6323 13.1167 7.65692 13.1128 7.68261C13.096 7.77871 13.1586 7.8862 13.3007 8.00506C13.398 8.08989 13.481 8.19118 13.5464 8.30475C13.6249 8.43707 13.6509 8.59642 13.6187 8.7486C13.5857 8.94272 13.4853 9.11709 13.3369 9.23797C13.2076 9.34542 13.0514 9.4112 12.8872 9.42736C12.723 9.44352 12.5579 9.40936 12.4118 9.32901L12.5058 8.79792C12.611 8.88057 12.7362 8.93052 12.8671 8.94207C12.9233 8.94413 12.9783 8.92532 13.0225 8.88896C13.0651 8.85294 13.0935 8.80155 13.102 8.74481C13.1102 8.70048 13.1025 8.65451 13.0803 8.61583C13.0464 8.56163 13.005 8.51305 12.9575 8.47167C12.8347 8.36608 12.7318 8.23744 12.6539 8.09231C12.6002 7.97433 12.5838 7.84144 12.607 7.71296C12.6373 7.52445 12.7308 7.35355 12.8707 7.23118C13.0067 7.10706 13.182 7.04076 13.3621 7.04529C13.4997 7.0451 13.6356 7.07752 13.7596 7.14013L13.6729 7.63329ZM15.1833 7.61433H14.8436L14.5329 9.37454H14.0342L14.345 7.61433H14.0053L14.0957 7.09461H15.2736L15.1833 7.61433ZM17.3513 8.42235C17.3129 8.79082 17.2061 9.14782 17.0369 9.47317C16.8654 9.80128 16.6347 10.0912 16.3576 10.3267C16.2938 10.3809 16.2204 10.4213 16.1416 10.4454C16.0628 10.4695 15.9802 10.4769 15.8987 10.4671H15.8553C15.7405 10.4434 15.6344 10.3861 15.5492 10.3019C15.464 10.2177 15.4032 10.1099 15.3738 9.99104C15.3443 9.87214 15.3474 9.74693 15.3828 9.62981C15.4181 9.51269 15.4842 9.40843 15.5735 9.32901L15.6133 9.29867C15.7784 9.18046 15.9196 9.0291 16.0288 8.8533C16.1379 8.6775 16.2128 8.48075 16.2492 8.27441C16.3133 7.83869 16.2233 7.39341 15.9963 7.02253C15.8059 6.68812 15.534 6.41311 15.2086 6.22589C14.5979 5.88335 13.8855 5.7992 13.2176 5.99068C13.4707 5.77514 13.7616 5.61401 14.074 5.51649C14.3913 5.41792 14.724 5.3857 15.0532 5.42165C15.3862 5.45959 15.709 5.56525 16.0035 5.73272C16.3007 5.9043 16.5634 6.13493 16.7767 6.41177C16.991 6.683 17.1541 6.99456 17.2573 7.32981C17.3589 7.67961 17.3945 8.04686 17.3621 8.41097L17.3513 8.42235ZM22.9736 9.6325H20.7948C20.7536 9.6325 20.714 9.61531 20.6849 9.58472C20.6558 9.55413 20.6394 9.51264 20.6394 9.46938V8.35407C20.6394 8.29672 20.6611 8.24172 20.6997 8.20117C20.7383 8.16062 20.7907 8.13784 20.8454 8.13784H21.9547C21.9869 8.13769 22.0188 8.14551 22.0477 8.16066C22.0765 8.17582 22.1016 8.19789 22.1209 8.22509L23.0387 9.53007C23.042 9.5398 23.0432 9.5502 23.0421 9.56048C23.0411 9.57076 23.0378 9.58065 23.0326 9.58942C23.0274 9.59819 23.0204 9.6056 23.012 9.61109C23.0037 9.61658 22.9942 9.62001 22.9845 9.62112L22.9736 9.6325Z" fill="white"/>
<path d="M36.1655 5.60866H35.3686C35.3459 5.47798 35.304 5.36222 35.2429 5.26136C35.1818 5.15909 35.1058 5.07244 35.0149 5.00142C34.924 4.9304 34.8203 4.87713 34.7038 4.84162C34.5888 4.80469 34.4645 4.78622 34.331 4.78622C34.0938 4.78622 33.8835 4.84588 33.7003 4.9652C33.517 5.0831 33.3736 5.25639 33.2699 5.48509C33.1662 5.71236 33.1143 5.99006 33.1143 6.31818C33.1143 6.65199 33.1662 6.93324 33.2699 7.16193C33.375 7.3892 33.5185 7.56108 33.7003 7.67756C33.8835 7.79261 34.093 7.85014 34.3288 7.85014C34.4595 7.85014 34.5817 7.8331 34.6953 7.79901C34.8104 7.76349 34.9134 7.71165 35.0043 7.64347C35.0966 7.57528 35.174 7.49148 35.2365 7.39205C35.3004 7.29261 35.3445 7.17898 35.3686 7.05114L36.1655 7.0554C36.1357 7.26278 36.071 7.45739 35.9716 7.6392C35.8736 7.82102 35.745 7.98153 35.5859 8.12074C35.4268 8.25852 35.2408 8.36648 35.0277 8.4446C34.8146 8.52131 34.5781 8.55966 34.3182 8.55966C33.9347 8.55966 33.5923 8.47088 33.2912 8.29332C32.9901 8.11577 32.7528 7.85938 32.5795 7.52415C32.4063 7.18892 32.3196 6.78693 32.3196 6.31818C32.3196 5.84801 32.407 5.44602 32.5817 5.11222C32.7564 4.77699 32.9943 4.5206 33.2955 4.34304C33.5966 4.16548 33.9375 4.0767 34.3182 4.0767C34.5611 4.0767 34.7869 4.1108 34.9957 4.17898C35.2045 4.24716 35.3906 4.3473 35.554 4.4794C35.7173 4.61009 35.8516 4.7706 35.9567 4.96094C36.0632 5.14986 36.1328 5.36577 36.1655 5.60866ZM34.0945 8.49574H34.5121L34.478 8.67685C34.6115 8.69673 34.7244 8.74787 34.8168 8.83026C34.9105 8.91406 34.9574 9.03409 34.9574 9.19034C34.9588 9.39205 34.8686 9.55398 34.6868 9.67614C34.505 9.7983 34.2457 9.85938 33.9091 9.85938L33.9006 9.48011C34.0639 9.48011 34.1939 9.4581 34.2905 9.41406C34.3871 9.37145 34.4361 9.30327 34.4375 9.20952C34.4403 9.11861 34.4063 9.05185 34.3352 9.00923C34.2656 8.96804 34.1548 8.93963 34.0028 8.92401L34.0945 8.49574ZM37.397 8.5H36.5533L38.0895 4.13636H39.0653L40.6037 8.5H39.7599L38.5945 5.03125H38.5604L37.397 8.5ZM37.4247 6.78906H39.7259V7.42401H37.4247V6.78906ZM41.1784 8.5V4.13636H41.9689V7.83736H43.8908V8.5H41.1784ZM43.8285 4.79901V4.13636H47.31V4.79901H45.9613V8.5H45.1772V4.79901H43.8285ZM49.4695 8.5V4.13636H52.3075V4.79901H50.2599V5.98366H52.1605V6.64631H50.2599V7.83736H52.3246V8.5H49.4695ZM53.114 8.5V4.13636H53.9045V7.83736H55.8263V8.5H53.114ZM55.764 4.79901V4.13636H59.2456V4.79901H57.8968V8.5H57.1127V4.79901H55.764ZM60.7072 4.13636V8.5H59.9167V4.13636H60.7072ZM61.5632 8.5V4.13636H63.1996C63.5348 4.13636 63.8161 4.19886 64.0433 4.32386C64.272 4.44886 64.4446 4.62074 64.5611 4.83949C64.679 5.05682 64.7379 5.30398 64.7379 5.58097C64.7379 5.8608 64.679 6.10937 64.5611 6.3267C64.4432 6.54403 64.2692 6.7152 64.0391 6.8402C63.8089 6.96378 63.5256 7.02557 63.1889 7.02557H62.1044V6.37571H63.0824C63.2784 6.37571 63.4389 6.34162 63.5639 6.27344C63.6889 6.20526 63.7813 6.11151 63.8409 5.99219C63.902 5.87287 63.9325 5.7358 63.9325 5.58097C63.9325 5.42614 63.902 5.28977 63.8409 5.17188C63.7813 5.05398 63.6882 4.96236 63.5618 4.89702C63.4368 4.83026 63.2756 4.79688 63.0781 4.79688H62.3537V8.5H61.5632ZM32.4304 15.5V11.1364H34.1009C34.4162 11.1364 34.6783 11.1861 34.8871 11.2855C35.0973 11.3835 35.2543 11.5178 35.358 11.6882C35.4631 11.8587 35.5156 12.0518 35.5156 12.2678C35.5156 12.4453 35.4815 12.5973 35.4134 12.7237C35.3452 12.8487 35.2536 12.9503 35.1385 13.0284C35.0234 13.1065 34.8949 13.1626 34.7528 13.1967V13.2393C34.9077 13.2479 35.0561 13.2955 35.1982 13.3821C35.3416 13.4673 35.4588 13.5881 35.5497 13.7443C35.6406 13.9006 35.6861 14.0895 35.6861 14.3111C35.6861 14.5369 35.6314 14.7401 35.522 14.9205C35.4126 15.0994 35.2479 15.2408 35.0277 15.3445C34.8075 15.4482 34.5305 15.5 34.1967 15.5H32.4304ZM33.2209 14.8395H34.071C34.358 14.8395 34.5646 14.7848 34.6911 14.6754C34.8189 14.5646 34.8828 14.4226 34.8828 14.2493C34.8828 14.12 34.8509 14.0036 34.7869 13.8999C34.723 13.7947 34.6321 13.7124 34.5142 13.6527C34.3963 13.5916 34.2557 13.5611 34.0923 13.5611H33.2209V14.8395ZM33.2209 12.9922H34.0028C34.1392 12.9922 34.2621 12.9673 34.3714 12.9176C34.4808 12.8665 34.5668 12.7947 34.6293 12.7024C34.6932 12.6087 34.7251 12.4979 34.7251 12.37C34.7251 12.201 34.6655 12.0618 34.5462 11.9524C34.4283 11.843 34.2528 11.7884 34.0199 11.7884H33.2209V12.9922ZM36.3738 15.5V11.1364H39.2118V11.799H37.1642V12.9837H39.0648V13.6463H37.1642V14.8374H39.2289V15.5H36.3738ZM40.0183 15.5V11.1364H41.6547C41.9899 11.1364 42.2711 11.1946 42.4984 11.3111C42.7271 11.4276 42.8997 11.5909 43.0162 11.8011C43.1341 12.0099 43.193 12.2536 43.193 12.532C43.193 12.8118 43.1333 13.0547 43.014 13.2607C42.8961 13.4652 42.7221 13.6236 42.492 13.7358C42.2619 13.8466 41.9792 13.902 41.644 13.902H40.4785V13.2457H41.5375C41.7335 13.2457 41.894 13.2187 42.019 13.1648C42.144 13.1094 42.2363 13.0291 42.296 12.924C42.3571 12.8175 42.3876 12.6868 42.3876 12.532C42.3876 12.3771 42.3571 12.245 42.296 12.1357C42.2349 12.0249 42.1419 11.9411 42.0169 11.8842C41.8919 11.826 41.7306 11.7969 41.5332 11.7969H40.8088V15.5H40.0183ZM42.2725 13.5227L43.3528 15.5H42.4707L41.4096 13.5227H42.2725ZM43.9206 11.1364H44.888L46.1834 14.2983H46.2346L47.53 11.1364H48.4973V15.5H47.7388V12.5021H47.6983L46.4924 15.4872H45.9256L44.7196 12.4957H44.6792V15.5H43.9206V11.1364ZM49.3581 15.5V11.1364H52.1962V11.799H50.1486V12.9837H52.0492V13.6463H50.1486V14.8374H52.2132V15.5H49.3581ZM53.0027 15.5V11.1364H53.7931V13.1413H53.8464L55.5488 11.1364H56.514L54.8265 13.0945L56.5289 15.5H55.5787L54.2768 13.6293L53.7931 14.2003V15.5H53.0027Z" fill="white"/>
</svg>
