<svg width="23" height="30" viewBox="0 0 23 30" fill="none" xmlns="http://www.w3.org/2000/svg">
<rect width="23" height="30" rx="2" fill="#0BC15C"/>
<path d="M9.95791 9.5626C9.94274 9.23806 9.80926 8.93207 9.58511 8.70801C9.36097 8.48394 9.06332 8.35897 8.75383 8.35897C8.44433 8.35897 8.14668 8.48394 7.92254 8.70801C7.69839 8.93207 7.56491 9.23806 7.54974 9.5626C7.54555 9.72881 7.57259 9.89426 7.62931 10.0495C7.68602 10.2047 7.77131 10.3467 7.88029 10.4674C7.98927 10.588 8.11982 10.6849 8.26448 10.7526C8.40914 10.8202 8.56508 10.8573 8.7234 10.8617C9.04312 10.8706 9.35312 10.7458 9.58518 10.5147C9.81724 10.2836 9.95236 9.96521 9.96081 9.62954C9.96081 9.61128 9.96081 9.58694 9.95791 9.5626ZM8.52344 10.1042C8.44582 10.0652 8.3799 10.0045 8.33289 9.92888C8.28587 9.85323 8.25956 9.76546 8.25683 9.67517C8.25279 9.63777 8.25279 9.6 8.25683 9.5626C8.2727 9.43763 8.33125 9.32297 8.4216 9.23992C8.51195 9.15688 8.62795 9.1111 8.74803 9.1111C8.86811 9.1111 8.98411 9.15688 9.07446 9.23992C9.16481 9.32297 9.22336 9.43763 9.23923 9.5626C9.24131 9.58689 9.24131 9.61133 9.23923 9.63562C9.23808 9.72376 9.21586 9.81019 9.17462 9.88697C9.13338 9.96375 9.07443 10.0284 9.00318 10.0751C8.93193 10.1217 8.85067 10.1488 8.76685 10.1539C8.68302 10.159 8.59933 10.1419 8.52344 10.1042ZM17.62 9.5626C17.6049 9.23806 17.4714 8.93207 17.2472 8.70801C17.0231 8.48394 16.7254 8.35897 16.4159 8.35897C16.1064 8.35897 15.8088 8.48394 15.5846 8.70801C15.3605 8.93207 15.227 9.23806 15.2118 9.5626C15.2077 9.72881 15.2347 9.89426 15.2914 10.0495C15.3481 10.2047 15.4334 10.3467 15.5424 10.4674C15.6514 10.588 15.7819 10.6849 15.9266 10.7526C16.0713 10.8202 16.2272 10.8573 16.3855 10.8617C16.7052 10.8706 17.0152 10.7458 17.2473 10.5147C17.4793 10.2836 17.6145 9.96521 17.6229 9.62954C17.6229 9.61128 17.6229 9.58694 17.62 9.5626ZM16.1856 10.1042C16.1079 10.0652 16.042 10.0045 15.995 9.92888C15.948 9.85323 15.9217 9.76546 15.9189 9.67517C15.9149 9.63777 15.9149 9.6 15.9189 9.5626C15.9348 9.43763 15.9934 9.32297 16.0837 9.23992C16.1741 9.15688 16.2901 9.1111 16.4101 9.1111C16.5302 9.1111 16.6462 9.15688 16.7366 9.23992C16.8269 9.32297 16.8855 9.43763 16.9013 9.5626C16.9034 9.58689 16.9034 9.61133 16.9013 9.63562C16.9002 9.72376 16.878 9.81019 16.8367 9.88697C16.7955 9.96375 16.7365 10.0284 16.6653 10.0751C16.594 10.1217 16.5128 10.1488 16.429 10.1539C16.3451 10.159 16.2614 10.1419 16.1856 10.1042ZM9.09433 5.40964C9.01899 5.66318 8.92915 5.92179 8.82482 6.18547H9.09433C9.08184 5.92702 9.08184 5.66808 9.09433 5.40964Z" fill="white"/>
<path d="M18.8487 6.69659L18.0692 5.60131C17.9923 5.49049 17.8916 5.40024 17.7753 5.33787C17.659 5.2755 17.5304 5.24276 17.3998 5.2423H16.3855C16.3651 5.2423 16.3449 5.23803 16.3261 5.22974C16.3072 5.22144 16.2902 5.20929 16.2759 5.194C16.2616 5.1787 16.2503 5.16056 16.2428 5.14065C16.2352 5.12073 16.2315 5.09943 16.2319 5.078L16.258 3.99793C16.2725 3.87567 16.2627 3.75157 16.2291 3.63352C16.1955 3.51546 16.1389 3.40604 16.0629 3.31219C15.9869 3.21834 15.8931 3.14212 15.7875 3.08838C15.6819 3.03463 15.5668 3.00453 15.4495 3H6.80787C6.59883 3.00572 6.39944 3.09362 6.24918 3.24631C6.09892 3.39899 6.00873 3.60534 5.99645 3.82451L5.94719 4.4117H4.70977C4.63677 4.41146 4.56637 4.44015 4.51264 4.49204C4.45891 4.54394 4.42582 4.61521 4.41998 4.69161C4.41998 4.7723 4.45051 4.84969 4.50486 4.90675C4.55921 4.9638 4.63292 4.99586 4.70977 4.99586H5.86894L5.80229 5.80819H3.99978C3.92678 5.80795 3.85638 5.83664 3.80265 5.88854C3.74892 5.94043 3.71583 6.0117 3.70999 6.0881C3.70999 6.16879 3.74052 6.24618 3.79487 6.30324C3.84922 6.36029 3.92293 6.39235 3.99978 6.39235H5.76752L5.72115 7.25945H3.28979C3.21679 7.2592 3.14638 7.2879 3.09266 7.33979C3.03893 7.39169 3.00584 7.46296 3 7.53936C3 7.62005 3.03053 7.69743 3.08488 7.75449C3.13922 7.81155 3.21293 7.8436 3.28979 7.8436H5.6516L5.54148 9.18533C5.53668 9.22963 5.54044 9.27449 5.55253 9.31722C5.56462 9.35996 5.58479 9.3997 5.61185 9.43407C5.6389 9.46843 5.67227 9.49672 5.70997 9.51723C5.74768 9.53775 5.78893 9.55007 5.83127 9.55347H7.01652C7.05518 9.55372 7.09256 9.53894 7.12146 9.51197C7.15035 9.48501 7.16872 9.44777 7.17301 9.40743C7.22431 9.01479 7.40931 8.65493 7.6938 8.39442C7.97829 8.13392 8.34301 7.99039 8.7205 7.99039C9.09799 7.99039 9.46272 8.13392 9.7472 8.39442C10.0317 8.65493 10.2167 9.01479 10.268 9.40743C10.2729 9.44751 10.2914 9.48437 10.3202 9.51121C10.349 9.53805 10.386 9.55306 10.4245 9.55347H14.7134C14.7521 9.55372 14.7894 9.53894 14.8183 9.51197C14.8472 9.48501 14.8656 9.44777 14.8699 9.40743C14.9212 9.01479 15.1062 8.65493 15.3907 8.39442C15.6752 8.13392 16.0399 7.99039 16.4174 7.99039C16.7949 7.99039 17.1596 8.13392 17.4441 8.39442C17.7286 8.65493 17.9136 9.01479 17.9649 9.40743C17.9698 9.44751 17.9883 9.48437 18.0171 9.51121C18.0458 9.53805 18.0829 9.55306 18.1214 9.55347H18.8053C18.8372 9.55229 18.8687 9.54451 18.8978 9.53056C18.9269 9.51662 18.9531 9.49679 18.9749 9.47221C18.9967 9.44762 19.0137 9.41877 19.0248 9.38729C19.036 9.35582 19.0412 9.32234 19.04 9.28877V7.30204C19.0402 7.08384 18.9731 6.87142 18.8487 6.69659ZM7.70333 6.82134H7.31211L7.63378 4.99586H8.43361L8.36406 5.38833H7.95835L7.90039 5.72301H8.25683L8.19018 6.10331H7.83663L7.70333 6.82134ZM9.12331 6.82134V6.51709H8.70601L8.5843 6.82134H8.1699L8.95523 4.99586H9.39862L9.53772 6.82134H9.12331ZM10.7577 5.43397C10.6789 5.37641 10.5869 5.34177 10.4911 5.33357C10.4479 5.33158 10.4052 5.34439 10.3694 5.37008C10.3533 5.38226 10.3396 5.39767 10.3291 5.41542C10.3187 5.43317 10.3117 5.45292 10.3086 5.47352C10.295 5.5506 10.3453 5.6368 10.4593 5.73213C10.5372 5.80017 10.6038 5.8814 10.6563 5.97249C10.7193 6.07861 10.7401 6.20641 10.7143 6.32846C10.6878 6.48414 10.6073 6.62399 10.4882 6.72093C10.3845 6.80711 10.2593 6.85987 10.1276 6.87283C9.99593 6.88579 9.86351 6.85839 9.74637 6.79395L9.82171 6.36801C9.90608 6.4343 10.0065 6.47436 10.1115 6.48362C10.1565 6.48527 10.2007 6.47019 10.2361 6.44103C10.2703 6.41213 10.293 6.37092 10.2999 6.32541C10.3065 6.28986 10.3003 6.25299 10.2825 6.22197C10.2553 6.17851 10.2221 6.13954 10.184 6.10636C10.0855 6.02167 10.003 5.9185 9.94053 5.80211C9.89746 5.70748 9.88426 5.6009 9.90285 5.49786C9.92716 5.34668 10.0022 5.20961 10.1144 5.11147C10.2235 5.01193 10.364 4.95876 10.5085 4.96239C10.6189 4.96223 10.7278 4.98823 10.8273 5.03845L10.7577 5.43397ZM11.9691 5.41876H11.6967L11.4474 6.83046H11.0475L11.2968 5.41876H11.0244L11.0968 5.00194H12.0415L11.9691 5.41876ZM13.7078 6.0668C13.677 6.36232 13.5914 6.64863 13.4557 6.90957C13.3181 7.17272 13.1331 7.40523 12.9109 7.59412C12.8597 7.6376 12.8009 7.66995 12.7377 7.68928C12.6745 7.70861 12.6083 7.71453 12.5429 7.70669H12.5081C12.416 7.68768 12.3309 7.64177 12.2626 7.57422C12.1942 7.50668 12.1455 7.42026 12.1219 7.3249C12.0982 7.22954 12.1007 7.12912 12.1291 7.03519C12.1574 6.94127 12.2104 6.85764 12.282 6.79395L12.3139 6.76961C12.4464 6.67481 12.5596 6.55342 12.6472 6.41243C12.7347 6.27144 12.7948 6.11364 12.824 5.94815C12.8754 5.5987 12.8032 5.24158 12.6211 4.94413C12.4684 4.67593 12.2503 4.45537 11.9894 4.30522C11.4996 4.0305 10.9283 3.96301 10.3926 4.11658C10.5955 3.94372 10.8289 3.81449 11.0794 3.73628C11.3339 3.65723 11.6008 3.63138 11.8647 3.66021C12.1318 3.69064 12.3907 3.77538 12.6269 3.9097C12.8653 4.0473 13.0759 4.23227 13.2471 4.4543C13.4189 4.67183 13.5497 4.9217 13.6325 5.19057C13.714 5.47112 13.7425 5.76566 13.7165 6.05768L13.7078 6.0668ZM18.217 7.03735H16.4695C16.4365 7.03735 16.4048 7.02357 16.3814 6.99903C16.3581 6.9745 16.3449 6.94122 16.3449 6.90652V6.01204C16.3449 5.96605 16.3623 5.92194 16.3933 5.88941C16.4243 5.85689 16.4663 5.83862 16.5101 5.83862H17.3998C17.4257 5.8385 17.4512 5.84477 17.4744 5.85693C17.4975 5.86908 17.5176 5.88678 17.5331 5.9086L18.2692 6.9552C18.2718 6.963 18.2728 6.97134 18.272 6.97959C18.2711 6.98783 18.2685 6.99577 18.2643 7.0028C18.2601 7.00983 18.2545 7.01577 18.2478 7.02018C18.2411 7.02458 18.2335 7.02733 18.2257 7.02822L18.217 7.03735Z" fill="white"/>
<path d="M9.09339 14.9346H8.56214C8.54699 14.8475 8.51906 14.7703 8.47834 14.7031C8.43762 14.6349 8.38696 14.5771 8.32635 14.5298C8.26574 14.4824 8.19661 14.4469 8.11896 14.4233C8.04226 14.3986 7.9594 14.3863 7.87038 14.3863C7.71224 14.3863 7.57209 14.4261 7.44993 14.5056C7.32777 14.5842 7.23213 14.6998 7.163 14.8522C7.09387 15.0038 7.0593 15.1889 7.0593 15.4076C7.0593 15.6302 7.09387 15.8177 7.163 15.9701C7.23307 16.1217 7.32872 16.2362 7.44993 16.3139C7.57209 16.3906 7.71177 16.4289 7.86896 16.4289C7.95608 16.4289 8.03752 16.4176 8.11328 16.3949C8.18999 16.3712 8.25864 16.3366 8.31925 16.2912C8.3808 16.2457 8.43241 16.1898 8.47408 16.1235C8.51669 16.0573 8.54605 15.9815 8.56214 15.8963L9.09339 15.8991C9.07351 16.0374 9.03042 16.1671 8.96413 16.2883C8.89879 16.4095 8.81309 16.5165 8.70703 16.6093C8.60097 16.7012 8.47692 16.7732 8.33487 16.8253C8.19283 16.8764 8.03516 16.902 7.86186 16.902C7.60618 16.902 7.37796 16.8428 7.1772 16.7244C6.97644 16.606 6.8183 16.4351 6.70277 16.2116C6.58724 15.9881 6.52947 15.7201 6.52947 15.4076C6.52947 15.0942 6.58771 14.8262 6.70419 14.6037C6.82067 14.3802 6.97929 14.2092 7.18004 14.0909C7.3808 13.9725 7.60807 13.9133 7.86186 13.9133C8.02379 13.9133 8.17436 13.936 8.31357 13.9815C8.45277 14.027 8.57682 14.0937 8.68572 14.1818C8.79463 14.2689 8.88411 14.3759 8.95419 14.5028C9.02521 14.6288 9.07161 14.7727 9.09339 14.9346ZM7.71271 16.8593H7.99112L7.96839 16.9801C8.05741 16.9933 8.13269 17.0274 8.19425 17.0824C8.25675 17.1382 8.288 17.2182 8.288 17.3224C8.28894 17.4569 8.22881 17.5648 8.1076 17.6463C7.98639 17.7277 7.81357 17.7684 7.58913 17.7684L7.58345 17.5156C7.69235 17.5156 7.779 17.5009 7.84339 17.4716C7.90779 17.4431 7.94046 17.3977 7.94141 17.3352C7.9433 17.2746 7.92057 17.2301 7.87322 17.2017C7.82682 17.1742 7.75296 17.1553 7.65163 17.1449L7.71271 16.8593ZM9.91442 16.8622H9.35192L10.3761 13.9531H11.0266L12.0522 16.8622H11.4897L10.7127 14.5497H10.69L9.91442 16.8622ZM9.93288 15.7216H11.467V16.1449H9.93288V15.7216ZM12.4354 16.8622V13.9531H12.9624V16.4204H14.2436V16.8622H12.4354ZM14.2021 14.3949V13.9531H16.5231V14.3949H15.6239V16.8622H15.1012V14.3949H14.2021ZM6.46857 21.8622V18.9531H8.36062V19.3949H6.99556V20.1846H8.26261V20.6264H6.99556V21.4204H8.37198V21.8622H6.46857ZM8.89826 21.8622V18.9531H9.42525V21.4204H10.7065V21.8622H8.89826ZM10.665 19.3949V18.9531H12.986V19.3949H12.0868V21.8622H11.5641V19.3949H10.665ZM13.9604 18.9531V21.8622H13.4334V18.9531H13.9604ZM14.5311 21.8622V18.9531H15.622C15.8455 18.9531 16.033 18.9948 16.1845 19.0781C16.3369 19.1614 16.452 19.276 16.5297 19.4218C16.6083 19.5667 16.6475 19.7315 16.6475 19.9162C16.6475 20.1027 16.6083 20.2684 16.5297 20.4133C16.4511 20.5582 16.335 20.6723 16.1816 20.7556C16.0282 20.838 15.8393 20.8792 15.6149 20.8792H14.8919V20.446H15.5439C15.6745 20.446 15.7815 20.4233 15.8649 20.3778C15.9482 20.3324 16.0098 20.2699 16.0495 20.1903C16.0903 20.1108 16.1106 20.0194 16.1106 19.9162C16.1106 19.8129 16.0903 19.722 16.0495 19.6434C16.0098 19.5648 15.9477 19.5038 15.8635 19.4602C15.7801 19.4157 15.6726 19.3934 15.541 19.3934H15.0581V21.8622H14.5311ZM3.57599 26.8622V23.9531H4.68963C4.89986 23.9531 5.07457 23.9862 5.21378 24.0525C5.35393 24.1179 5.45857 24.2074 5.5277 24.321C5.59777 24.4346 5.63281 24.5634 5.63281 24.7074C5.63281 24.8257 5.61009 24.927 5.56463 25.0113C5.51918 25.0947 5.4581 25.1624 5.38139 25.2145C5.30469 25.2665 5.21899 25.3039 5.12429 25.3267V25.3551C5.22751 25.3608 5.32647 25.3925 5.42116 25.4503C5.51681 25.5071 5.59493 25.5876 5.65554 25.6917C5.71615 25.7959 5.74645 25.9218 5.74645 26.0696C5.74645 26.2201 5.70999 26.3556 5.63707 26.4758C5.56416 26.5951 5.45431 26.6894 5.30753 26.7585C5.16075 26.8276 4.97609 26.8622 4.75355 26.8622H3.57599ZM4.10298 26.4218H4.66974C4.86103 26.4218 4.99882 26.3854 5.0831 26.3125C5.16832 26.2386 5.21094 26.1439 5.21094 26.0284C5.21094 25.9422 5.18963 25.8646 5.14702 25.7954C5.1044 25.7253 5.0438 25.6704 4.9652 25.6306C4.8866 25.5899 4.79285 25.5696 4.68395 25.5696H4.10298V26.4218ZM4.10298 25.1903H4.62429C4.7152 25.1903 4.79711 25.1737 4.87003 25.1406C4.94295 25.1065 5.00024 25.0587 5.0419 24.9971C5.08452 24.9346 5.10582 24.8608 5.10582 24.7755C5.10582 24.6628 5.06605 24.57 4.98651 24.4971C4.90791 24.4242 4.79096 24.3878 4.63565 24.3878H4.10298V25.1903ZM6.2049 26.8622V23.9531H8.09695V24.3949H6.73189V25.1846H7.99893V25.6264H6.73189V26.4204H8.10831V26.8622H6.2049ZM8.63459 26.8622V23.9531H9.7255C9.94898 23.9531 10.1365 23.9919 10.288 24.0696C10.4405 24.1472 10.5555 24.2561 10.6332 24.3963C10.7118 24.5355 10.7511 24.6979 10.7511 24.8835C10.7511 25.07 10.7113 25.232 10.6317 25.3693C10.5531 25.5056 10.4371 25.6112 10.2837 25.686C10.1303 25.7599 9.94188 25.7968 9.71839 25.7968H8.94141V25.3593H9.64737C9.77805 25.3593 9.88506 25.3413 9.96839 25.3054C10.0517 25.2684 10.1133 25.2149 10.1531 25.1449C10.1938 25.0738 10.2141 24.9867 10.2141 24.8835C10.2141 24.7803 10.1938 24.6922 10.1531 24.6193C10.1123 24.5454 10.0503 24.4895 9.96697 24.4517C9.88364 24.4128 9.77616 24.3934 9.64453 24.3934H9.16158V26.8622H8.63459ZM10.1374 25.544L10.8576 26.8622H10.2695L9.56214 25.544H10.1374ZM11.2362 23.9531H11.881L12.7447 26.061H12.7788L13.6424 23.9531H14.2873V26.8622H13.7816V24.8636H13.7546L12.9506 26.8537H12.5728L11.7688 24.8593H11.7418V26.8622H11.2362V23.9531ZM14.8612 26.8622V23.9531H16.7532V24.3949H15.3881V25.1846H16.6552V25.6264H15.3881V26.4204H16.7646V26.8622H14.8612ZM17.2908 26.8622V23.9531H17.8178V25.2897H17.8533L18.9883 23.9531H19.6317L18.5067 25.2585L19.6417 26.8622H19.0082L18.1403 25.615L17.8178 25.9957V26.8622H17.2908Z" fill="white"/>
</svg>
