<svg width="23" height="30" viewBox="0 0 23 30" fill="none" xmlns="http://www.w3.org/2000/svg">
<rect width="23" height="30" rx="2" fill="#8F8F8F"/>
<path fill-rule="evenodd" clip-rule="evenodd" d="M11.5688 2.39047L12.411 2.75038L8.84009 4.27766C8.8366 4.27915 8.83316 4.28075 8.82978 4.28247L7.9869 3.92188L11.5688 2.39047ZM12.8482 2.93772L13.8705 3.37463L10.233 4.93044C10.1994 4.94489 10.1712 4.96968 10.1527 5.00121C10.1341 5.03274 10.1261 5.06936 10.1298 5.10575C10.1292 5.11238 10.129 5.11904 10.1292 5.12569V6.96475L9.75653 6.40547C9.7333 6.37066 9.69818 6.34552 9.65774 6.33476C9.6173 6.324 9.57432 6.32837 9.53687 6.34703L9.0979 6.56635V4.54166L12.8482 2.93772ZM14.3078 3.56128L15.151 3.92188L11.5688 5.45328L10.7262 5.09338L14.2978 3.5661C14.3013 3.56461 14.3047 3.563 14.3081 3.56128H14.3078ZM7.7229 4.18244L8.75415 4.62347V6.84444C8.75415 6.87375 8.76165 6.90257 8.77593 6.92817C8.79021 6.95376 8.81079 6.97528 8.83573 6.99068C8.86067 7.00608 8.88913 7.01484 8.91841 7.01614C8.9477 7.01744 8.97682 7.01123 9.00303 6.9981L9.5544 6.72207L10.1484 7.61307C10.1591 7.63348 10.1737 7.65155 10.1915 7.66619C10.2093 7.68084 10.2298 7.69176 10.2519 7.69832L10.2526 7.699C10.2837 7.70799 10.3167 7.70799 10.3478 7.699C10.3876 7.688 10.4222 7.66301 10.4451 7.6286C10.468 7.59419 10.4778 7.55267 10.4726 7.51166V5.35944L11.3969 5.75407V10.537L7.72324 8.96606L7.7229 4.18244ZM15.4143 4.18313V8.96606L11.7403 10.5377V5.75407L15.4143 4.18313ZM13.2566 8.1335L13.2545 8.13419C13.2332 8.13522 13.2122 8.14024 13.1927 8.14897L12.1906 8.57728C11.9796 8.66735 12.1147 8.9836 12.3254 8.89353L13.3284 8.46522C13.5099 8.39406 13.4515 8.12319 13.2566 8.1335ZM14.2569 8.39132C14.2359 8.39248 14.2153 8.39749 14.1961 8.4061L13.193 8.83441L12.1906 9.26341C11.9796 9.35347 12.115 9.66972 12.3254 9.57966L13.3284 9.15066L14.3308 8.72166C14.5082 8.64741 14.4491 8.38272 14.2569 8.39132Z" fill="white"/>
<path d="M5.74006 15.0909H6.38494L7.24858 17.1989H7.28267L8.14631 15.0909H8.79119V18H8.28551V16.0014H8.25852L7.45455 17.9915H7.0767L6.27273 15.9972H6.24574V18H5.74006V15.0909ZM11.1989 15.0909H11.7259V16.9915C11.7259 17.1998 11.6766 17.383 11.5781 17.5412C11.4806 17.6993 11.3433 17.8229 11.1662 17.9119C10.9891 18 10.7822 18.044 10.5455 18.044C10.3078 18.044 10.1004 18 9.9233 17.9119C9.74621 17.8229 9.6089 17.6993 9.51136 17.5412C9.41383 17.383 9.36506 17.1998 9.36506 16.9915V15.0909H9.89205V16.9474C9.89205 17.0687 9.91856 17.1766 9.97159 17.2713C10.0256 17.366 10.1013 17.4403 10.1989 17.4943C10.2964 17.5473 10.4119 17.5739 10.5455 17.5739C10.679 17.5739 10.7945 17.5473 10.892 17.4943C10.9905 17.4403 11.0663 17.366 11.1193 17.2713C11.1723 17.1766 11.1989 17.0687 11.1989 16.9474V15.0909ZM14.2475 16.0199C14.2238 15.9432 14.1912 15.8745 14.1495 15.8139C14.1088 15.7524 14.0595 15.6998 14.0018 15.6562C13.945 15.6127 13.8796 15.58 13.8058 15.5582C13.7319 15.5355 13.6514 15.5241 13.5643 15.5241C13.408 15.5241 13.2688 15.5634 13.1467 15.642C13.0245 15.7206 12.9284 15.8362 12.8583 15.9886C12.7892 16.1402 12.7546 16.3248 12.7546 16.5426C12.7546 16.7623 12.7892 16.9484 12.8583 17.1009C12.9274 17.2533 13.0236 17.3693 13.1467 17.4489C13.2698 17.5275 13.4128 17.5668 13.5756 17.5668C13.7234 17.5668 13.8512 17.5384 13.9592 17.4815C14.0681 17.4247 14.1519 17.3442 14.2106 17.2401C14.2693 17.1349 14.2987 17.0118 14.2987 16.8707L14.418 16.8892H13.6282V16.4773H14.8086V16.8267C14.8086 17.0758 14.7556 17.2912 14.6495 17.473C14.5434 17.6548 14.3976 17.795 14.212 17.8935C14.0264 17.991 13.8133 18.0398 13.5728 18.0398C13.3048 18.0398 13.0695 17.9796 12.8668 17.8594C12.6651 17.7382 12.5075 17.5663 12.3938 17.3438C12.2811 17.1203 12.2248 16.8551 12.2248 16.5483C12.2248 16.3134 12.2579 16.1037 12.3242 15.919C12.3915 15.7344 12.4852 15.5777 12.6055 15.4489C12.7257 15.3191 12.8668 15.2206 13.0288 15.1534C13.1907 15.0852 13.3668 15.0511 13.5572 15.0511C13.7182 15.0511 13.8683 15.0748 14.0075 15.1222C14.1467 15.1686 14.2702 15.2348 14.3782 15.321C14.4871 15.4072 14.5766 15.5095 14.6467 15.6278C14.7167 15.7462 14.7627 15.8769 14.7844 16.0199H14.2475ZM15.0653 15.5327V15.0909H17.3864V15.5327H16.4872V18H15.9645V15.5327H15.0653ZM6.46857 23V20.0909H8.36062V20.5327H6.99556V21.3224H8.26261V21.7642H6.99556V22.5582H8.37198V23H6.46857ZM8.89826 23V20.0909H9.42525V22.5582H10.7065V23H8.89826ZM10.665 20.5327V20.0909H12.986V20.5327H12.0868V23H11.5641V20.5327H10.665ZM13.9604 20.0909V23H13.4334V20.0909H13.9604ZM14.5311 23V20.0909H15.622C15.8455 20.0909 16.033 20.1326 16.1845 20.2159C16.3369 20.2992 16.452 20.4138 16.5297 20.5597C16.6083 20.7045 16.6475 20.8693 16.6475 21.054C16.6475 21.2405 16.6083 21.4062 16.5297 21.5511C16.4511 21.696 16.335 21.8101 16.1816 21.8935C16.0282 21.9759 15.8393 22.017 15.6149 22.017H14.8919V21.5838H15.5439C15.6745 21.5838 15.7815 21.5611 15.8649 21.5156C15.9482 21.4702 16.0098 21.4077 16.0495 21.3281C16.0903 21.2486 16.1106 21.1572 16.1106 21.054C16.1106 20.9508 16.0903 20.8598 16.0495 20.7812C16.0098 20.7027 15.9477 20.6416 15.8635 20.598C15.7801 20.5535 15.6726 20.5312 15.541 20.5312H15.0581V23H14.5311ZM3.57599 28V25.0909H4.68963C4.89986 25.0909 5.07457 25.1241 5.21378 25.1903C5.35393 25.2557 5.45857 25.3452 5.5277 25.4588C5.59777 25.5724 5.63281 25.7012 5.63281 25.8452C5.63281 25.9635 5.61009 26.0649 5.56463 26.1491C5.51918 26.2325 5.4581 26.3002 5.38139 26.3523C5.30469 26.4044 5.21899 26.4418 5.12429 26.4645V26.4929C5.22751 26.4986 5.32647 26.5303 5.42116 26.5881C5.51681 26.6449 5.59493 26.7254 5.65554 26.8295C5.71615 26.9337 5.74645 27.0597 5.74645 27.2074C5.74645 27.358 5.70999 27.4934 5.63707 27.6136C5.56416 27.733 5.45431 27.8272 5.30753 27.8963C5.16075 27.9654 4.97609 28 4.75355 28H3.57599ZM4.10298 27.5597H4.66974C4.86103 27.5597 4.99882 27.5232 5.0831 27.4503C5.16832 27.3764 5.21094 27.2817 5.21094 27.1662C5.21094 27.08 5.18963 27.0024 5.14702 26.9332C5.1044 26.8632 5.0438 26.8082 4.9652 26.7685C4.8866 26.7277 4.79285 26.7074 4.68395 26.7074H4.10298V27.5597ZM4.10298 26.3281H4.62429C4.7152 26.3281 4.79711 26.3116 4.87003 26.2784C4.94295 26.2443 5.00024 26.1965 5.0419 26.1349C5.08452 26.0724 5.10582 25.9986 5.10582 25.9134C5.10582 25.8007 5.06605 25.7079 4.98651 25.6349C4.90791 25.562 4.79096 25.5256 4.63565 25.5256H4.10298V26.3281ZM6.2049 28V25.0909H8.09695V25.5327H6.73189V26.3224H7.99893V26.7642H6.73189V27.5582H8.10831V28H6.2049ZM8.63459 28V25.0909H9.7255C9.94898 25.0909 10.1365 25.1297 10.288 25.2074C10.4405 25.285 10.5555 25.3939 10.6332 25.5341C10.7118 25.6733 10.7511 25.8357 10.7511 26.0213C10.7511 26.2079 10.7113 26.3698 10.6317 26.5071C10.5531 26.6435 10.4371 26.7491 10.2837 26.8239C10.1303 26.8977 9.94188 26.9347 9.71839 26.9347H8.94141V26.4972H9.64737C9.77805 26.4972 9.88506 26.4792 9.96839 26.4432C10.0517 26.4062 10.1133 26.3527 10.1531 26.2827C10.1938 26.2116 10.2141 26.1245 10.2141 26.0213C10.2141 25.9181 10.1938 25.83 10.1531 25.7571C10.1123 25.6832 10.0503 25.6274 9.96697 25.5895C9.88364 25.5507 9.77616 25.5312 9.64453 25.5312H9.16158V28H8.63459ZM10.1374 26.6818L10.8576 28H10.2695L9.56214 26.6818H10.1374ZM11.2362 25.0909H11.881L12.7447 27.1989H12.7788L13.6424 25.0909H14.2873V28H13.7816V26.0014H13.7546L12.9506 27.9915H12.5728L11.7688 25.9972H11.7418V28H11.2362V25.0909ZM14.8612 28V25.0909H16.7532V25.5327H15.3881V26.3224H16.6552V26.7642H15.3881V27.5582H16.7646V28H14.8612ZM17.2908 28V25.0909H17.8178V26.4276H17.8533L18.9883 25.0909H19.6317L18.5067 26.3963L19.6417 28H19.0082L18.1403 26.7528L17.8178 27.1335V28H17.2908Z" fill="white"/>
</svg>
