<svg width="60" height="17" viewBox="0 0 60 17" fill="none" xmlns="http://www.w3.org/2000/svg">
<rect width="60" height="17" rx="2" fill="#034A7E"/>
<path d="M10.9167 13.1667H13.6876M10.9167 3.10419C10.9167 3.42635 11.1779 3.68752 11.5001 3.68752H13.1042C13.4264 3.68752 13.6876 3.42635 13.6876 3.10419" stroke="#F4F6F2" stroke-width="0.5" stroke-linecap="round"/>
<path d="M14.2709 2.8125H10.3334C9.68908 2.8125 9.16675 3.33483 9.16675 3.97917V13.0208C9.16675 13.6652 9.68908 14.1875 10.3334 14.1875H14.2709C14.9153 14.1875 15.4376 13.6652 15.4376 13.0208V10.6146V3.97917C15.4376 3.33483 14.9153 2.8125 14.2709 2.8125Z" stroke="#F4F6F2" stroke-width="0.5"/>
<path d="M15.1458 5.72919H20.1041C20.5068 5.72919 20.8333 6.05565 20.8333 6.45835V10.5871C20.8333 10.9898 20.5068 11.3163 20.1041 11.3163H15.2916" stroke="#F4F6F2" stroke-width="0.5"/>
<path d="M19.7159 9.45083H17.928M19.7159 8.55688H16.5312" stroke="#F4F6F2" stroke-width="0.5" stroke-linecap="round"/>
<path d="M10.9167 8.52848L11.4478 9.08206C11.6774 9.32139 12.0601 9.32139 12.2897 9.08206L13.6876 7.625" stroke="#F4F6F2" stroke-width="0.5" stroke-linecap="round" stroke-linejoin="round"/>
<path d="M32.3295 5.31818C32.3295 5.78835 32.2415 6.19105 32.0653 6.52628C31.8906 6.86009 31.652 7.11577 31.3494 7.29332C31.0483 7.47088 30.7067 7.55966 30.3246 7.55966C29.9425 7.55966 29.6001 7.47088 29.2976 7.29332C28.9964 7.11435 28.7578 6.85795 28.5817 6.52415C28.407 6.18892 28.3196 5.78693 28.3196 5.31818C28.3196 4.84801 28.407 4.44602 28.5817 4.11222C28.7578 3.77699 28.9964 3.5206 29.2976 3.34304C29.6001 3.16548 29.9425 3.0767 30.3246 3.0767C30.7067 3.0767 31.0483 3.16548 31.3494 3.34304C31.652 3.5206 31.8906 3.77699 32.0653 4.11222C32.2415 4.44602 32.3295 4.84801 32.3295 5.31818ZM31.5348 5.31818C31.5348 4.98722 31.483 4.7081 31.3793 4.48082C31.277 4.25213 31.1349 4.07955 30.9531 3.96307C30.7713 3.84517 30.5618 3.78622 30.3246 3.78622C30.0874 3.78622 29.8778 3.84517 29.696 3.96307C29.5142 4.07955 29.3714 4.25213 29.2678 4.48082C29.1655 4.7081 29.1143 4.98722 29.1143 5.31818C29.1143 5.64915 29.1655 5.92898 29.2678 6.15767C29.3714 6.38494 29.5142 6.55753 29.696 6.67543C29.8778 6.7919 30.0874 6.85014 30.3246 6.85014C30.5618 6.85014 30.7713 6.7919 30.9531 6.67543C31.1349 6.55753 31.277 6.38494 31.3793 6.15767C31.483 5.92898 31.5348 5.64915 31.5348 5.31818ZM36.6628 3.13636V7.5H35.9597L33.9036 4.5277H33.8674V7.5H33.0769V3.13636H33.7843L35.8382 6.1108H35.8766V3.13636H36.6628ZM37.5241 7.5V3.13636H38.3146V6.83736H40.2365V7.5H37.5241ZM41.7131 3.13636V7.5H40.9226V3.13636H41.7131ZM46.155 3.13636V7.5H45.4519L43.3958 4.5277H43.3596V7.5H42.5691V3.13636H43.2765L45.3304 6.1108H45.3688V3.13636H46.155ZM47.0163 7.5V3.13636H49.8544V3.79901H47.8068V4.98366H49.7074V5.64631H47.8068V6.83736H49.8714V7.5H47.0163ZM28.2386 10.799V10.1364H31.7202V10.799H30.3714V14.5H29.5874V10.799H28.2386ZM36.0971 12.3182C36.0971 12.7884 36.0091 13.1911 35.8329 13.5263C35.6582 13.8601 35.4196 14.1158 35.117 14.2933C34.8159 14.4709 34.4743 14.5597 34.0922 14.5597C33.71 14.5597 33.3677 14.4709 33.0652 14.2933C32.764 14.1143 32.5254 13.858 32.3493 13.5241C32.1745 13.1889 32.0872 12.7869 32.0872 12.3182C32.0872 11.848 32.1745 11.446 32.3493 11.1122C32.5254 10.777 32.764 10.5206 33.0652 10.343C33.3677 10.1655 33.71 10.0767 34.0922 10.0767C34.4743 10.0767 34.8159 10.1655 35.117 10.343C35.4196 10.5206 35.6582 10.777 35.8329 11.1122C36.0091 11.446 36.0971 11.848 36.0971 12.3182ZM35.3024 12.3182C35.3024 11.9872 35.2505 11.7081 35.1468 11.4808C35.0446 11.2521 34.9025 11.0795 34.7207 10.9631C34.5389 10.8452 34.3294 10.7862 34.0922 10.7862C33.8549 10.7862 33.6454 10.8452 33.4636 10.9631C33.2818 11.0795 33.139 11.2521 33.0353 11.4808C32.9331 11.7081 32.8819 11.9872 32.8819 12.3182C32.8819 12.6491 32.9331 12.929 33.0353 13.1577C33.139 13.3849 33.2818 13.5575 33.4636 13.6754C33.6454 13.7919 33.8549 13.8501 34.0922 13.8501C34.3294 13.8501 34.5389 13.7919 34.7207 13.6754C34.9025 13.5575 35.0446 13.3849 35.1468 13.1577C35.2505 12.929 35.3024 12.6491 35.3024 12.3182ZM33.4551 9.65483C33.3429 9.65483 33.2456 9.61506 33.1632 9.53551C33.0822 9.45597 33.0417 9.36222 33.0417 9.25426C33.0417 9.14062 33.0822 9.04545 33.1632 8.96875C33.2456 8.89062 33.3429 8.85156 33.4551 8.85156C33.5701 8.85156 33.6667 8.89062 33.7449 8.96875C33.8244 9.04545 33.8642 9.14062 33.8642 9.25426C33.8642 9.36222 33.8244 9.45597 33.7449 9.53551C33.6667 9.61506 33.5701 9.65483 33.4551 9.65483ZM34.7335 9.65483C34.6213 9.65483 34.524 9.61506 34.4416 9.53551C34.3606 9.45597 34.3201 9.36222 34.3201 9.25426C34.3201 9.14062 34.3606 9.04545 34.4416 8.96875C34.524 8.89062 34.6213 8.85156 34.7335 8.85156C34.8485 8.85156 34.9451 8.89062 35.0233 8.96875C35.1028 9.04545 35.1426 9.14062 35.1426 9.25426C35.1426 9.36222 35.1028 9.45597 35.0233 9.53551C34.9451 9.61506 34.8485 9.65483 34.7335 9.65483ZM36.8445 14.5V10.1364H37.6349V13.8374H39.5568V14.5H36.8445ZM40.2429 14.5V10.1364H43.081V10.799H41.0334V11.9837H42.9339V12.6463H41.0334V13.8374H43.098V14.5H40.2429ZM46.8107 11.5298C46.7752 11.4148 46.7262 11.3118 46.6637 11.2209C46.6026 11.1286 46.5288 11.0497 46.4421 10.9844C46.3569 10.919 46.2589 10.87 46.1481 10.8374C46.0373 10.8033 45.9165 10.7862 45.7859 10.7862C45.5515 10.7862 45.3427 10.8452 45.1594 10.9631C44.9762 11.081 44.832 11.2543 44.7269 11.483C44.6232 11.7102 44.5714 11.9872 44.5714 12.3139C44.5714 12.6435 44.6232 12.9226 44.7269 13.1513C44.8306 13.38 44.9748 13.554 45.1594 13.6733C45.3441 13.7912 45.5586 13.8501 45.8029 13.8501C46.0245 13.8501 46.2163 13.8075 46.3782 13.7223C46.5415 13.6371 46.6673 13.5163 46.7553 13.3601C46.8434 13.2024 46.8874 13.0178 46.8874 12.8061L47.0664 12.8338H45.8817V12.2159H47.6523V12.7401C47.6523 13.1136 47.5728 13.4368 47.4137 13.7095C47.2546 13.9822 47.0359 14.1925 46.7575 14.3402C46.479 14.4865 46.1594 14.5597 45.7987 14.5597C45.3967 14.5597 45.0437 14.4695 44.7397 14.2891C44.4371 14.1072 44.2006 13.8494 44.0302 13.5156C43.8612 13.1804 43.7766 12.7827 43.7766 12.3224C43.7766 11.9702 43.8263 11.6555 43.9258 11.3786C44.0266 11.1016 44.1673 10.8665 44.3477 10.6733C44.5281 10.4787 44.7397 10.331 44.9826 10.2301C45.2255 10.1278 45.4897 10.0767 45.7752 10.0767C46.0167 10.0767 46.2418 10.1122 46.4506 10.1832C46.6594 10.2528 46.8448 10.3523 47.0067 10.4815C47.1701 10.6108 47.3043 10.7642 47.4094 10.9418C47.5146 11.1193 47.5835 11.3153 47.6161 11.5298H46.8107Z" fill="white"/>
</svg>
