<svg width="23" height="30" viewBox="0 0 23 30" fill="none" xmlns="http://www.w3.org/2000/svg">
<rect width="23" height="30" rx="2" fill="#034A7E"/>
<g clip-path="url(#clip0_691_7012)">
<path d="M8.29175 13.1667H10.4688M8.29175 5.26041C8.29175 5.51354 8.49696 5.71875 8.75008 5.71875H10.0105C10.2636 5.71875 10.4688 5.51354 10.4688 5.26041" stroke="#F4F6F2" stroke-width="0.5" stroke-linecap="round"/>
<path d="M10.9272 5.03125H7.83341C7.32715 5.03125 6.91675 5.44165 6.91675 5.94792V13.0521C6.91675 13.5583 7.32715 13.9688 7.83341 13.9688H10.9272C11.4334 13.9688 11.8438 13.5583 11.8438 13.0521V11.1615V5.94792C11.8438 5.44165 11.4334 5.03125 10.9272 5.03125Z" stroke="#F4F6F2" stroke-width="0.5"/>
<path d="M11.6145 7.32291H15.5103C15.8267 7.32291 16.0833 7.57942 16.0833 7.89583V11.1399C16.0833 11.4563 15.8267 11.7128 15.5103 11.7128H11.7291" stroke="#F4F6F2" stroke-width="0.5"/>
<path d="M15.2054 10.2471H13.8006M15.2054 9.54468H12.7031" stroke="#F4F6F2" stroke-width="0.5" stroke-linecap="round"/>
<path d="M8.29175 9.52238L8.70903 9.95734C8.88944 10.1454 9.1901 10.1454 9.37052 9.95734L10.4688 8.8125" stroke="#F4F6F2" stroke-width="0.5" stroke-linecap="round" stroke-linejoin="round"/>
</g>
<path d="M6.97621 19.5455C6.97621 19.8589 6.9175 20.1274 6.80007 20.3509C6.68359 20.5734 6.5245 20.7438 6.3228 20.8622C6.12204 20.9806 5.89429 21.0398 5.63956 21.0398C5.38482 21.0398 5.15661 20.9806 4.9549 20.8622C4.75414 20.7429 4.59505 20.572 4.47763 20.3494C4.36115 20.1259 4.30291 19.858 4.30291 19.5455C4.30291 19.232 4.36115 18.964 4.47763 18.7415C4.59505 18.518 4.75414 18.3471 4.9549 18.2287C5.15661 18.1103 5.38482 18.0511 5.63956 18.0511C5.89429 18.0511 6.12204 18.1103 6.3228 18.2287C6.5245 18.3471 6.68359 18.518 6.80007 18.7415C6.9175 18.964 6.97621 19.232 6.97621 19.5455ZM6.44638 19.5455C6.44638 19.3248 6.41181 19.1387 6.34268 18.9872C6.2745 18.8348 6.17981 18.7197 6.05859 18.642C5.93738 18.5634 5.7977 18.5241 5.63956 18.5241C5.48142 18.5241 5.34174 18.5634 5.22053 18.642C5.09931 18.7197 5.00414 18.8348 4.93501 18.9872C4.86683 19.1387 4.83274 19.3248 4.83274 19.5455C4.83274 19.7661 4.86683 19.9527 4.93501 20.1051C5.00414 20.2566 5.09931 20.3717 5.22053 20.4503C5.34174 20.5279 5.48142 20.5668 5.63956 20.5668C5.7977 20.5668 5.93738 20.5279 6.05859 20.4503C6.17981 20.3717 6.2745 20.2566 6.34268 20.1051C6.41181 19.9527 6.44638 19.7661 6.44638 19.5455ZM9.86506 18.0909V21H9.39631L8.02557 19.0185H8.00142V21H7.47443V18.0909H7.94602L9.31534 20.0739H9.34091V18.0909H9.86506ZM10.4393 21V18.0909H10.9663V20.5582H12.2475V21H10.4393ZM13.2319 18.0909V21H12.7049V18.0909H13.2319ZM16.1932 18.0909V21H15.7244L14.3537 19.0185H14.3295V21H13.8026V18.0909H14.2741L15.6435 20.0739H15.669V18.0909H16.1932ZM16.7674 21V18.0909H18.6594V18.5327H17.2944V19.3224H18.5614V19.7642H17.2944V20.5582H18.6708V21H16.7674ZM4.99698 23.5327V23.0909H7.318V23.5327H6.41886V26H5.89613V23.5327H4.99698ZM10.236 24.5455C10.236 24.8589 10.1773 25.1274 10.0598 25.3509C9.94336 25.5734 9.78427 25.7438 9.58256 25.8622C9.38181 25.9806 9.15406 26.0398 8.89933 26.0398C8.64459 26.0398 8.41637 25.9806 8.21467 25.8622C8.01391 25.7429 7.85482 25.572 7.73739 25.3494C7.62092 25.1259 7.56268 24.858 7.56268 24.5455C7.56268 24.232 7.62092 23.964 7.73739 23.7415C7.85482 23.518 8.01391 23.3471 8.21467 23.2287C8.41637 23.1103 8.64459 23.0511 8.89933 23.0511C9.15406 23.0511 9.38181 23.1103 9.58256 23.2287C9.78427 23.3471 9.94336 23.518 10.0598 23.7415C10.1773 23.964 10.236 24.232 10.236 24.5455ZM9.70614 24.5455C9.70614 24.3248 9.67158 24.1387 9.60245 23.9872C9.53427 23.8348 9.43957 23.7197 9.31836 23.642C9.19715 23.5634 9.05747 23.5241 8.89933 23.5241C8.74118 23.5241 8.6015 23.5634 8.48029 23.642C8.35908 23.7197 8.26391 23.8348 8.19478 23.9872C8.1266 24.1387 8.09251 24.3248 8.09251 24.5455C8.09251 24.7661 8.1266 24.9527 8.19478 25.1051C8.26391 25.2566 8.35908 25.3717 8.48029 25.4503C8.6015 25.5279 8.74118 25.5668 8.89933 25.5668C9.05747 25.5668 9.19715 25.5279 9.31836 25.4503C9.43957 25.3717 9.53427 25.2566 9.60245 25.1051C9.67158 24.9527 9.70614 24.7661 9.70614 24.5455ZM8.47461 22.7699C8.3998 22.7699 8.33493 22.7434 8.28001 22.6903C8.22603 22.6373 8.19904 22.5748 8.19904 22.5028C8.19904 22.4271 8.22603 22.3636 8.28001 22.3125C8.33493 22.2604 8.3998 22.2344 8.47461 22.2344C8.55131 22.2344 8.61571 22.2604 8.66779 22.3125C8.72082 22.3636 8.74734 22.4271 8.74734 22.5028C8.74734 22.5748 8.72082 22.6373 8.66779 22.6903C8.61571 22.7434 8.55131 22.7699 8.47461 22.7699ZM9.32688 22.7699C9.25207 22.7699 9.1872 22.7434 9.13228 22.6903C9.0783 22.6373 9.05131 22.5748 9.05131 22.5028C9.05131 22.4271 9.0783 22.3636 9.13228 22.3125C9.1872 22.2604 9.25207 22.2344 9.32688 22.2344C9.40359 22.2344 9.46798 22.2604 9.52006 22.3125C9.57309 22.3636 9.59961 22.4271 9.59961 22.5028C9.59961 22.5748 9.57309 22.6373 9.52006 22.6903C9.46798 22.7434 9.40359 22.7699 9.32688 22.7699ZM10.7342 26V23.0909H11.2612V25.5582H12.5424V26H10.7342ZM12.9998 26V23.0909H14.8919V23.5327H13.5268V24.3224H14.7939V24.7642H13.5268V25.5582H14.9032V26H12.9998ZM17.3784 24.0199C17.3547 23.9432 17.322 23.8745 17.2804 23.8139C17.2396 23.7524 17.1904 23.6998 17.1326 23.6562C17.0758 23.6127 17.0105 23.58 16.9366 23.5582C16.8627 23.5355 16.7823 23.5241 16.6951 23.5241C16.5389 23.5241 16.3997 23.5634 16.2775 23.642C16.1554 23.7206 16.0592 23.8362 15.9892 23.9886C15.92 24.1402 15.8855 24.3248 15.8855 24.5426C15.8855 24.7623 15.92 24.9484 15.9892 25.1009C16.0583 25.2533 16.1544 25.3693 16.2775 25.4489C16.4006 25.5275 16.5436 25.5668 16.7065 25.5668C16.8542 25.5668 16.9821 25.5384 17.09 25.4815C17.1989 25.4247 17.2827 25.3442 17.3414 25.2401C17.4002 25.1349 17.4295 25.0118 17.4295 24.8707L17.5488 24.8892H16.7591V24.4773H17.9395V24.8267C17.9395 25.0758 17.8864 25.2912 17.7804 25.473C17.6743 25.6548 17.5285 25.795 17.3429 25.8935C17.1573 25.991 16.9442 26.0398 16.7037 26.0398C16.4357 26.0398 16.2003 25.9796 15.9977 25.8594C15.796 25.7382 15.6383 25.5663 15.5247 25.3438C15.412 25.1203 15.3556 24.8551 15.3556 24.5483C15.3556 24.3134 15.3888 24.1037 15.4551 23.919C15.5223 23.7344 15.6161 23.5777 15.7363 23.4489C15.8566 23.3191 15.9977 23.2206 16.1596 23.1534C16.3216 23.0852 16.4977 23.0511 16.688 23.0511C16.849 23.0511 16.9991 23.0748 17.1383 23.1222C17.2775 23.1686 17.4011 23.2348 17.5091 23.321C17.618 23.4072 17.7074 23.5095 17.7775 23.6278C17.8476 23.7462 17.8935 23.8769 17.9153 24.0199H17.3784Z" fill="white"/>
<defs>
<clipPath id="clip0_691_7012">
<rect width="11" height="11" fill="white" transform="translate(6 4)"/>
</clipPath>
</defs>
</svg>
