<svg width="38" height="38" viewBox="0 0 38 38" fill="none" xmlns="http://www.w3.org/2000/svg">
<circle cx="18.5143" cy="18.5143" r="18.5143" fill="white"/>
<circle cx="18.5" cy="18.5" r="17.5" fill="#C01B15"/>
<path d="M10.6509 17.6364V22H9.86044V18.4055H9.83487L8.81428 19.0575V18.3331L9.89879 17.6364H10.6509ZM14.1974 22.0661C13.9901 22.0661 13.8033 22.0291 13.6371 21.9553C13.4723 21.88 13.3416 21.7692 13.245 21.6229C13.1499 21.4766 13.1023 21.2962 13.1023 21.0817C13.1023 20.897 13.1364 20.7443 13.2045 20.6236C13.2727 20.5028 13.3658 20.4062 13.4837 20.3338C13.6016 20.2614 13.7344 20.2067 13.8821 20.1697C14.0313 20.1314 14.1854 20.1037 14.3445 20.0866C14.5362 20.0668 14.6918 20.049 14.8111 20.0334C14.9304 20.0163 15.017 19.9908 15.071 19.9567C15.1264 19.9212 15.1541 19.8665 15.1541 19.7926V19.7798C15.1541 19.6193 15.1065 19.495 15.0114 19.407C14.9162 19.3189 14.7791 19.2749 14.6001 19.2749C14.4112 19.2749 14.2614 19.3161 14.1506 19.3984C14.0412 19.4808 13.9673 19.5781 13.929 19.6903L13.2088 19.5881C13.2656 19.3892 13.3594 19.223 13.4901 19.0895C13.6207 18.9545 13.7805 18.8537 13.9695 18.7869C14.1584 18.7188 14.3672 18.6847 14.5959 18.6847C14.7536 18.6847 14.9105 18.7031 15.0668 18.7401C15.223 18.777 15.3658 18.8381 15.495 18.9233C15.6243 19.0071 15.728 19.1214 15.8061 19.2663C15.8857 19.4112 15.9254 19.5923 15.9254 19.8097V22H15.1839V21.5504H15.1584C15.1115 21.6413 15.0455 21.7266 14.9602 21.8061C14.8764 21.8842 14.7706 21.9474 14.6428 21.9957C14.5163 22.0426 14.3679 22.0661 14.1974 22.0661ZM14.3977 21.4993C14.5526 21.4993 14.6868 21.4687 14.8004 21.4077C14.9141 21.3452 15.0014 21.2628 15.0625 21.1605C15.125 21.0582 15.1562 20.9467 15.1562 20.826V20.4403C15.1321 20.4602 15.0909 20.4787 15.0327 20.4957C14.9759 20.5128 14.9119 20.5277 14.8409 20.5405C14.7699 20.5533 14.6996 20.5646 14.63 20.5746C14.5604 20.5845 14.5 20.593 14.4489 20.6001C14.3338 20.6158 14.2308 20.6413 14.1399 20.6768C14.049 20.7124 13.9773 20.7621 13.9247 20.826C13.8722 20.8885 13.8459 20.9695 13.8459 21.0689C13.8459 21.2109 13.8977 21.3182 14.0014 21.3906C14.1051 21.4631 14.2372 21.4993 14.3977 21.4993ZM17.4723 17.6364V22H16.701V17.6364H17.4723ZM19.2072 22.0661C18.9998 22.0661 18.813 22.0291 18.6468 21.9553C18.4821 21.88 18.3514 21.7692 18.2548 21.6229C18.1596 21.4766 18.112 21.2962 18.112 21.0817C18.112 20.897 18.1461 20.7443 18.2143 20.6236C18.2825 20.5028 18.3755 20.4062 18.4934 20.3338C18.6113 20.2614 18.7441 20.2067 18.8919 20.1697C19.041 20.1314 19.1951 20.1037 19.3542 20.0866C19.546 20.0668 19.7015 20.049 19.8208 20.0334C19.9402 20.0163 20.0268 19.9908 20.0808 19.9567C20.1362 19.9212 20.1639 19.8665 20.1639 19.7926V19.7798C20.1639 19.6193 20.1163 19.495 20.0211 19.407C19.926 19.3189 19.7889 19.2749 19.6099 19.2749C19.421 19.2749 19.2711 19.3161 19.1603 19.3984C19.051 19.4808 18.9771 19.5781 18.9387 19.6903L18.2186 19.5881C18.2754 19.3892 18.3691 19.223 18.4998 19.0895C18.6305 18.9545 18.7903 18.8537 18.9792 18.7869C19.1681 18.7188 19.377 18.6847 19.6056 18.6847C19.7633 18.6847 19.9203 18.7031 20.0765 18.7401C20.2328 18.777 20.3755 18.8381 20.5048 18.9233C20.6341 19.0071 20.7377 19.1214 20.8159 19.2663C20.8954 19.4112 20.9352 19.5923 20.9352 19.8097V22H20.1937V21.5504H20.1681C20.1213 21.6413 20.0552 21.7266 19.97 21.8061C19.8862 21.8842 19.7804 21.9474 19.6525 21.9957C19.5261 22.0426 19.3777 22.0661 19.2072 22.0661ZM19.4075 21.4993C19.5623 21.4993 19.6966 21.4687 19.8102 21.4077C19.9238 21.3452 20.0112 21.2628 20.0723 21.1605C20.1348 21.0582 20.166 20.9467 20.166 20.826V20.4403C20.1419 20.4602 20.1007 20.4787 20.0424 20.4957C19.9856 20.5128 19.9217 20.5277 19.8507 20.5405C19.7797 20.5533 19.7093 20.5646 19.6397 20.5746C19.5701 20.5845 19.5098 20.593 19.4586 20.6001C19.3436 20.6158 19.2406 20.6413 19.1497 20.6768C19.0588 20.7124 18.987 20.7621 18.9345 20.826C18.8819 20.8885 18.8556 20.9695 18.8556 21.0689C18.8556 21.2109 18.9075 21.3182 19.0112 21.3906C19.1149 21.4631 19.247 21.4993 19.4075 21.4993ZM22.4821 20.0824V22H21.7108V18.7273H22.448V19.2834H22.4863C22.5616 19.1001 22.6816 18.9545 22.8464 18.8466C23.0126 18.7386 23.2179 18.6847 23.4622 18.6847C23.688 18.6847 23.8848 18.733 24.0524 18.8295C24.2214 18.9261 24.3521 19.0661 24.4444 19.2493C24.5382 19.4325 24.5843 19.6548 24.5829 19.9162V22H23.8116V20.0355C23.8116 19.8168 23.7548 19.6456 23.6412 19.522C23.5289 19.3984 23.3734 19.3366 23.1745 19.3366C23.0396 19.3366 22.9196 19.3665 22.8145 19.4261C22.7108 19.4844 22.6291 19.5689 22.5694 19.6797C22.5112 19.7905 22.4821 19.9247 22.4821 20.0824ZM26.3088 22.0661C26.1014 22.0661 25.9146 22.0291 25.7484 21.9553C25.5836 21.88 25.4529 21.7692 25.3564 21.6229C25.2612 21.4766 25.2136 21.2962 25.2136 21.0817C25.2136 20.897 25.2477 20.7443 25.3159 20.6236C25.3841 20.5028 25.4771 20.4062 25.595 20.3338C25.7129 20.2614 25.8457 20.2067 25.9934 20.1697C26.1426 20.1314 26.2967 20.1037 26.4558 20.0866C26.6475 20.0668 26.8031 20.049 26.9224 20.0334C27.0417 20.0163 27.1284 19.9908 27.1824 19.9567C27.2377 19.9212 27.2654 19.8665 27.2654 19.7926V19.7798C27.2654 19.6193 27.2179 19.495 27.1227 19.407C27.0275 19.3189 26.8904 19.2749 26.7115 19.2749C26.5225 19.2749 26.3727 19.3161 26.2619 19.3984C26.1525 19.4808 26.0787 19.5781 26.0403 19.6903L25.3201 19.5881C25.377 19.3892 25.4707 19.223 25.6014 19.0895C25.7321 18.9545 25.8919 18.8537 26.0808 18.7869C26.2697 18.7188 26.4785 18.6847 26.7072 18.6847C26.8649 18.6847 27.0218 18.7031 27.1781 18.7401C27.3343 18.777 27.4771 18.8381 27.6064 18.9233C27.7356 19.0071 27.8393 19.1214 27.9174 19.2663C27.997 19.4112 28.0368 19.5923 28.0368 19.8097V22H27.2953V21.5504H27.2697C27.2228 21.6413 27.1568 21.7266 27.0716 21.8061C26.9877 21.8842 26.8819 21.9474 26.7541 21.9957C26.6277 22.0426 26.4792 22.0661 26.3088 22.0661ZM26.5091 21.4993C26.6639 21.4993 26.7981 21.4687 26.9118 21.4077C27.0254 21.3452 27.1127 21.2628 27.1738 21.1605C27.2363 21.0582 27.2676 20.9467 27.2676 20.826V20.4403C27.2434 20.4602 27.2022 20.4787 27.144 20.4957C27.0872 20.5128 27.0233 20.5277 26.9522 20.5405C26.8812 20.5533 26.8109 20.5646 26.7413 20.5746C26.6717 20.5845 26.6113 20.593 26.5602 20.6001C26.4451 20.6158 26.3422 20.6413 26.2512 20.6768C26.1603 20.7124 26.0886 20.7621 26.036 20.826C25.9835 20.8885 25.9572 20.9695 25.9572 21.0689C25.9572 21.2109 26.0091 21.3182 26.1127 21.3906C26.2164 21.4631 26.3485 21.4993 26.5091 21.4993ZM9.98295 26.5923L9.27983 26.669C9.25994 26.598 9.22514 26.5312 9.17543 26.4688C9.12713 26.4062 9.06179 26.3558 8.9794 26.3175C8.89702 26.2791 8.79616 26.2599 8.67685 26.2599C8.51634 26.2599 8.38139 26.2947 8.27202 26.3643C8.16406 26.4339 8.1108 26.5241 8.11222 26.6349C8.1108 26.7301 8.1456 26.8075 8.21662 26.8672C8.28906 26.9268 8.40838 26.9759 8.57457 27.0142L9.13281 27.1335C9.44247 27.2003 9.67259 27.3061 9.82315 27.451C9.97514 27.5959 10.0518 27.7855 10.0533 28.0199C10.0518 28.2259 9.99148 28.4077 9.87216 28.5653C9.75426 28.7216 9.5902 28.8437 9.37997 28.9318C9.16974 29.0199 8.92827 29.0639 8.65554 29.0639C8.25497 29.0639 7.93253 28.9801 7.68821 28.8125C7.44389 28.6435 7.2983 28.4084 7.25142 28.1072L8.00355 28.0348C8.03764 28.1825 8.11009 28.294 8.22088 28.3693C8.33168 28.4446 8.47585 28.4822 8.65341 28.4822C8.83665 28.4822 8.98366 28.4446 9.09446 28.3693C9.20668 28.294 9.26278 28.201 9.26278 28.0902C9.26278 27.9964 9.22656 27.919 9.15412 27.858C9.0831 27.7969 8.9723 27.75 8.82173 27.7173L8.26349 27.6001C7.94957 27.5348 7.71733 27.4247 7.56676 27.2699C7.41619 27.1136 7.34162 26.9162 7.34304 26.6776C7.34162 26.4759 7.39631 26.3011 7.5071 26.1534C7.61932 26.0043 7.77486 25.8892 7.97372 25.8082C8.17401 25.7259 8.40483 25.6847 8.66619 25.6847C9.04972 25.6847 9.35156 25.7663 9.57173 25.9297C9.79332 26.093 9.9304 26.3139 9.98295 26.5923ZM12.1168 29.0639C11.7972 29.0639 11.5202 28.9936 11.2859 28.853C11.0515 28.7124 10.8697 28.5156 10.7404 28.2628C10.6126 28.0099 10.5487 27.7145 10.5487 27.3764C10.5487 27.0384 10.6126 26.7422 10.7404 26.4879C10.8697 26.2337 11.0515 26.0362 11.2859 25.8956C11.5202 25.755 11.7972 25.6847 12.1168 25.6847C12.4364 25.6847 12.7134 25.755 12.9478 25.8956C13.1822 26.0362 13.3633 26.2337 13.4911 26.4879C13.6204 26.7422 13.685 27.0384 13.685 27.3764C13.685 27.7145 13.6204 28.0099 13.4911 28.2628C13.3633 28.5156 13.1822 28.7124 12.9478 28.853C12.7134 28.9936 12.4364 29.0639 12.1168 29.0639ZM12.1211 28.446C12.2944 28.446 12.4393 28.3984 12.5558 28.3033C12.6722 28.2067 12.7589 28.0774 12.8157 27.9155C12.8739 27.7536 12.9031 27.5732 12.9031 27.3743C12.9031 27.174 12.8739 26.9929 12.8157 26.831C12.7589 26.6676 12.6722 26.5376 12.5558 26.4411C12.4393 26.3445 12.2944 26.2962 12.1211 26.2962C11.9435 26.2962 11.7958 26.3445 11.6779 26.4411C11.5614 26.5376 11.4741 26.6676 11.4158 26.831C11.359 26.9929 11.3306 27.174 11.3306 27.3743C11.3306 27.5732 11.359 27.7536 11.4158 27.9155C11.4741 28.0774 11.5614 28.2067 11.6779 28.3033C11.7958 28.3984 11.9435 28.446 12.1211 28.446ZM14.9213 29L13.9966 25.7273H14.7828L15.3581 28.0284H15.388L15.976 25.7273H16.7537L17.3418 28.0156H17.3738L17.9405 25.7273H18.7289L17.802 29H16.9988L16.3851 26.7884H16.3404L15.7267 29H14.9213ZM20.5969 30.2955C20.32 30.2955 20.082 30.2578 19.8832 30.1825C19.6843 30.1087 19.5245 30.0092 19.4038 29.8842C19.283 29.7592 19.1992 29.6207 19.1523 29.4688L19.8469 29.3004C19.8782 29.3643 19.9237 29.4276 19.9833 29.4901C20.043 29.554 20.1232 29.6065 20.2241 29.6477C20.3263 29.6903 20.4549 29.7116 20.6097 29.7116C20.8285 29.7116 21.0096 29.6584 21.1531 29.5518C21.2965 29.4467 21.3683 29.2734 21.3683 29.032V28.4119H21.3299C21.2901 28.4915 21.2319 28.5732 21.1552 28.657C21.0799 28.7408 20.9798 28.8111 20.8548 28.8679C20.7312 28.9247 20.5756 28.9531 20.3881 28.9531C20.1367 28.9531 19.9087 28.8942 19.7042 28.7763C19.5011 28.657 19.3391 28.4794 19.2184 28.2436C19.0991 28.0064 19.0394 27.7095 19.0394 27.353C19.0394 26.9936 19.0991 26.6903 19.2184 26.4432C19.3391 26.1946 19.5018 26.0064 19.7063 25.8786C19.9109 25.7493 20.1388 25.6847 20.3903 25.6847C20.582 25.6847 20.7397 25.7173 20.8633 25.7827C20.9883 25.8466 21.0877 25.924 21.1616 26.0149C21.2354 26.1044 21.2915 26.1889 21.3299 26.2685H21.3725V25.7273H22.1332V29.0533C22.1332 29.3331 22.0664 29.5646 21.9329 29.7479C21.7994 29.9311 21.6168 30.0682 21.3853 30.1591C21.1538 30.25 20.891 30.2955 20.5969 30.2955ZM20.6033 28.348C20.7667 28.348 20.9059 28.3082 21.021 28.2287C21.136 28.1491 21.2234 28.0348 21.283 27.8857C21.3427 27.7365 21.3725 27.5575 21.3725 27.3487C21.3725 27.1428 21.3427 26.9624 21.283 26.8075C21.2248 26.6527 21.1381 26.5327 21.0231 26.4474C20.9094 26.3608 20.7695 26.3175 20.6033 26.3175C20.4315 26.3175 20.288 26.3622 20.1729 26.4517C20.0579 26.5412 19.9712 26.6641 19.913 26.8203C19.8548 26.9751 19.8256 27.1513 19.8256 27.3487C19.8256 27.549 19.8548 27.7244 19.913 27.875C19.9727 28.0241 20.06 28.1406 20.1751 28.2244C20.2915 28.3068 20.4343 28.348 20.6033 28.348ZM23.8654 29.0661C23.658 29.0661 23.4712 29.0291 23.305 28.9553C23.1403 28.88 23.0096 28.7692 22.913 28.6229C22.8178 28.4766 22.7702 28.2962 22.7702 28.0817C22.7702 27.897 22.8043 27.7443 22.8725 27.6236C22.9407 27.5028 23.0337 27.4062 23.1516 27.3338C23.2695 27.2614 23.4023 27.2067 23.5501 27.1697C23.6992 27.1314 23.8533 27.1037 24.0124 27.0866C24.2042 27.0668 24.3597 27.049 24.479 27.0334C24.5984 27.0163 24.685 26.9908 24.739 26.9567C24.7944 26.9212 24.8221 26.8665 24.8221 26.7926V26.7798C24.8221 26.6193 24.7745 26.495 24.6793 26.407C24.5842 26.3189 24.4471 26.2749 24.2681 26.2749C24.0792 26.2749 23.9293 26.3161 23.8185 26.3984C23.7092 26.4808 23.6353 26.5781 23.5969 26.6903L22.8768 26.5881C22.9336 26.3892 23.0273 26.223 23.158 26.0895C23.2887 25.9545 23.4485 25.8537 23.6374 25.7869C23.8263 25.7188 24.0352 25.6847 24.2638 25.6847C24.4215 25.6847 24.5785 25.7031 24.7347 25.7401C24.891 25.777 25.0337 25.8381 25.163 25.9233C25.2923 26.0071 25.396 26.1214 25.4741 26.2663C25.5536 26.4112 25.5934 26.5923 25.5934 26.8097V29H24.8519V28.5504H24.8263C24.7795 28.6413 24.7134 28.7266 24.6282 28.8061C24.5444 28.8842 24.4386 28.9474 24.3107 28.9957C24.1843 29.0426 24.0359 29.0661 23.8654 29.0661ZM24.0657 28.4993C24.2205 28.4993 24.3548 28.4687 24.4684 28.4077C24.582 28.3452 24.6694 28.2628 24.7305 28.1605C24.793 28.0582 24.8242 27.9467 24.8242 27.826V27.4403C24.8001 27.4602 24.7589 27.4787 24.7006 27.4957C24.6438 27.5128 24.5799 27.5277 24.5089 27.5405C24.4379 27.5533 24.3675 27.5646 24.2979 27.5746C24.2283 27.5845 24.168 27.593 24.1168 27.6001C24.0018 27.6158 23.8988 27.6413 23.8079 27.6768C23.717 27.7124 23.6452 27.7621 23.5927 27.826C23.5401 27.8885 23.5138 27.9695 23.5138 28.0689C23.5138 28.2109 23.5657 28.3182 23.6694 28.3906C23.7731 28.4631 23.9052 28.4993 24.0657 28.4993ZM28.0032 25.7273V26.3239H26.1218V25.7273H28.0032ZM26.5863 24.9432H27.3576V28.0156C27.3576 28.1193 27.3732 28.1989 27.4045 28.2543C27.4371 28.3082 27.4798 28.3452 27.5323 28.3651C27.5849 28.3849 27.6431 28.3949 27.707 28.3949C27.7553 28.3949 27.7994 28.3913 27.8391 28.3842C27.8803 28.3771 27.9116 28.3707 27.9329 28.3651L28.0629 28.968C28.0217 28.9822 27.9627 28.9979 27.886 29.0149C27.8107 29.032 27.7184 29.0419 27.609 29.0447C27.4158 29.0504 27.2418 29.0213 27.087 28.9574C26.9322 28.892 26.8093 28.7912 26.7184 28.6548C26.6289 28.5185 26.5849 28.348 26.5863 28.1435V24.9432ZM29.5922 24.6364L29.5218 27.7173H28.8358L28.7676 24.6364H29.5922ZM29.1788 29.0469C29.0495 29.0469 28.9387 29.0014 28.8464 28.9105C28.7555 28.8196 28.71 28.7088 28.71 28.5781C28.71 28.4503 28.7555 28.3409 28.8464 28.25C28.9387 28.1591 29.0495 28.1136 29.1788 28.1136C29.3052 28.1136 29.4146 28.1591 29.5069 28.25C29.6007 28.3409 29.6475 28.4503 29.6475 28.5781C29.6475 28.6648 29.6255 28.7436 29.5815 28.8146C29.5389 28.8857 29.4821 28.9425 29.411 28.9851C29.3414 29.0263 29.264 29.0469 29.1788 29.0469Z" fill="white"/>
<path d="M15.6154 12.8564C15.6154 13.1597 15.7451 13.4506 15.9759 13.665C16.2067 13.8795 16.5197 14 16.8462 14H18.6154C18.6358 14 18.6554 13.9925 18.6698 13.9791C18.6842 13.9657 18.6923 13.9475 18.6923 13.9285V10.6406C18.6923 10.6216 18.6842 10.6034 18.6698 10.59C18.6554 10.5766 18.6358 10.5691 18.6154 10.5691H15.7692C15.7284 10.5691 15.6893 10.5841 15.6604 10.6109C15.6316 10.6378 15.6154 10.6741 15.6154 10.712V12.8564ZM18.6923 9.92578V7.99588H19.3077V9.92578C19.3077 9.94473 19.3158 9.96291 19.3302 9.97632C19.3446 9.98972 19.3642 9.99725 19.3846 9.99725H22.0769C22.1817 9.99726 22.2858 9.98064 22.3846 9.94811C22.5644 9.88879 22.7201 9.77924 22.8303 9.63447C22.9404 9.48971 22.9997 9.31683 23 9.13952V8.85361C23 8.62613 22.9027 8.40796 22.7296 8.2471C22.5565 8.08625 22.3217 7.99588 22.0769 7.99588H21.2973C21.2906 7.99578 21.2841 7.99406 21.2783 7.99088C21.2725 7.9877 21.2678 7.98318 21.2645 7.97777C21.2612 7.97235 21.2594 7.96622 21.2595 7.96C21.2595 7.95377 21.2613 7.94766 21.2646 7.94227C21.4427 7.66295 21.5005 7.33142 21.4265 7.01414C21.3525 6.69686 21.1522 6.41731 20.8657 6.23152C20.5792 6.04573 20.2277 5.96746 19.8817 6.01238C19.5357 6.05731 19.2207 6.22212 19 6.47376C18.7793 6.22212 18.4643 6.05731 18.1183 6.01238C17.7723 5.96746 17.4208 6.04573 17.1343 6.23152C16.8478 6.41731 16.6475 6.69686 16.5735 7.01414C16.4995 7.33142 16.5573 7.66295 16.7354 7.94227C16.7387 7.94766 16.7405 7.95377 16.7405 7.96C16.7406 7.96622 16.7388 7.97235 16.7355 7.97777C16.7322 7.98318 16.7275 7.9877 16.7217 7.99088C16.7159 7.99406 16.7094 7.99578 16.7027 7.99588H15.9231C15.6783 7.99588 15.4435 8.08625 15.2704 8.2471C15.0973 8.40796 15 8.62613 15 8.85361V9.13952C15.0003 9.31683 15.0596 9.48971 15.1697 9.63447C15.2799 9.77924 15.4356 9.88879 15.6154 9.94811C15.7142 9.98064 15.8183 9.99726 15.9231 9.99725H18.6154C18.6358 9.99725 18.6554 9.98972 18.6698 9.97632C18.6842 9.96291 18.6923 9.94473 18.6923 9.92578ZM19.3077 7.2811C19.3077 7.13973 19.3528 7.00154 19.4373 6.884C19.5219 6.76645 19.642 6.67484 19.7826 6.62074C19.9231 6.56664 20.0778 6.55248 20.227 6.58006C20.3762 6.60764 20.5133 6.67572 20.6209 6.77568C20.7284 6.87564 20.8017 7.00301 20.8314 7.14166C20.8611 7.28031 20.8458 7.42403 20.7876 7.55464C20.7294 7.68525 20.6308 7.79688 20.5043 7.87542C20.3778 7.95396 20.2291 7.99588 20.0769 7.99588H19.3077V7.2811ZM17.8681 6.56811C17.9735 6.5611 18.0793 6.57432 18.1789 6.60698C18.2786 6.63963 18.3699 6.691 18.4472 6.7579C18.5245 6.82479 18.5862 6.90577 18.6284 6.99579C18.6706 7.0858 18.6923 7.18293 18.6923 7.2811V7.99588H17.9231C17.7242 7.99541 17.5332 7.92336 17.3902 7.79485C17.2473 7.66635 17.1634 7.49139 17.1563 7.30668C17.1492 7.12197 17.2194 6.94188 17.3521 6.80421C17.4848 6.66654 17.6697 6.58198 17.8681 6.56829V6.56811ZM19.3846 14H21.1538C21.4803 14 21.7933 13.8795 22.0241 13.665C22.2549 13.4506 22.3846 13.1597 22.3846 12.8564V10.712C22.3846 10.6741 22.3684 10.6378 22.3396 10.6109C22.3107 10.5841 22.2716 10.5691 22.2308 10.5691H19.3846C19.3642 10.5691 19.3446 10.5766 19.3302 10.59C19.3158 10.6034 19.3077 10.6216 19.3077 10.6406V13.9285C19.3077 13.9475 19.3158 13.9657 19.3302 13.9791C19.3446 13.9925 19.3642 14 19.3846 14Z" fill="white"/>
</svg>
