<svg width="38" height="38" viewBox="0 0 38 38" fill="none" xmlns="http://www.w3.org/2000/svg">
<circle cx="18.5143" cy="18.5143" r="18.5143" fill="#C01B15"/>
<path d="M6.45241 14V13.3338L8.21982 11.6012C8.38885 11.4305 8.52971 11.2789 8.6424 11.1463C8.75509 11.0137 8.83961 10.8853 8.89595 10.761C8.9523 10.6367 8.98047 10.5041 8.98047 10.3633C8.98047 10.2025 8.94401 10.065 8.87109 9.95064C8.79818 9.83464 8.69792 9.74515 8.57031 9.68217C8.44271 9.6192 8.2977 9.58771 8.1353 9.58771C7.96792 9.58771 7.82126 9.62251 7.69531 9.69212C7.56937 9.76006 7.47159 9.85701 7.40199 9.98295C7.33404 10.1089 7.30007 10.2589 7.30007 10.4329H6.42259C6.42259 10.1097 6.49633 9.82884 6.64382 9.5902C6.79131 9.35156 6.99432 9.16678 7.25284 9.03587C7.51302 8.90495 7.81132 8.83949 8.14773 8.83949C8.48911 8.83949 8.78906 8.90329 9.04759 9.03089C9.30611 9.1585 9.50663 9.33333 9.64915 9.5554C9.79332 9.77746 9.86541 10.031 9.86541 10.3161C9.86541 10.5066 9.82895 10.6939 9.75604 10.8778C9.68312 11.0618 9.55469 11.2656 9.37074 11.4893C9.18845 11.7131 8.93241 11.984 8.60263 12.3022L7.72514 13.1946V13.2294H9.94247V14H6.45241ZM13.6451 14.0771C13.4031 14.0771 13.1852 14.034 12.9913 13.9478C12.7991 13.86 12.6466 13.7307 12.5339 13.56C12.4229 13.3893 12.3674 13.1789 12.3674 12.9286C12.3674 12.7132 12.4071 12.535 12.4867 12.3942C12.5662 12.2533 12.6748 12.1406 12.8123 12.0561C12.9499 11.9716 13.1048 11.9078 13.2772 11.8647C13.4512 11.82 13.631 11.7876 13.8166 11.7678C14.0403 11.7446 14.2218 11.7238 14.361 11.7056C14.5002 11.6857 14.6013 11.6559 14.6642 11.6161C14.7289 11.5747 14.7612 11.5109 14.7612 11.4247V11.4098C14.7612 11.2225 14.7057 11.0775 14.5946 10.9748C14.4836 10.872 14.3237 10.8207 14.1149 10.8207C13.8945 10.8207 13.7196 10.8687 13.5904 10.9648C13.4628 11.061 13.3766 11.1745 13.3319 11.3054L12.4917 11.1861C12.5579 10.9541 12.6673 10.7602 12.8198 10.6044C12.9722 10.447 13.1587 10.3293 13.3791 10.2514C13.5995 10.1719 13.8431 10.1321 14.1099 10.1321C14.2939 10.1321 14.477 10.1536 14.6593 10.1967C14.8416 10.2398 15.0081 10.3111 15.1589 10.4105C15.3097 10.5083 15.4307 10.6417 15.5218 10.8107C15.6146 10.9798 15.661 11.1911 15.661 11.4446V14H14.796V13.4755H14.7662C14.7115 13.5816 14.6344 13.681 14.535 13.7738C14.4372 13.8649 14.3137 13.9387 14.1646 13.995C14.0171 14.0497 13.8439 14.0771 13.6451 14.0771ZM13.8787 13.4158C14.0594 13.4158 14.216 13.3802 14.3485 13.3089C14.4811 13.236 14.583 13.1399 14.6543 13.0206C14.7272 12.9013 14.7637 12.7712 14.7637 12.6303V12.1804C14.7355 12.2036 14.6874 12.2251 14.6195 12.245C14.5532 12.2649 14.4786 12.2823 14.3958 12.2972C14.3129 12.3121 14.2309 12.3254 14.1497 12.337C14.0685 12.3486 13.998 12.3585 13.9384 12.3668C13.8042 12.3851 13.684 12.4149 13.5779 12.4563C13.4719 12.4978 13.3882 12.5558 13.3269 12.6303C13.2656 12.7032 13.2349 12.7977 13.2349 12.9137C13.2349 13.0794 13.2954 13.2045 13.4164 13.2891C13.5373 13.3736 13.6915 13.4158 13.8787 13.4158ZM17.4657 8.90909V14H16.5659V8.90909H17.4657ZM19.4898 14.0771C19.2478 14.0771 19.0299 14.034 18.836 13.9478C18.6438 13.86 18.4913 13.7307 18.3786 13.56C18.2676 13.3893 18.2121 13.1789 18.2121 12.9286C18.2121 12.7132 18.2519 12.535 18.3314 12.3942C18.411 12.2533 18.5195 12.1406 18.657 12.0561C18.7946 11.9716 18.9495 11.9078 19.1219 11.8647C19.2959 11.82 19.4757 11.7876 19.6613 11.7678C19.885 11.7446 20.0665 11.7238 20.2057 11.7056C20.3449 11.6857 20.446 11.6559 20.509 11.6161C20.5736 11.5747 20.6059 11.5109 20.6059 11.4247V11.4098C20.6059 11.2225 20.5504 11.0775 20.4394 10.9748C20.3283 10.872 20.1684 10.8207 19.9596 10.8207C19.7392 10.8207 19.5644 10.8687 19.4351 10.9648C19.3075 11.061 19.2213 11.1745 19.1766 11.3054L18.3364 11.1861C18.4027 10.9541 18.512 10.7602 18.6645 10.6044C18.817 10.447 19.0034 10.3293 19.2238 10.2514C19.4442 10.1719 19.6878 10.1321 19.9546 10.1321C20.1386 10.1321 20.3217 10.1536 20.504 10.1967C20.6863 10.2398 20.8528 10.3111 21.0036 10.4105C21.1544 10.5083 21.2754 10.6417 21.3666 10.8107C21.4594 10.9798 21.5058 11.1911 21.5058 11.4446V14H20.6407V13.4755H20.6109C20.5562 13.5816 20.4791 13.681 20.3797 13.7738C20.2819 13.8649 20.1585 13.9387 20.0093 13.995C19.8618 14.0497 19.6887 14.0771 19.4898 14.0771ZM19.7235 13.4158C19.9041 13.4158 20.0607 13.3802 20.1933 13.3089C20.3258 13.236 20.4278 13.1399 20.499 13.0206C20.5719 12.9013 20.6084 12.7712 20.6084 12.6303V12.1804C20.5802 12.2036 20.5322 12.2251 20.4642 12.245C20.3979 12.2649 20.3234 12.2823 20.2405 12.2972C20.1576 12.3121 20.0756 12.3254 19.9944 12.337C19.9132 12.3486 19.8428 12.3585 19.7831 12.3668C19.6489 12.3851 19.5287 12.4149 19.4227 12.4563C19.3166 12.4978 19.2329 12.5558 19.1716 12.6303C19.1103 12.7032 19.0796 12.7977 19.0796 12.9137C19.0796 13.0794 19.1401 13.2045 19.2611 13.2891C19.3821 13.3736 19.5362 13.4158 19.7235 13.4158ZM23.3105 11.7628V14H22.4106V10.1818H23.2707V10.8306H23.3154C23.4033 10.6168 23.5433 10.447 23.7355 10.321C23.9294 10.1951 24.1689 10.1321 24.4539 10.1321C24.7174 10.1321 24.9469 10.1884 25.1425 10.3011C25.3397 10.4138 25.4922 10.5771 25.5999 10.7908C25.7093 11.0046 25.7631 11.264 25.7615 11.5689V14H24.8616V11.7081C24.8616 11.4529 24.7953 11.2532 24.6627 11.109C24.5318 10.9648 24.3503 10.8928 24.1183 10.8928C23.9609 10.8928 23.8209 10.9276 23.6982 10.9972C23.5773 11.0651 23.482 11.1637 23.4124 11.293C23.3444 11.4222 23.3105 11.5788 23.3105 11.7628ZM27.7749 14.0771C27.533 14.0771 27.3151 14.034 27.1212 13.9478C26.9289 13.86 26.7765 13.7307 26.6638 13.56C26.5528 13.3893 26.4972 13.1789 26.4972 12.9286C26.4972 12.7132 26.537 12.535 26.6166 12.3942C26.6961 12.2533 26.8047 12.1406 26.9422 12.0561C27.0798 11.9716 27.2347 11.9078 27.407 11.8647C27.5811 11.82 27.7609 11.7876 27.9465 11.7678C28.1702 11.7446 28.3517 11.7238 28.4909 11.7056C28.6301 11.6857 28.7311 11.6559 28.7941 11.6161C28.8588 11.5747 28.8911 11.5109 28.8911 11.4247V11.4098C28.8911 11.2225 28.8356 11.0775 28.7245 10.9748C28.6135 10.872 28.4536 10.8207 28.2448 10.8207C28.0244 10.8207 27.8495 10.8687 27.7203 10.9648C27.5927 11.061 27.5065 11.1745 27.4617 11.3054L26.6215 11.1861C26.6878 10.9541 26.7972 10.7602 26.9497 10.6044C27.1021 10.447 27.2886 10.3293 27.509 10.2514C27.7294 10.1719 27.973 10.1321 28.2398 10.1321C28.4237 10.1321 28.6069 10.1536 28.7892 10.1967C28.9714 10.2398 29.138 10.3111 29.2888 10.4105C29.4396 10.5083 29.5606 10.6417 29.6517 10.8107C29.7445 10.9798 29.7909 11.1911 29.7909 11.4446V14H28.9259V13.4755H28.896C28.8414 13.5816 28.7643 13.681 28.6649 13.7738C28.5671 13.8649 28.4436 13.9387 28.2945 13.995C28.147 14.0497 27.9738 14.0771 27.7749 14.0771ZM28.0086 13.4158C28.1892 13.4158 28.3459 13.3802 28.4784 13.3089C28.611 13.236 28.7129 13.1399 28.7842 13.0206C28.8571 12.9013 28.8936 12.7712 28.8936 12.6303V12.1804C28.8654 12.2036 28.8173 12.2251 28.7494 12.245C28.6831 12.2649 28.6085 12.2823 28.5257 12.2972C28.4428 12.3121 28.3608 12.3254 28.2796 12.337C28.1984 12.3486 28.1279 12.3585 28.0683 12.3668C27.934 12.3851 27.8139 12.4149 27.7078 12.4563C27.6018 12.4978 27.5181 12.5558 27.4568 12.6303C27.3954 12.7032 27.3648 12.7977 27.3648 12.9137C27.3648 13.0794 27.4253 13.2045 27.5463 13.2891C27.6672 13.3736 27.8213 13.4158 28.0086 13.4158Z" fill="white"/>
<path d="M9.52308 23.3091V28.4H8.60085V24.2065H8.57102L7.38033 24.9671V24.122L8.6456 23.3091H9.52308ZM12.562 28.4V24.5818H13.4221V25.2306H13.4668C13.5463 25.0119 13.6781 24.8412 13.862 24.7186C14.046 24.5943 14.2656 24.5321 14.5208 24.5321C14.7793 24.5321 14.9972 24.5951 15.1745 24.721C15.3535 24.8453 15.4795 25.0152 15.5524 25.2306H15.5922C15.6767 25.0185 15.8192 24.8495 16.0197 24.7235C16.2219 24.5959 16.4614 24.5321 16.7381 24.5321C17.0894 24.5321 17.3761 24.6432 17.5982 24.8652C17.8203 25.0873 17.9313 25.4113 17.9313 25.8372V28.4H17.0289V25.9764C17.0289 25.7394 16.966 25.5662 16.84 25.4568C16.7141 25.3458 16.56 25.2903 16.3777 25.2903C16.1606 25.2903 15.9907 25.3582 15.8681 25.4941C15.7471 25.6284 15.6866 25.8032 15.6866 26.0186V28.4H14.8042V25.9391C14.8042 25.7419 14.7445 25.5844 14.6252 25.4668C14.5075 25.3491 14.3534 25.2903 14.1628 25.2903C14.0336 25.2903 13.9159 25.3234 13.8098 25.3897C13.7038 25.4544 13.6193 25.5463 13.5563 25.6656C13.4933 25.7833 13.4618 25.9209 13.4618 26.0783V28.4H12.562ZM21.2778 26.7942V24.5818H22.1776V28.4H21.3051V27.7214H21.2654C21.1792 27.9352 21.0375 28.11 20.8403 28.2459C20.6447 28.3818 20.4036 28.4497 20.1169 28.4497C19.8667 28.4497 19.6454 28.3942 19.4532 28.2832C19.2626 28.1705 19.1135 28.0073 19.0058 27.7935C18.8981 27.5781 18.8442 27.3179 18.8442 27.013V24.5818H19.7441V26.8737C19.7441 27.1157 19.8103 27.3079 19.9429 27.4505C20.0755 27.593 20.2495 27.6642 20.4649 27.6642C20.5975 27.6642 20.7259 27.6319 20.8502 27.5673C20.9745 27.5027 21.0764 27.4065 21.156 27.2789C21.2372 27.1497 21.2778 26.9881 21.2778 26.7942ZM24.7635 29.9114C24.4403 29.9114 24.1628 29.8675 23.9308 29.7796C23.6987 29.6935 23.5123 29.5775 23.3714 29.4316C23.2306 29.2858 23.1328 29.1242 23.0781 28.9469L23.8885 28.7505C23.925 28.8251 23.978 28.8988 24.0476 28.9718C24.1172 29.0463 24.2108 29.1076 24.3285 29.1557C24.4478 29.2054 24.5978 29.2303 24.7784 29.2303C25.0336 29.2303 25.2449 29.1681 25.4123 29.0438C25.5797 28.9212 25.6634 28.719 25.6634 28.4373V27.7139H25.6186C25.5722 27.8067 25.5043 27.902 25.4148 27.9998C25.3269 28.0976 25.2101 28.1796 25.0643 28.2459C24.9201 28.3122 24.7386 28.3453 24.5199 28.3453C24.2266 28.3453 23.9606 28.2766 23.7219 28.139C23.485 27.9998 23.296 27.7927 23.1552 27.5176C23.016 27.2408 22.9464 26.8945 22.9464 26.4785C22.9464 26.0592 23.016 25.7054 23.1552 25.4171C23.296 25.1271 23.4858 24.9075 23.7244 24.7583C23.9631 24.6075 24.229 24.5321 24.5224 24.5321C24.7461 24.5321 24.93 24.5702 25.0742 24.6465C25.2201 24.721 25.3361 24.8114 25.4222 24.9174C25.5084 25.0218 25.5739 25.1204 25.6186 25.2132H25.6683V24.5818H26.5558V28.4622C26.5558 28.7886 26.4779 29.0588 26.3221 29.2725C26.1663 29.4863 25.9534 29.6462 25.6832 29.7523C25.4131 29.8584 25.1065 29.9114 24.7635 29.9114ZM24.771 27.6394C24.9615 27.6394 25.1239 27.593 25.2582 27.5002C25.3924 27.4074 25.4943 27.274 25.5639 27.1C25.6335 26.9259 25.6683 26.7171 25.6683 26.4735C25.6683 26.2332 25.6335 26.0228 25.5639 25.8421C25.496 25.6615 25.3949 25.5215 25.2607 25.422C25.1281 25.321 24.9648 25.2704 24.771 25.2704C24.5704 25.2704 24.4031 25.3226 24.2688 25.427C24.1346 25.5314 24.0335 25.6748 23.9656 25.8571C23.8976 26.0377 23.8636 26.2432 23.8636 26.4735C23.8636 26.7072 23.8976 26.9119 23.9656 27.0875C24.0352 27.2615 24.1371 27.3974 24.2713 27.4952C24.4072 27.5913 24.5737 27.6394 24.771 27.6394ZM29.3846 24.5818V25.2779H27.1896V24.5818H29.3846ZM27.7315 23.6671H28.6314V27.2516C28.6314 27.3726 28.6496 27.4654 28.6861 27.53C28.7242 27.593 28.7739 27.6361 28.8352 27.6593C28.8965 27.6825 28.9645 27.6941 29.0391 27.6941C29.0954 27.6941 29.1468 27.6899 29.1932 27.6816C29.2412 27.6733 29.2777 27.6659 29.3026 27.6593L29.4542 28.3627C29.4061 28.3793 29.3374 28.3975 29.2479 28.4174C29.16 28.4373 29.0523 28.4489 28.9247 28.4522C28.6993 28.4589 28.4963 28.4249 28.3157 28.3503C28.1351 28.2741 27.9917 28.1564 27.8857 27.9973C27.7813 27.8382 27.7299 27.6394 27.7315 27.4007V23.6671Z" fill="white"/>
<path d="M7 19L31 19" stroke="white" stroke-linecap="round"/>
</svg>
